<mxfile host="app.diagrams.net" modified="2022-10-09T08:56:41.519Z" agent="5.0 (Windows NT 10.0; Win64; x64) AppleWebKit/537.36 (KHTML, like Gecko) Chrome/105.0.0.0 Safari/537.36" etag="gKLJA-MyAJq9ACl-4z60" version="20.4.0" type="github">
  <diagram id="c3MqswlOFUKqecDU25np" name="Page-1">
    <mxGraphModel dx="1412" dy="1241" grid="1" gridSize="10" guides="1" tooltips="1" connect="1" arrows="1" fold="1" page="1" pageScale="1" pageWidth="850" pageHeight="1100" math="0" shadow="0">
      <root>
        <mxCell id="0" />
        <mxCell id="1" parent="0" />
        <mxCell id="yxD4dG-Z6kHUnOL1x4lN-1" value="" style="rounded=1;whiteSpace=wrap;html=1;" vertex="1" parent="1">
          <mxGeometry x="250" y="410" width="30" height="180" as="geometry" />
        </mxCell>
        <mxCell id="yxD4dG-Z6kHUnOL1x4lN-33" style="rounded=0;orthogonalLoop=1;jettySize=auto;html=1;exitX=1;exitY=0.5;exitDx=0;exitDy=0;entryX=0;entryY=0.5;entryDx=0;entryDy=0;endArrow=none;endFill=0;strokeWidth=0.5;fillColor=#f5f5f5;strokeColor=#666666;" edge="1" parent="1" source="yxD4dG-Z6kHUnOL1x4lN-2" target="yxD4dG-Z6kHUnOL1x4lN-12">
          <mxGeometry relative="1" as="geometry" />
        </mxCell>
        <mxCell id="yxD4dG-Z6kHUnOL1x4lN-40" style="edgeStyle=none;rounded=0;orthogonalLoop=1;jettySize=auto;html=1;exitX=1;exitY=0.5;exitDx=0;exitDy=0;entryX=0;entryY=0.5;entryDx=0;entryDy=0;strokeWidth=0.5;endArrow=none;endFill=0;fillColor=#f5f5f5;strokeColor=#666666;" edge="1" parent="1" source="yxD4dG-Z6kHUnOL1x4lN-2" target="yxD4dG-Z6kHUnOL1x4lN-13">
          <mxGeometry relative="1" as="geometry" />
        </mxCell>
        <mxCell id="yxD4dG-Z6kHUnOL1x4lN-41" style="edgeStyle=none;rounded=0;orthogonalLoop=1;jettySize=auto;html=1;exitX=1;exitY=0.5;exitDx=0;exitDy=0;entryX=0;entryY=0.333;entryDx=0;entryDy=0;entryPerimeter=0;strokeWidth=0.5;endArrow=none;endFill=0;fillColor=#f5f5f5;strokeColor=#666666;" edge="1" parent="1" source="yxD4dG-Z6kHUnOL1x4lN-2" target="yxD4dG-Z6kHUnOL1x4lN-14">
          <mxGeometry relative="1" as="geometry" />
        </mxCell>
        <mxCell id="yxD4dG-Z6kHUnOL1x4lN-42" style="edgeStyle=none;rounded=0;orthogonalLoop=1;jettySize=auto;html=1;exitX=1;exitY=0.5;exitDx=0;exitDy=0;entryX=0;entryY=0.5;entryDx=0;entryDy=0;strokeWidth=0.5;endArrow=none;endFill=0;fillColor=#f5f5f5;strokeColor=#666666;" edge="1" parent="1" source="yxD4dG-Z6kHUnOL1x4lN-2" target="yxD4dG-Z6kHUnOL1x4lN-15">
          <mxGeometry relative="1" as="geometry" />
        </mxCell>
        <mxCell id="yxD4dG-Z6kHUnOL1x4lN-2" value="" style="ellipse;whiteSpace=wrap;html=1;aspect=fixed;" vertex="1" parent="1">
          <mxGeometry x="250" y="410" width="30" height="30" as="geometry" />
        </mxCell>
        <mxCell id="yxD4dG-Z6kHUnOL1x4lN-50" style="edgeStyle=none;rounded=0;orthogonalLoop=1;jettySize=auto;html=1;exitX=1;exitY=0.5;exitDx=0;exitDy=0;entryX=0;entryY=0.5;entryDx=0;entryDy=0;strokeWidth=0.5;endArrow=none;endFill=0;fillColor=#f5f5f5;strokeColor=#666666;" edge="1" parent="1" source="yxD4dG-Z6kHUnOL1x4lN-3" target="yxD4dG-Z6kHUnOL1x4lN-12">
          <mxGeometry relative="1" as="geometry" />
        </mxCell>
        <mxCell id="yxD4dG-Z6kHUnOL1x4lN-51" style="edgeStyle=none;rounded=0;orthogonalLoop=1;jettySize=auto;html=1;exitX=1;exitY=0.5;exitDx=0;exitDy=0;entryX=0;entryY=0.5;entryDx=0;entryDy=0;strokeWidth=0.5;endArrow=none;endFill=0;fillColor=#f5f5f5;strokeColor=#666666;" edge="1" parent="1" source="yxD4dG-Z6kHUnOL1x4lN-3" target="yxD4dG-Z6kHUnOL1x4lN-13">
          <mxGeometry relative="1" as="geometry" />
        </mxCell>
        <mxCell id="yxD4dG-Z6kHUnOL1x4lN-54" style="edgeStyle=none;rounded=0;orthogonalLoop=1;jettySize=auto;html=1;exitX=1;exitY=0.5;exitDx=0;exitDy=0;entryX=0;entryY=0.5;entryDx=0;entryDy=0;strokeWidth=0.5;endArrow=none;endFill=0;fillColor=#f5f5f5;strokeColor=#666666;" edge="1" parent="1" source="yxD4dG-Z6kHUnOL1x4lN-3" target="yxD4dG-Z6kHUnOL1x4lN-14">
          <mxGeometry relative="1" as="geometry" />
        </mxCell>
        <mxCell id="yxD4dG-Z6kHUnOL1x4lN-55" style="edgeStyle=none;rounded=0;orthogonalLoop=1;jettySize=auto;html=1;exitX=1;exitY=0.5;exitDx=0;exitDy=0;entryX=0;entryY=0.5;entryDx=0;entryDy=0;strokeWidth=0.5;endArrow=none;endFill=0;fillColor=#f5f5f5;strokeColor=#666666;" edge="1" parent="1" source="yxD4dG-Z6kHUnOL1x4lN-3" target="yxD4dG-Z6kHUnOL1x4lN-15">
          <mxGeometry relative="1" as="geometry" />
        </mxCell>
        <mxCell id="yxD4dG-Z6kHUnOL1x4lN-3" value="" style="ellipse;whiteSpace=wrap;html=1;aspect=fixed;" vertex="1" parent="1">
          <mxGeometry x="250" y="440" width="30" height="30" as="geometry" />
        </mxCell>
        <mxCell id="yxD4dG-Z6kHUnOL1x4lN-53" style="edgeStyle=none;rounded=0;orthogonalLoop=1;jettySize=auto;html=1;exitX=1;exitY=0.5;exitDx=0;exitDy=0;entryX=0;entryY=0.5;entryDx=0;entryDy=0;strokeWidth=0.5;endArrow=none;endFill=0;fillColor=#f5f5f5;strokeColor=#666666;" edge="1" parent="1" source="yxD4dG-Z6kHUnOL1x4lN-4" target="yxD4dG-Z6kHUnOL1x4lN-13">
          <mxGeometry relative="1" as="geometry" />
        </mxCell>
        <mxCell id="yxD4dG-Z6kHUnOL1x4lN-56" style="edgeStyle=none;rounded=0;orthogonalLoop=1;jettySize=auto;html=1;exitX=1;exitY=0.5;exitDx=0;exitDy=0;entryX=0;entryY=0.5;entryDx=0;entryDy=0;strokeWidth=0.5;endArrow=none;endFill=0;fillColor=#f5f5f5;strokeColor=#666666;" edge="1" parent="1" source="yxD4dG-Z6kHUnOL1x4lN-4" target="yxD4dG-Z6kHUnOL1x4lN-12">
          <mxGeometry relative="1" as="geometry" />
        </mxCell>
        <mxCell id="yxD4dG-Z6kHUnOL1x4lN-57" style="edgeStyle=none;rounded=0;orthogonalLoop=1;jettySize=auto;html=1;exitX=1;exitY=0.5;exitDx=0;exitDy=0;entryX=0;entryY=0.5;entryDx=0;entryDy=0;strokeWidth=0.5;endArrow=none;endFill=0;fillColor=#f5f5f5;strokeColor=#666666;" edge="1" parent="1" source="yxD4dG-Z6kHUnOL1x4lN-4" target="yxD4dG-Z6kHUnOL1x4lN-14">
          <mxGeometry relative="1" as="geometry" />
        </mxCell>
        <mxCell id="yxD4dG-Z6kHUnOL1x4lN-58" style="edgeStyle=none;rounded=0;orthogonalLoop=1;jettySize=auto;html=1;exitX=1;exitY=0.5;exitDx=0;exitDy=0;entryX=0;entryY=0.5;entryDx=0;entryDy=0;strokeWidth=0.5;endArrow=none;endFill=0;fillColor=#f5f5f5;strokeColor=#666666;" edge="1" parent="1" source="yxD4dG-Z6kHUnOL1x4lN-4" target="yxD4dG-Z6kHUnOL1x4lN-15">
          <mxGeometry relative="1" as="geometry" />
        </mxCell>
        <mxCell id="yxD4dG-Z6kHUnOL1x4lN-4" value="" style="ellipse;whiteSpace=wrap;html=1;aspect=fixed;" vertex="1" parent="1">
          <mxGeometry x="250" y="470" width="30" height="30" as="geometry" />
        </mxCell>
        <mxCell id="yxD4dG-Z6kHUnOL1x4lN-59" style="edgeStyle=none;rounded=0;orthogonalLoop=1;jettySize=auto;html=1;exitX=1;exitY=0.5;exitDx=0;exitDy=0;entryX=0;entryY=0.5;entryDx=0;entryDy=0;strokeWidth=0.5;endArrow=none;endFill=0;fillColor=#f5f5f5;strokeColor=#666666;" edge="1" parent="1" source="yxD4dG-Z6kHUnOL1x4lN-5" target="yxD4dG-Z6kHUnOL1x4lN-12">
          <mxGeometry relative="1" as="geometry" />
        </mxCell>
        <mxCell id="yxD4dG-Z6kHUnOL1x4lN-60" style="edgeStyle=none;rounded=0;orthogonalLoop=1;jettySize=auto;html=1;exitX=1;exitY=0.5;exitDx=0;exitDy=0;entryX=0;entryY=0.5;entryDx=0;entryDy=0;strokeWidth=0.5;endArrow=none;endFill=0;fillColor=#f5f5f5;strokeColor=#666666;" edge="1" parent="1" source="yxD4dG-Z6kHUnOL1x4lN-5" target="yxD4dG-Z6kHUnOL1x4lN-13">
          <mxGeometry relative="1" as="geometry" />
        </mxCell>
        <mxCell id="yxD4dG-Z6kHUnOL1x4lN-61" style="edgeStyle=none;rounded=0;orthogonalLoop=1;jettySize=auto;html=1;exitX=1;exitY=0.5;exitDx=0;exitDy=0;entryX=-0.038;entryY=0.482;entryDx=0;entryDy=0;entryPerimeter=0;strokeWidth=0.5;endArrow=none;endFill=0;fillColor=#f5f5f5;strokeColor=#666666;" edge="1" parent="1" source="yxD4dG-Z6kHUnOL1x4lN-5" target="yxD4dG-Z6kHUnOL1x4lN-14">
          <mxGeometry relative="1" as="geometry" />
        </mxCell>
        <mxCell id="yxD4dG-Z6kHUnOL1x4lN-62" style="edgeStyle=none;rounded=0;orthogonalLoop=1;jettySize=auto;html=1;exitX=1;exitY=0.5;exitDx=0;exitDy=0;entryX=0;entryY=0.5;entryDx=0;entryDy=0;strokeWidth=0.5;endArrow=none;endFill=0;fillColor=#f5f5f5;strokeColor=#666666;" edge="1" parent="1" source="yxD4dG-Z6kHUnOL1x4lN-5" target="yxD4dG-Z6kHUnOL1x4lN-15">
          <mxGeometry relative="1" as="geometry" />
        </mxCell>
        <mxCell id="yxD4dG-Z6kHUnOL1x4lN-5" value="" style="ellipse;whiteSpace=wrap;html=1;aspect=fixed;" vertex="1" parent="1">
          <mxGeometry x="250" y="500" width="30" height="30" as="geometry" />
        </mxCell>
        <mxCell id="yxD4dG-Z6kHUnOL1x4lN-63" style="edgeStyle=none;rounded=0;orthogonalLoop=1;jettySize=auto;html=1;exitX=1;exitY=0.5;exitDx=0;exitDy=0;entryX=0;entryY=0.5;entryDx=0;entryDy=0;strokeWidth=0.5;endArrow=none;endFill=0;fillColor=#f5f5f5;strokeColor=#666666;" edge="1" parent="1" source="yxD4dG-Z6kHUnOL1x4lN-6" target="yxD4dG-Z6kHUnOL1x4lN-12">
          <mxGeometry relative="1" as="geometry" />
        </mxCell>
        <mxCell id="yxD4dG-Z6kHUnOL1x4lN-64" style="edgeStyle=none;rounded=0;orthogonalLoop=1;jettySize=auto;html=1;exitX=1;exitY=0.5;exitDx=0;exitDy=0;entryX=-0.006;entryY=0.374;entryDx=0;entryDy=0;entryPerimeter=0;strokeWidth=0.5;endArrow=none;endFill=0;fillColor=#f5f5f5;strokeColor=#666666;" edge="1" parent="1" source="yxD4dG-Z6kHUnOL1x4lN-6" target="yxD4dG-Z6kHUnOL1x4lN-9">
          <mxGeometry relative="1" as="geometry" />
        </mxCell>
        <mxCell id="yxD4dG-Z6kHUnOL1x4lN-65" style="edgeStyle=none;rounded=0;orthogonalLoop=1;jettySize=auto;html=1;exitX=1;exitY=0.5;exitDx=0;exitDy=0;entryX=0;entryY=0.5;entryDx=0;entryDy=0;strokeWidth=0.5;endArrow=none;endFill=0;fillColor=#f5f5f5;strokeColor=#666666;" edge="1" parent="1" source="yxD4dG-Z6kHUnOL1x4lN-6" target="yxD4dG-Z6kHUnOL1x4lN-14">
          <mxGeometry relative="1" as="geometry" />
        </mxCell>
        <mxCell id="yxD4dG-Z6kHUnOL1x4lN-66" style="edgeStyle=none;rounded=0;orthogonalLoop=1;jettySize=auto;html=1;exitX=1;exitY=0.5;exitDx=0;exitDy=0;entryX=0;entryY=0.5;entryDx=0;entryDy=0;strokeWidth=0.5;endArrow=none;endFill=0;fillColor=#f5f5f5;strokeColor=#666666;" edge="1" parent="1" source="yxD4dG-Z6kHUnOL1x4lN-6" target="yxD4dG-Z6kHUnOL1x4lN-15">
          <mxGeometry relative="1" as="geometry" />
        </mxCell>
        <mxCell id="yxD4dG-Z6kHUnOL1x4lN-6" value="" style="ellipse;whiteSpace=wrap;html=1;aspect=fixed;fillColor=#99CCFF;" vertex="1" parent="1">
          <mxGeometry x="250" y="530" width="30" height="30" as="geometry" />
        </mxCell>
        <mxCell id="yxD4dG-Z6kHUnOL1x4lN-67" style="edgeStyle=none;rounded=0;orthogonalLoop=1;jettySize=auto;html=1;exitX=1;exitY=0.5;exitDx=0;exitDy=0;entryX=0;entryY=0.5;entryDx=0;entryDy=0;strokeWidth=0.5;endArrow=none;endFill=0;fillColor=#f5f5f5;strokeColor=#666666;" edge="1" parent="1" source="yxD4dG-Z6kHUnOL1x4lN-7" target="yxD4dG-Z6kHUnOL1x4lN-12">
          <mxGeometry relative="1" as="geometry" />
        </mxCell>
        <mxCell id="yxD4dG-Z6kHUnOL1x4lN-68" style="edgeStyle=none;rounded=0;orthogonalLoop=1;jettySize=auto;html=1;exitX=1;exitY=0.5;exitDx=0;exitDy=0;entryX=0;entryY=0.5;entryDx=0;entryDy=0;strokeWidth=0.5;endArrow=none;endFill=0;fillColor=#f5f5f5;strokeColor=#666666;" edge="1" parent="1" source="yxD4dG-Z6kHUnOL1x4lN-7" target="yxD4dG-Z6kHUnOL1x4lN-13">
          <mxGeometry relative="1" as="geometry" />
        </mxCell>
        <mxCell id="yxD4dG-Z6kHUnOL1x4lN-69" style="edgeStyle=none;rounded=0;orthogonalLoop=1;jettySize=auto;html=1;exitX=1;exitY=0.5;exitDx=0;exitDy=0;entryX=0;entryY=0.5;entryDx=0;entryDy=0;strokeWidth=0.5;endArrow=none;endFill=0;fillColor=#f5f5f5;strokeColor=#666666;" edge="1" parent="1" source="yxD4dG-Z6kHUnOL1x4lN-7" target="yxD4dG-Z6kHUnOL1x4lN-14">
          <mxGeometry relative="1" as="geometry" />
        </mxCell>
        <mxCell id="yxD4dG-Z6kHUnOL1x4lN-7" value="" style="ellipse;whiteSpace=wrap;html=1;aspect=fixed;fillColor=#99CCFF;" vertex="1" parent="1">
          <mxGeometry x="250" y="560" width="30" height="30" as="geometry" />
        </mxCell>
        <mxCell id="yxD4dG-Z6kHUnOL1x4lN-9" value="" style="rounded=1;whiteSpace=wrap;html=1;" vertex="1" parent="1">
          <mxGeometry x="350" y="440" width="30" height="120" as="geometry" />
        </mxCell>
        <mxCell id="yxD4dG-Z6kHUnOL1x4lN-71" style="edgeStyle=none;rounded=0;orthogonalLoop=1;jettySize=auto;html=1;exitX=1;exitY=0.5;exitDx=0;exitDy=0;entryX=0;entryY=0.5;entryDx=0;entryDy=0;strokeColor=#474747;strokeWidth=0.5;endArrow=none;endFill=0;" edge="1" parent="1" source="yxD4dG-Z6kHUnOL1x4lN-12" target="yxD4dG-Z6kHUnOL1x4lN-19">
          <mxGeometry relative="1" as="geometry" />
        </mxCell>
        <mxCell id="yxD4dG-Z6kHUnOL1x4lN-72" style="edgeStyle=none;rounded=0;orthogonalLoop=1;jettySize=auto;html=1;exitX=1;exitY=0.5;exitDx=0;exitDy=0;entryX=0;entryY=0.5;entryDx=0;entryDy=0;strokeColor=#474747;strokeWidth=0.5;endArrow=none;endFill=0;" edge="1" parent="1" source="yxD4dG-Z6kHUnOL1x4lN-12" target="yxD4dG-Z6kHUnOL1x4lN-20">
          <mxGeometry relative="1" as="geometry" />
        </mxCell>
        <mxCell id="yxD4dG-Z6kHUnOL1x4lN-12" value="" style="ellipse;whiteSpace=wrap;html=1;aspect=fixed;" vertex="1" parent="1">
          <mxGeometry x="350" y="440" width="30" height="30" as="geometry" />
        </mxCell>
        <mxCell id="yxD4dG-Z6kHUnOL1x4lN-73" style="edgeStyle=none;rounded=0;orthogonalLoop=1;jettySize=auto;html=1;exitX=1;exitY=0.5;exitDx=0;exitDy=0;entryX=0;entryY=0.5;entryDx=0;entryDy=0;strokeColor=#474747;strokeWidth=0.5;endArrow=none;endFill=0;" edge="1" parent="1" source="yxD4dG-Z6kHUnOL1x4lN-13" target="yxD4dG-Z6kHUnOL1x4lN-19">
          <mxGeometry relative="1" as="geometry" />
        </mxCell>
        <mxCell id="yxD4dG-Z6kHUnOL1x4lN-74" style="edgeStyle=none;rounded=0;orthogonalLoop=1;jettySize=auto;html=1;exitX=1;exitY=0.5;exitDx=0;exitDy=0;entryX=0;entryY=0.5;entryDx=0;entryDy=0;strokeColor=#474747;strokeWidth=0.5;endArrow=none;endFill=0;" edge="1" parent="1" source="yxD4dG-Z6kHUnOL1x4lN-13" target="yxD4dG-Z6kHUnOL1x4lN-20">
          <mxGeometry relative="1" as="geometry" />
        </mxCell>
        <mxCell id="yxD4dG-Z6kHUnOL1x4lN-13" value="" style="ellipse;whiteSpace=wrap;html=1;aspect=fixed;" vertex="1" parent="1">
          <mxGeometry x="350" y="470" width="30" height="30" as="geometry" />
        </mxCell>
        <mxCell id="yxD4dG-Z6kHUnOL1x4lN-75" style="edgeStyle=none;rounded=0;orthogonalLoop=1;jettySize=auto;html=1;exitX=1;exitY=0.5;exitDx=0;exitDy=0;entryX=0;entryY=0.5;entryDx=0;entryDy=0;strokeColor=#474747;strokeWidth=0.5;endArrow=none;endFill=0;" edge="1" parent="1" source="yxD4dG-Z6kHUnOL1x4lN-14" target="yxD4dG-Z6kHUnOL1x4lN-19">
          <mxGeometry relative="1" as="geometry" />
        </mxCell>
        <mxCell id="yxD4dG-Z6kHUnOL1x4lN-77" style="edgeStyle=none;rounded=0;orthogonalLoop=1;jettySize=auto;html=1;exitX=1;exitY=0.5;exitDx=0;exitDy=0;entryX=0;entryY=0.5;entryDx=0;entryDy=0;strokeColor=#474747;strokeWidth=0.5;endArrow=none;endFill=0;" edge="1" parent="1" source="yxD4dG-Z6kHUnOL1x4lN-14" target="yxD4dG-Z6kHUnOL1x4lN-20">
          <mxGeometry relative="1" as="geometry" />
        </mxCell>
        <mxCell id="yxD4dG-Z6kHUnOL1x4lN-14" value="" style="ellipse;whiteSpace=wrap;html=1;aspect=fixed;" vertex="1" parent="1">
          <mxGeometry x="350" y="500" width="30" height="30" as="geometry" />
        </mxCell>
        <mxCell id="yxD4dG-Z6kHUnOL1x4lN-76" style="edgeStyle=none;rounded=0;orthogonalLoop=1;jettySize=auto;html=1;exitX=1;exitY=0.5;exitDx=0;exitDy=0;entryX=0;entryY=0.5;entryDx=0;entryDy=0;strokeColor=#474747;strokeWidth=0.5;endArrow=none;endFill=0;" edge="1" parent="1" source="yxD4dG-Z6kHUnOL1x4lN-15" target="yxD4dG-Z6kHUnOL1x4lN-20">
          <mxGeometry relative="1" as="geometry" />
        </mxCell>
        <mxCell id="yxD4dG-Z6kHUnOL1x4lN-78" style="edgeStyle=none;rounded=0;orthogonalLoop=1;jettySize=auto;html=1;exitX=1;exitY=0.5;exitDx=0;exitDy=0;entryX=0;entryY=0.5;entryDx=0;entryDy=0;strokeColor=#474747;strokeWidth=0.5;endArrow=none;endFill=0;" edge="1" parent="1" source="yxD4dG-Z6kHUnOL1x4lN-15" target="yxD4dG-Z6kHUnOL1x4lN-19">
          <mxGeometry relative="1" as="geometry" />
        </mxCell>
        <mxCell id="yxD4dG-Z6kHUnOL1x4lN-15" value="" style="ellipse;whiteSpace=wrap;html=1;aspect=fixed;" vertex="1" parent="1">
          <mxGeometry x="350" y="530" width="30" height="30" as="geometry" />
        </mxCell>
        <mxCell id="yxD4dG-Z6kHUnOL1x4lN-86" style="edgeStyle=none;rounded=0;orthogonalLoop=1;jettySize=auto;html=1;exitX=1;exitY=0.75;exitDx=0;exitDy=0;entryX=0;entryY=0.5;entryDx=0;entryDy=0;strokeColor=#474747;strokeWidth=0.5;endArrow=none;endFill=0;" edge="1" parent="1" source="yxD4dG-Z6kHUnOL1x4lN-16" target="yxD4dG-Z6kHUnOL1x4lN-32">
          <mxGeometry relative="1" as="geometry" />
        </mxCell>
        <mxCell id="yxD4dG-Z6kHUnOL1x4lN-16" value="" style="rounded=1;whiteSpace=wrap;html=1;" vertex="1" parent="1">
          <mxGeometry x="410" y="470" width="30" height="60" as="geometry" />
        </mxCell>
        <mxCell id="yxD4dG-Z6kHUnOL1x4lN-79" style="edgeStyle=none;rounded=0;orthogonalLoop=1;jettySize=auto;html=1;exitX=1;exitY=0.5;exitDx=0;exitDy=0;entryX=0;entryY=0.5;entryDx=0;entryDy=0;strokeColor=#474747;strokeWidth=0.5;endArrow=none;endFill=0;" edge="1" parent="1" source="yxD4dG-Z6kHUnOL1x4lN-19" target="yxD4dG-Z6kHUnOL1x4lN-29">
          <mxGeometry relative="1" as="geometry" />
        </mxCell>
        <mxCell id="yxD4dG-Z6kHUnOL1x4lN-80" style="edgeStyle=none;rounded=0;orthogonalLoop=1;jettySize=auto;html=1;exitX=1;exitY=0.5;exitDx=0;exitDy=0;entryX=0;entryY=0.5;entryDx=0;entryDy=0;strokeColor=#474747;strokeWidth=0.5;endArrow=none;endFill=0;" edge="1" parent="1" source="yxD4dG-Z6kHUnOL1x4lN-19" target="yxD4dG-Z6kHUnOL1x4lN-30">
          <mxGeometry relative="1" as="geometry" />
        </mxCell>
        <mxCell id="yxD4dG-Z6kHUnOL1x4lN-81" style="edgeStyle=none;rounded=0;orthogonalLoop=1;jettySize=auto;html=1;exitX=1;exitY=0.5;exitDx=0;exitDy=0;entryX=0;entryY=0.5;entryDx=0;entryDy=0;strokeColor=#474747;strokeWidth=0.5;endArrow=none;endFill=0;" edge="1" parent="1" source="yxD4dG-Z6kHUnOL1x4lN-19" target="yxD4dG-Z6kHUnOL1x4lN-31">
          <mxGeometry relative="1" as="geometry" />
        </mxCell>
        <mxCell id="yxD4dG-Z6kHUnOL1x4lN-82" style="edgeStyle=none;rounded=0;orthogonalLoop=1;jettySize=auto;html=1;exitX=1;exitY=0.5;exitDx=0;exitDy=0;entryX=0;entryY=0.5;entryDx=0;entryDy=0;strokeColor=#474747;strokeWidth=0.5;endArrow=none;endFill=0;" edge="1" parent="1" source="yxD4dG-Z6kHUnOL1x4lN-19" target="yxD4dG-Z6kHUnOL1x4lN-32">
          <mxGeometry relative="1" as="geometry" />
        </mxCell>
        <mxCell id="yxD4dG-Z6kHUnOL1x4lN-19" value="" style="ellipse;whiteSpace=wrap;html=1;aspect=fixed;" vertex="1" parent="1">
          <mxGeometry x="410" y="470" width="30" height="30" as="geometry" />
        </mxCell>
        <mxCell id="yxD4dG-Z6kHUnOL1x4lN-83" style="edgeStyle=none;rounded=0;orthogonalLoop=1;jettySize=auto;html=1;exitX=1;exitY=0.5;exitDx=0;exitDy=0;entryX=0;entryY=0.5;entryDx=0;entryDy=0;strokeColor=#474747;strokeWidth=0.5;endArrow=none;endFill=0;" edge="1" parent="1" source="yxD4dG-Z6kHUnOL1x4lN-20" target="yxD4dG-Z6kHUnOL1x4lN-29">
          <mxGeometry relative="1" as="geometry" />
        </mxCell>
        <mxCell id="yxD4dG-Z6kHUnOL1x4lN-84" style="edgeStyle=none;rounded=0;orthogonalLoop=1;jettySize=auto;html=1;exitX=1;exitY=0.5;exitDx=0;exitDy=0;entryX=0;entryY=0.5;entryDx=0;entryDy=0;strokeColor=#474747;strokeWidth=0.5;endArrow=none;endFill=0;" edge="1" parent="1" source="yxD4dG-Z6kHUnOL1x4lN-20" target="yxD4dG-Z6kHUnOL1x4lN-30">
          <mxGeometry relative="1" as="geometry" />
        </mxCell>
        <mxCell id="yxD4dG-Z6kHUnOL1x4lN-85" style="edgeStyle=none;rounded=0;orthogonalLoop=1;jettySize=auto;html=1;exitX=1;exitY=0.5;exitDx=0;exitDy=0;entryX=0;entryY=0.5;entryDx=0;entryDy=0;strokeColor=#474747;strokeWidth=0.5;endArrow=none;endFill=0;" edge="1" parent="1" source="yxD4dG-Z6kHUnOL1x4lN-20" target="yxD4dG-Z6kHUnOL1x4lN-31">
          <mxGeometry relative="1" as="geometry" />
        </mxCell>
        <mxCell id="yxD4dG-Z6kHUnOL1x4lN-20" value="" style="ellipse;whiteSpace=wrap;html=1;aspect=fixed;" vertex="1" parent="1">
          <mxGeometry x="410" y="500" width="30" height="30" as="geometry" />
        </mxCell>
        <mxCell id="yxD4dG-Z6kHUnOL1x4lN-21" value="" style="rounded=1;whiteSpace=wrap;html=1;" vertex="1" parent="1">
          <mxGeometry x="570" y="410" width="30" height="180" as="geometry" />
        </mxCell>
        <mxCell id="yxD4dG-Z6kHUnOL1x4lN-22" value="" style="ellipse;whiteSpace=wrap;html=1;aspect=fixed;" vertex="1" parent="1">
          <mxGeometry x="570" y="410" width="30" height="30" as="geometry" />
        </mxCell>
        <mxCell id="yxD4dG-Z6kHUnOL1x4lN-23" value="" style="ellipse;whiteSpace=wrap;html=1;aspect=fixed;" vertex="1" parent="1">
          <mxGeometry x="570" y="440" width="30" height="30" as="geometry" />
        </mxCell>
        <mxCell id="yxD4dG-Z6kHUnOL1x4lN-24" value="" style="ellipse;whiteSpace=wrap;html=1;aspect=fixed;" vertex="1" parent="1">
          <mxGeometry x="570" y="470" width="30" height="30" as="geometry" />
        </mxCell>
        <mxCell id="yxD4dG-Z6kHUnOL1x4lN-25" value="" style="ellipse;whiteSpace=wrap;html=1;aspect=fixed;" vertex="1" parent="1">
          <mxGeometry x="570" y="500" width="30" height="30" as="geometry" />
        </mxCell>
        <mxCell id="yxD4dG-Z6kHUnOL1x4lN-26" value="" style="ellipse;whiteSpace=wrap;html=1;aspect=fixed;" vertex="1" parent="1">
          <mxGeometry x="570" y="530" width="30" height="30" as="geometry" />
        </mxCell>
        <mxCell id="yxD4dG-Z6kHUnOL1x4lN-27" value="" style="ellipse;whiteSpace=wrap;html=1;aspect=fixed;" vertex="1" parent="1">
          <mxGeometry x="570" y="560" width="30" height="30" as="geometry" />
        </mxCell>
        <mxCell id="yxD4dG-Z6kHUnOL1x4lN-28" value="" style="rounded=1;whiteSpace=wrap;html=1;" vertex="1" parent="1">
          <mxGeometry x="470" y="440" width="30" height="120" as="geometry" />
        </mxCell>
        <mxCell id="yxD4dG-Z6kHUnOL1x4lN-87" style="edgeStyle=none;rounded=0;orthogonalLoop=1;jettySize=auto;html=1;exitX=1;exitY=0.5;exitDx=0;exitDy=0;entryX=0;entryY=0.5;entryDx=0;entryDy=0;strokeColor=#474747;strokeWidth=0.5;endArrow=none;endFill=0;" edge="1" parent="1" source="yxD4dG-Z6kHUnOL1x4lN-29" target="yxD4dG-Z6kHUnOL1x4lN-22">
          <mxGeometry relative="1" as="geometry" />
        </mxCell>
        <mxCell id="yxD4dG-Z6kHUnOL1x4lN-88" style="edgeStyle=none;rounded=0;orthogonalLoop=1;jettySize=auto;html=1;exitX=1;exitY=0.5;exitDx=0;exitDy=0;entryX=0;entryY=0.5;entryDx=0;entryDy=0;strokeColor=#474747;strokeWidth=0.5;endArrow=none;endFill=0;" edge="1" parent="1" source="yxD4dG-Z6kHUnOL1x4lN-29" target="yxD4dG-Z6kHUnOL1x4lN-23">
          <mxGeometry relative="1" as="geometry" />
        </mxCell>
        <mxCell id="yxD4dG-Z6kHUnOL1x4lN-89" style="edgeStyle=none;rounded=0;orthogonalLoop=1;jettySize=auto;html=1;exitX=1;exitY=0.5;exitDx=0;exitDy=0;entryX=0;entryY=0.5;entryDx=0;entryDy=0;strokeColor=#474747;strokeWidth=0.5;endArrow=none;endFill=0;" edge="1" parent="1" source="yxD4dG-Z6kHUnOL1x4lN-29" target="yxD4dG-Z6kHUnOL1x4lN-24">
          <mxGeometry relative="1" as="geometry" />
        </mxCell>
        <mxCell id="yxD4dG-Z6kHUnOL1x4lN-90" style="edgeStyle=none;rounded=0;orthogonalLoop=1;jettySize=auto;html=1;exitX=1;exitY=0.5;exitDx=0;exitDy=0;entryX=0;entryY=0.5;entryDx=0;entryDy=0;strokeColor=#474747;strokeWidth=0.5;endArrow=none;endFill=0;" edge="1" parent="1" source="yxD4dG-Z6kHUnOL1x4lN-29" target="yxD4dG-Z6kHUnOL1x4lN-25">
          <mxGeometry relative="1" as="geometry" />
        </mxCell>
        <mxCell id="yxD4dG-Z6kHUnOL1x4lN-91" style="edgeStyle=none;rounded=0;orthogonalLoop=1;jettySize=auto;html=1;exitX=1;exitY=0.5;exitDx=0;exitDy=0;entryX=0;entryY=0.5;entryDx=0;entryDy=0;strokeColor=#474747;strokeWidth=0.5;endArrow=none;endFill=0;" edge="1" parent="1" source="yxD4dG-Z6kHUnOL1x4lN-29" target="yxD4dG-Z6kHUnOL1x4lN-26">
          <mxGeometry relative="1" as="geometry" />
        </mxCell>
        <mxCell id="yxD4dG-Z6kHUnOL1x4lN-29" value="" style="ellipse;whiteSpace=wrap;html=1;aspect=fixed;" vertex="1" parent="1">
          <mxGeometry x="470" y="440" width="30" height="30" as="geometry" />
        </mxCell>
        <mxCell id="yxD4dG-Z6kHUnOL1x4lN-93" style="edgeStyle=none;rounded=0;orthogonalLoop=1;jettySize=auto;html=1;exitX=1;exitY=0.5;exitDx=0;exitDy=0;entryX=0;entryY=0.5;entryDx=0;entryDy=0;strokeColor=#474747;strokeWidth=0.5;endArrow=none;endFill=0;" edge="1" parent="1" source="yxD4dG-Z6kHUnOL1x4lN-30" target="yxD4dG-Z6kHUnOL1x4lN-22">
          <mxGeometry relative="1" as="geometry" />
        </mxCell>
        <mxCell id="yxD4dG-Z6kHUnOL1x4lN-94" style="edgeStyle=none;rounded=0;orthogonalLoop=1;jettySize=auto;html=1;exitX=1;exitY=0.5;exitDx=0;exitDy=0;entryX=0;entryY=0.5;entryDx=0;entryDy=0;strokeColor=#474747;strokeWidth=0.5;endArrow=none;endFill=0;" edge="1" parent="1" source="yxD4dG-Z6kHUnOL1x4lN-30" target="yxD4dG-Z6kHUnOL1x4lN-23">
          <mxGeometry relative="1" as="geometry" />
        </mxCell>
        <mxCell id="yxD4dG-Z6kHUnOL1x4lN-95" style="edgeStyle=none;rounded=0;orthogonalLoop=1;jettySize=auto;html=1;exitX=1;exitY=0.5;exitDx=0;exitDy=0;entryX=0;entryY=0.417;entryDx=0;entryDy=0;entryPerimeter=0;strokeColor=#474747;strokeWidth=0.5;endArrow=none;endFill=0;" edge="1" parent="1" source="yxD4dG-Z6kHUnOL1x4lN-30" target="yxD4dG-Z6kHUnOL1x4lN-21">
          <mxGeometry relative="1" as="geometry" />
        </mxCell>
        <mxCell id="yxD4dG-Z6kHUnOL1x4lN-96" style="edgeStyle=none;rounded=0;orthogonalLoop=1;jettySize=auto;html=1;exitX=1;exitY=0.5;exitDx=0;exitDy=0;entryX=0;entryY=0.5;entryDx=0;entryDy=0;strokeColor=#474747;strokeWidth=0.5;endArrow=none;endFill=0;" edge="1" parent="1" source="yxD4dG-Z6kHUnOL1x4lN-30" target="yxD4dG-Z6kHUnOL1x4lN-25">
          <mxGeometry relative="1" as="geometry" />
        </mxCell>
        <mxCell id="yxD4dG-Z6kHUnOL1x4lN-97" style="edgeStyle=none;rounded=0;orthogonalLoop=1;jettySize=auto;html=1;exitX=1;exitY=0.5;exitDx=0;exitDy=0;entryX=0;entryY=0.5;entryDx=0;entryDy=0;strokeColor=#474747;strokeWidth=0.5;endArrow=none;endFill=0;" edge="1" parent="1" source="yxD4dG-Z6kHUnOL1x4lN-30" target="yxD4dG-Z6kHUnOL1x4lN-26">
          <mxGeometry relative="1" as="geometry" />
        </mxCell>
        <mxCell id="yxD4dG-Z6kHUnOL1x4lN-98" style="edgeStyle=none;rounded=0;orthogonalLoop=1;jettySize=auto;html=1;exitX=1;exitY=0.5;exitDx=0;exitDy=0;entryX=0;entryY=0.5;entryDx=0;entryDy=0;strokeColor=#474747;strokeWidth=0.5;endArrow=none;endFill=0;" edge="1" parent="1" source="yxD4dG-Z6kHUnOL1x4lN-30" target="yxD4dG-Z6kHUnOL1x4lN-27">
          <mxGeometry relative="1" as="geometry" />
        </mxCell>
        <mxCell id="yxD4dG-Z6kHUnOL1x4lN-30" value="" style="ellipse;whiteSpace=wrap;html=1;aspect=fixed;" vertex="1" parent="1">
          <mxGeometry x="470" y="470" width="30" height="30" as="geometry" />
        </mxCell>
        <mxCell id="yxD4dG-Z6kHUnOL1x4lN-99" style="edgeStyle=none;rounded=0;orthogonalLoop=1;jettySize=auto;html=1;exitX=1;exitY=0.5;exitDx=0;exitDy=0;entryX=0;entryY=0.5;entryDx=0;entryDy=0;strokeColor=#474747;strokeWidth=0.5;endArrow=none;endFill=0;" edge="1" parent="1" source="yxD4dG-Z6kHUnOL1x4lN-31" target="yxD4dG-Z6kHUnOL1x4lN-22">
          <mxGeometry relative="1" as="geometry" />
        </mxCell>
        <mxCell id="yxD4dG-Z6kHUnOL1x4lN-100" style="edgeStyle=none;rounded=0;orthogonalLoop=1;jettySize=auto;html=1;exitX=1;exitY=0.5;exitDx=0;exitDy=0;entryX=0;entryY=0.5;entryDx=0;entryDy=0;strokeColor=#474747;strokeWidth=0.5;endArrow=none;endFill=0;" edge="1" parent="1" source="yxD4dG-Z6kHUnOL1x4lN-31" target="yxD4dG-Z6kHUnOL1x4lN-23">
          <mxGeometry relative="1" as="geometry" />
        </mxCell>
        <mxCell id="yxD4dG-Z6kHUnOL1x4lN-101" style="edgeStyle=none;rounded=0;orthogonalLoop=1;jettySize=auto;html=1;exitX=1;exitY=0.5;exitDx=0;exitDy=0;entryX=0;entryY=0.5;entryDx=0;entryDy=0;strokeColor=#474747;strokeWidth=0.5;endArrow=none;endFill=0;" edge="1" parent="1" source="yxD4dG-Z6kHUnOL1x4lN-31" target="yxD4dG-Z6kHUnOL1x4lN-24">
          <mxGeometry relative="1" as="geometry" />
        </mxCell>
        <mxCell id="yxD4dG-Z6kHUnOL1x4lN-102" style="edgeStyle=none;rounded=0;orthogonalLoop=1;jettySize=auto;html=1;exitX=1;exitY=0.5;exitDx=0;exitDy=0;strokeColor=#474747;strokeWidth=0.5;endArrow=none;endFill=0;" edge="1" parent="1" source="yxD4dG-Z6kHUnOL1x4lN-31">
          <mxGeometry relative="1" as="geometry">
            <mxPoint x="570" y="515" as="targetPoint" />
          </mxGeometry>
        </mxCell>
        <mxCell id="yxD4dG-Z6kHUnOL1x4lN-103" style="edgeStyle=none;rounded=0;orthogonalLoop=1;jettySize=auto;html=1;exitX=1;exitY=0.5;exitDx=0;exitDy=0;entryX=0;entryY=0.5;entryDx=0;entryDy=0;strokeColor=#474747;strokeWidth=0.5;endArrow=none;endFill=0;" edge="1" parent="1" source="yxD4dG-Z6kHUnOL1x4lN-31" target="yxD4dG-Z6kHUnOL1x4lN-26">
          <mxGeometry relative="1" as="geometry" />
        </mxCell>
        <mxCell id="yxD4dG-Z6kHUnOL1x4lN-104" style="edgeStyle=none;rounded=0;orthogonalLoop=1;jettySize=auto;html=1;exitX=1;exitY=0.5;exitDx=0;exitDy=0;entryX=0;entryY=0.5;entryDx=0;entryDy=0;strokeColor=#474747;strokeWidth=0.5;endArrow=none;endFill=0;" edge="1" parent="1" source="yxD4dG-Z6kHUnOL1x4lN-31" target="yxD4dG-Z6kHUnOL1x4lN-27">
          <mxGeometry relative="1" as="geometry" />
        </mxCell>
        <mxCell id="yxD4dG-Z6kHUnOL1x4lN-31" value="" style="ellipse;whiteSpace=wrap;html=1;aspect=fixed;" vertex="1" parent="1">
          <mxGeometry x="470" y="500" width="30" height="30" as="geometry" />
        </mxCell>
        <mxCell id="yxD4dG-Z6kHUnOL1x4lN-105" style="edgeStyle=none;rounded=0;orthogonalLoop=1;jettySize=auto;html=1;exitX=1;exitY=0.5;exitDx=0;exitDy=0;entryX=0;entryY=0.5;entryDx=0;entryDy=0;strokeColor=#474747;strokeWidth=0.5;endArrow=none;endFill=0;" edge="1" parent="1" source="yxD4dG-Z6kHUnOL1x4lN-32" target="yxD4dG-Z6kHUnOL1x4lN-22">
          <mxGeometry relative="1" as="geometry" />
        </mxCell>
        <mxCell id="yxD4dG-Z6kHUnOL1x4lN-106" style="edgeStyle=none;rounded=0;orthogonalLoop=1;jettySize=auto;html=1;exitX=1;exitY=0.5;exitDx=0;exitDy=0;entryX=0;entryY=0.5;entryDx=0;entryDy=0;strokeColor=#474747;strokeWidth=0.5;endArrow=none;endFill=0;" edge="1" parent="1" source="yxD4dG-Z6kHUnOL1x4lN-32" target="yxD4dG-Z6kHUnOL1x4lN-23">
          <mxGeometry relative="1" as="geometry" />
        </mxCell>
        <mxCell id="yxD4dG-Z6kHUnOL1x4lN-107" style="edgeStyle=none;rounded=0;orthogonalLoop=1;jettySize=auto;html=1;exitX=1;exitY=0.5;exitDx=0;exitDy=0;entryX=0;entryY=0.5;entryDx=0;entryDy=0;strokeColor=#474747;strokeWidth=0.5;endArrow=none;endFill=0;" edge="1" parent="1" source="yxD4dG-Z6kHUnOL1x4lN-32" target="yxD4dG-Z6kHUnOL1x4lN-24">
          <mxGeometry relative="1" as="geometry" />
        </mxCell>
        <mxCell id="yxD4dG-Z6kHUnOL1x4lN-108" style="edgeStyle=none;rounded=0;orthogonalLoop=1;jettySize=auto;html=1;exitX=1;exitY=0.5;exitDx=0;exitDy=0;entryX=0;entryY=0.5;entryDx=0;entryDy=0;strokeColor=#474747;strokeWidth=0.5;endArrow=none;endFill=0;" edge="1" parent="1" source="yxD4dG-Z6kHUnOL1x4lN-32" target="yxD4dG-Z6kHUnOL1x4lN-25">
          <mxGeometry relative="1" as="geometry" />
        </mxCell>
        <mxCell id="yxD4dG-Z6kHUnOL1x4lN-109" style="edgeStyle=none;rounded=0;orthogonalLoop=1;jettySize=auto;html=1;exitX=1;exitY=0.5;exitDx=0;exitDy=0;strokeColor=#474747;strokeWidth=0.5;endArrow=none;endFill=0;" edge="1" parent="1" source="yxD4dG-Z6kHUnOL1x4lN-32">
          <mxGeometry relative="1" as="geometry">
            <mxPoint x="570" y="545" as="targetPoint" />
          </mxGeometry>
        </mxCell>
        <mxCell id="yxD4dG-Z6kHUnOL1x4lN-110" style="edgeStyle=none;rounded=0;orthogonalLoop=1;jettySize=auto;html=1;exitX=1;exitY=0.5;exitDx=0;exitDy=0;entryX=-0.073;entryY=0.54;entryDx=0;entryDy=0;entryPerimeter=0;strokeColor=#474747;strokeWidth=0.5;endArrow=none;endFill=0;" edge="1" parent="1" source="yxD4dG-Z6kHUnOL1x4lN-32" target="yxD4dG-Z6kHUnOL1x4lN-27">
          <mxGeometry relative="1" as="geometry" />
        </mxCell>
        <mxCell id="yxD4dG-Z6kHUnOL1x4lN-32" value="" style="ellipse;whiteSpace=wrap;html=1;aspect=fixed;" vertex="1" parent="1">
          <mxGeometry x="470" y="530" width="30" height="30" as="geometry" />
        </mxCell>
        <mxCell id="yxD4dG-Z6kHUnOL1x4lN-111" value="Bottleneck&lt;br&gt;Layer" style="text;html=1;align=center;verticalAlign=middle;resizable=0;points=[];autosize=1;strokeColor=none;fillColor=none;" vertex="1" parent="1">
          <mxGeometry x="385" y="360" width="80" height="40" as="geometry" />
        </mxCell>
        <mxCell id="yxD4dG-Z6kHUnOL1x4lN-112" value="Input" style="text;html=1;align=center;verticalAlign=middle;resizable=0;points=[];autosize=1;strokeColor=none;fillColor=none;" vertex="1" parent="1">
          <mxGeometry x="240" y="600" width="50" height="30" as="geometry" />
        </mxCell>
        <mxCell id="yxD4dG-Z6kHUnOL1x4lN-113" value="Reconstructed&lt;br&gt;Input" style="text;html=1;align=center;verticalAlign=middle;resizable=0;points=[];autosize=1;strokeColor=none;fillColor=none;" vertex="1" parent="1">
          <mxGeometry x="535" y="595" width="100" height="40" as="geometry" />
        </mxCell>
        <mxCell id="yxD4dG-Z6kHUnOL1x4lN-114" value="" style="ellipse;whiteSpace=wrap;html=1;aspect=fixed;" vertex="1" parent="1">
          <mxGeometry x="570" y="410" width="30" height="30" as="geometry" />
        </mxCell>
        <mxCell id="yxD4dG-Z6kHUnOL1x4lN-115" value="" style="ellipse;whiteSpace=wrap;html=1;aspect=fixed;" vertex="1" parent="1">
          <mxGeometry x="570" y="440" width="30" height="30" as="geometry" />
        </mxCell>
        <mxCell id="yxD4dG-Z6kHUnOL1x4lN-116" value="" style="ellipse;whiteSpace=wrap;html=1;aspect=fixed;" vertex="1" parent="1">
          <mxGeometry x="570" y="470" width="30" height="30" as="geometry" />
        </mxCell>
        <mxCell id="yxD4dG-Z6kHUnOL1x4lN-117" value="" style="ellipse;whiteSpace=wrap;html=1;aspect=fixed;" vertex="1" parent="1">
          <mxGeometry x="570" y="410" width="30" height="30" as="geometry" />
        </mxCell>
        <mxCell id="yxD4dG-Z6kHUnOL1x4lN-118" value="" style="ellipse;whiteSpace=wrap;html=1;aspect=fixed;" vertex="1" parent="1">
          <mxGeometry x="570" y="440" width="30" height="30" as="geometry" />
        </mxCell>
        <mxCell id="yxD4dG-Z6kHUnOL1x4lN-119" value="" style="ellipse;whiteSpace=wrap;html=1;aspect=fixed;" vertex="1" parent="1">
          <mxGeometry x="570" y="470" width="30" height="30" as="geometry" />
        </mxCell>
        <mxCell id="yxD4dG-Z6kHUnOL1x4lN-120" value="" style="ellipse;whiteSpace=wrap;html=1;aspect=fixed;" vertex="1" parent="1">
          <mxGeometry x="570" y="530" width="30" height="30" as="geometry" />
        </mxCell>
        <mxCell id="yxD4dG-Z6kHUnOL1x4lN-121" value="" style="ellipse;whiteSpace=wrap;html=1;aspect=fixed;" vertex="1" parent="1">
          <mxGeometry x="570" y="560" width="30" height="30" as="geometry" />
        </mxCell>
        <mxCell id="yxD4dG-Z6kHUnOL1x4lN-131" value="" style="ellipse;whiteSpace=wrap;html=1;aspect=fixed;" vertex="1" parent="1">
          <mxGeometry x="570" y="410" width="30" height="30" as="geometry" />
        </mxCell>
        <mxCell id="yxD4dG-Z6kHUnOL1x4lN-132" value="" style="ellipse;whiteSpace=wrap;html=1;aspect=fixed;" vertex="1" parent="1">
          <mxGeometry x="570" y="440" width="30" height="30" as="geometry" />
        </mxCell>
        <mxCell id="yxD4dG-Z6kHUnOL1x4lN-133" value="" style="ellipse;whiteSpace=wrap;html=1;aspect=fixed;" vertex="1" parent="1">
          <mxGeometry x="570" y="470" width="30" height="30" as="geometry" />
        </mxCell>
        <mxCell id="yxD4dG-Z6kHUnOL1x4lN-134" value="" style="ellipse;whiteSpace=wrap;html=1;aspect=fixed;" vertex="1" parent="1">
          <mxGeometry x="570" y="500" width="30" height="30" as="geometry" />
        </mxCell>
        <mxCell id="yxD4dG-Z6kHUnOL1x4lN-135" value="" style="ellipse;whiteSpace=wrap;html=1;aspect=fixed;" vertex="1" parent="1">
          <mxGeometry x="570" y="530" width="30" height="30" as="geometry" />
        </mxCell>
        <mxCell id="yxD4dG-Z6kHUnOL1x4lN-136" value="" style="ellipse;whiteSpace=wrap;html=1;aspect=fixed;" vertex="1" parent="1">
          <mxGeometry x="570" y="410" width="30" height="30" as="geometry" />
        </mxCell>
        <mxCell id="yxD4dG-Z6kHUnOL1x4lN-137" value="" style="ellipse;whiteSpace=wrap;html=1;aspect=fixed;" vertex="1" parent="1">
          <mxGeometry x="570" y="440" width="30" height="30" as="geometry" />
        </mxCell>
        <mxCell id="yxD4dG-Z6kHUnOL1x4lN-138" value="" style="ellipse;whiteSpace=wrap;html=1;aspect=fixed;" vertex="1" parent="1">
          <mxGeometry x="570" y="470" width="30" height="30" as="geometry" />
        </mxCell>
        <mxCell id="yxD4dG-Z6kHUnOL1x4lN-139" value="" style="ellipse;whiteSpace=wrap;html=1;aspect=fixed;" vertex="1" parent="1">
          <mxGeometry x="570" y="500" width="30" height="30" as="geometry" />
        </mxCell>
        <mxCell id="yxD4dG-Z6kHUnOL1x4lN-140" value="" style="ellipse;whiteSpace=wrap;html=1;aspect=fixed;" vertex="1" parent="1">
          <mxGeometry x="570" y="530" width="30" height="30" as="geometry" />
        </mxCell>
        <mxCell id="yxD4dG-Z6kHUnOL1x4lN-141" value="" style="ellipse;whiteSpace=wrap;html=1;aspect=fixed;" vertex="1" parent="1">
          <mxGeometry x="570" y="560" width="30" height="30" as="geometry" />
        </mxCell>
        <mxCell id="yxD4dG-Z6kHUnOL1x4lN-142" value="" style="ellipse;whiteSpace=wrap;html=1;aspect=fixed;" vertex="1" parent="1">
          <mxGeometry x="470" y="530" width="30" height="30" as="geometry" />
        </mxCell>
        <mxCell id="yxD4dG-Z6kHUnOL1x4lN-143" value="" style="ellipse;whiteSpace=wrap;html=1;aspect=fixed;" vertex="1" parent="1">
          <mxGeometry x="470" y="500" width="30" height="30" as="geometry" />
        </mxCell>
        <mxCell id="yxD4dG-Z6kHUnOL1x4lN-144" value="" style="ellipse;whiteSpace=wrap;html=1;aspect=fixed;" vertex="1" parent="1">
          <mxGeometry x="470" y="470" width="30" height="30" as="geometry" />
        </mxCell>
        <mxCell id="yxD4dG-Z6kHUnOL1x4lN-145" value="" style="ellipse;whiteSpace=wrap;html=1;aspect=fixed;" vertex="1" parent="1">
          <mxGeometry x="470" y="440" width="30" height="30" as="geometry" />
        </mxCell>
        <mxCell id="yxD4dG-Z6kHUnOL1x4lN-146" value="" style="ellipse;whiteSpace=wrap;html=1;aspect=fixed;" vertex="1" parent="1">
          <mxGeometry x="410" y="470" width="30" height="30" as="geometry" />
        </mxCell>
        <mxCell id="yxD4dG-Z6kHUnOL1x4lN-147" value="" style="ellipse;whiteSpace=wrap;html=1;aspect=fixed;" vertex="1" parent="1">
          <mxGeometry x="410" y="500" width="30" height="30" as="geometry" />
        </mxCell>
        <mxCell id="yxD4dG-Z6kHUnOL1x4lN-148" value="" style="ellipse;whiteSpace=wrap;html=1;aspect=fixed;" vertex="1" parent="1">
          <mxGeometry x="350" y="530" width="30" height="30" as="geometry" />
        </mxCell>
        <mxCell id="yxD4dG-Z6kHUnOL1x4lN-149" value="" style="ellipse;whiteSpace=wrap;html=1;aspect=fixed;" vertex="1" parent="1">
          <mxGeometry x="350" y="500" width="30" height="30" as="geometry" />
        </mxCell>
        <mxCell id="yxD4dG-Z6kHUnOL1x4lN-150" value="" style="ellipse;whiteSpace=wrap;html=1;aspect=fixed;" vertex="1" parent="1">
          <mxGeometry x="350" y="470" width="30" height="30" as="geometry" />
        </mxCell>
        <mxCell id="yxD4dG-Z6kHUnOL1x4lN-151" value="" style="ellipse;whiteSpace=wrap;html=1;aspect=fixed;" vertex="1" parent="1">
          <mxGeometry x="350" y="440" width="30" height="30" as="geometry" />
        </mxCell>
        <mxCell id="yxD4dG-Z6kHUnOL1x4lN-152" value="" style="ellipse;whiteSpace=wrap;html=1;aspect=fixed;" vertex="1" parent="1">
          <mxGeometry x="570" y="410" width="30" height="30" as="geometry" />
        </mxCell>
        <mxCell id="yxD4dG-Z6kHUnOL1x4lN-153" value="" style="ellipse;whiteSpace=wrap;html=1;aspect=fixed;" vertex="1" parent="1">
          <mxGeometry x="570" y="440" width="30" height="30" as="geometry" />
        </mxCell>
        <mxCell id="yxD4dG-Z6kHUnOL1x4lN-154" value="" style="ellipse;whiteSpace=wrap;html=1;aspect=fixed;" vertex="1" parent="1">
          <mxGeometry x="570" y="470" width="30" height="30" as="geometry" />
        </mxCell>
        <mxCell id="yxD4dG-Z6kHUnOL1x4lN-155" value="" style="ellipse;whiteSpace=wrap;html=1;aspect=fixed;" vertex="1" parent="1">
          <mxGeometry x="570" y="500" width="30" height="30" as="geometry" />
        </mxCell>
        <mxCell id="yxD4dG-Z6kHUnOL1x4lN-156" value="" style="ellipse;whiteSpace=wrap;html=1;aspect=fixed;" vertex="1" parent="1">
          <mxGeometry x="570" y="530" width="30" height="30" as="geometry" />
        </mxCell>
        <mxCell id="yxD4dG-Z6kHUnOL1x4lN-157" value="" style="ellipse;whiteSpace=wrap;html=1;aspect=fixed;" vertex="1" parent="1">
          <mxGeometry x="570" y="560" width="30" height="30" as="geometry" />
        </mxCell>
        <mxCell id="yxD4dG-Z6kHUnOL1x4lN-158" value="" style="ellipse;whiteSpace=wrap;html=1;aspect=fixed;" vertex="1" parent="1">
          <mxGeometry x="470" y="530" width="30" height="30" as="geometry" />
        </mxCell>
        <mxCell id="yxD4dG-Z6kHUnOL1x4lN-159" value="" style="ellipse;whiteSpace=wrap;html=1;aspect=fixed;" vertex="1" parent="1">
          <mxGeometry x="470" y="500" width="30" height="30" as="geometry" />
        </mxCell>
        <mxCell id="yxD4dG-Z6kHUnOL1x4lN-160" value="" style="ellipse;whiteSpace=wrap;html=1;aspect=fixed;" vertex="1" parent="1">
          <mxGeometry x="470" y="470" width="30" height="30" as="geometry" />
        </mxCell>
        <mxCell id="yxD4dG-Z6kHUnOL1x4lN-161" value="" style="ellipse;whiteSpace=wrap;html=1;aspect=fixed;" vertex="1" parent="1">
          <mxGeometry x="470" y="440" width="30" height="30" as="geometry" />
        </mxCell>
        <mxCell id="yxD4dG-Z6kHUnOL1x4lN-162" value="" style="ellipse;whiteSpace=wrap;html=1;aspect=fixed;" vertex="1" parent="1">
          <mxGeometry x="410" y="470" width="30" height="30" as="geometry" />
        </mxCell>
        <mxCell id="yxD4dG-Z6kHUnOL1x4lN-163" value="" style="ellipse;whiteSpace=wrap;html=1;aspect=fixed;" vertex="1" parent="1">
          <mxGeometry x="410" y="500" width="30" height="30" as="geometry" />
        </mxCell>
        <mxCell id="yxD4dG-Z6kHUnOL1x4lN-164" value="" style="ellipse;whiteSpace=wrap;html=1;aspect=fixed;" vertex="1" parent="1">
          <mxGeometry x="350" y="530" width="30" height="30" as="geometry" />
        </mxCell>
        <mxCell id="yxD4dG-Z6kHUnOL1x4lN-165" value="" style="ellipse;whiteSpace=wrap;html=1;aspect=fixed;" vertex="1" parent="1">
          <mxGeometry x="350" y="500" width="30" height="30" as="geometry" />
        </mxCell>
        <mxCell id="yxD4dG-Z6kHUnOL1x4lN-166" value="" style="ellipse;whiteSpace=wrap;html=1;aspect=fixed;" vertex="1" parent="1">
          <mxGeometry x="350" y="470" width="30" height="30" as="geometry" />
        </mxCell>
        <mxCell id="yxD4dG-Z6kHUnOL1x4lN-167" value="" style="ellipse;whiteSpace=wrap;html=1;aspect=fixed;" vertex="1" parent="1">
          <mxGeometry x="350" y="440" width="30" height="30" as="geometry" />
        </mxCell>
        <mxCell id="yxD4dG-Z6kHUnOL1x4lN-168" value="" style="ellipse;whiteSpace=wrap;html=1;aspect=fixed;" vertex="1" parent="1">
          <mxGeometry x="250" y="440" width="30" height="30" as="geometry" />
        </mxCell>
        <mxCell id="yxD4dG-Z6kHUnOL1x4lN-169" value="" style="ellipse;whiteSpace=wrap;html=1;aspect=fixed;" vertex="1" parent="1">
          <mxGeometry x="250" y="410" width="30" height="30" as="geometry" />
        </mxCell>
        <mxCell id="yxD4dG-Z6kHUnOL1x4lN-170" value="" style="ellipse;whiteSpace=wrap;html=1;aspect=fixed;" vertex="1" parent="1">
          <mxGeometry x="250" y="470" width="30" height="30" as="geometry" />
        </mxCell>
        <mxCell id="yxD4dG-Z6kHUnOL1x4lN-171" value="" style="ellipse;whiteSpace=wrap;html=1;aspect=fixed;" vertex="1" parent="1">
          <mxGeometry x="250" y="500" width="30" height="30" as="geometry" />
        </mxCell>
        <mxCell id="yxD4dG-Z6kHUnOL1x4lN-172" value="" style="ellipse;whiteSpace=wrap;html=1;aspect=fixed;fillColor=#99CCFF;" vertex="1" parent="1">
          <mxGeometry x="570" y="410" width="30" height="30" as="geometry" />
        </mxCell>
        <mxCell id="yxD4dG-Z6kHUnOL1x4lN-173" value="" style="ellipse;whiteSpace=wrap;html=1;aspect=fixed;fillColor=#99CCFF;" vertex="1" parent="1">
          <mxGeometry x="570" y="440" width="30" height="30" as="geometry" />
        </mxCell>
        <mxCell id="yxD4dG-Z6kHUnOL1x4lN-174" value="" style="ellipse;whiteSpace=wrap;html=1;aspect=fixed;fillColor=#99CCFF;" vertex="1" parent="1">
          <mxGeometry x="570" y="470" width="30" height="30" as="geometry" />
        </mxCell>
        <mxCell id="yxD4dG-Z6kHUnOL1x4lN-175" value="" style="ellipse;whiteSpace=wrap;html=1;aspect=fixed;fillColor=#99CCFF;" vertex="1" parent="1">
          <mxGeometry x="570" y="500" width="30" height="30" as="geometry" />
        </mxCell>
        <mxCell id="yxD4dG-Z6kHUnOL1x4lN-176" value="" style="ellipse;whiteSpace=wrap;html=1;aspect=fixed;fillColor=#99CCFF;" vertex="1" parent="1">
          <mxGeometry x="570" y="530" width="30" height="30" as="geometry" />
        </mxCell>
        <mxCell id="yxD4dG-Z6kHUnOL1x4lN-177" value="" style="ellipse;whiteSpace=wrap;html=1;aspect=fixed;fillColor=#99CCFF;" vertex="1" parent="1">
          <mxGeometry x="570" y="560" width="30" height="30" as="geometry" />
        </mxCell>
        <mxCell id="yxD4dG-Z6kHUnOL1x4lN-178" value="" style="ellipse;whiteSpace=wrap;html=1;aspect=fixed;fillColor=#99CCFF;" vertex="1" parent="1">
          <mxGeometry x="470" y="530" width="30" height="30" as="geometry" />
        </mxCell>
        <mxCell id="yxD4dG-Z6kHUnOL1x4lN-179" value="" style="ellipse;whiteSpace=wrap;html=1;aspect=fixed;fillColor=#99CCFF;" vertex="1" parent="1">
          <mxGeometry x="470" y="500" width="30" height="30" as="geometry" />
        </mxCell>
        <mxCell id="yxD4dG-Z6kHUnOL1x4lN-180" value="" style="ellipse;whiteSpace=wrap;html=1;aspect=fixed;fillColor=#99CCFF;" vertex="1" parent="1">
          <mxGeometry x="470" y="470" width="30" height="30" as="geometry" />
        </mxCell>
        <mxCell id="yxD4dG-Z6kHUnOL1x4lN-181" value="" style="ellipse;whiteSpace=wrap;html=1;aspect=fixed;fillColor=#99CCFF;" vertex="1" parent="1">
          <mxGeometry x="470" y="440" width="30" height="30" as="geometry" />
        </mxCell>
        <mxCell id="yxD4dG-Z6kHUnOL1x4lN-182" value="" style="ellipse;whiteSpace=wrap;html=1;aspect=fixed;fillColor=#99CCFF;" vertex="1" parent="1">
          <mxGeometry x="410" y="470" width="30" height="30" as="geometry" />
        </mxCell>
        <mxCell id="yxD4dG-Z6kHUnOL1x4lN-183" value="" style="ellipse;whiteSpace=wrap;html=1;aspect=fixed;fillColor=#99CCFF;" vertex="1" parent="1">
          <mxGeometry x="410" y="500" width="30" height="30" as="geometry" />
        </mxCell>
        <mxCell id="yxD4dG-Z6kHUnOL1x4lN-184" value="" style="ellipse;whiteSpace=wrap;html=1;aspect=fixed;fillColor=#99CCFF;" vertex="1" parent="1">
          <mxGeometry x="350" y="530" width="30" height="30" as="geometry" />
        </mxCell>
        <mxCell id="yxD4dG-Z6kHUnOL1x4lN-185" value="" style="ellipse;whiteSpace=wrap;html=1;aspect=fixed;fillColor=#99CCFF;" vertex="1" parent="1">
          <mxGeometry x="350" y="500" width="30" height="30" as="geometry" />
        </mxCell>
        <mxCell id="yxD4dG-Z6kHUnOL1x4lN-186" value="" style="ellipse;whiteSpace=wrap;html=1;aspect=fixed;fillColor=#99CCFF;" vertex="1" parent="1">
          <mxGeometry x="350" y="470" width="30" height="30" as="geometry" />
        </mxCell>
        <mxCell id="yxD4dG-Z6kHUnOL1x4lN-187" value="" style="ellipse;whiteSpace=wrap;html=1;aspect=fixed;fillColor=#99CCFF;" vertex="1" parent="1">
          <mxGeometry x="350" y="440" width="30" height="30" as="geometry" />
        </mxCell>
        <mxCell id="yxD4dG-Z6kHUnOL1x4lN-188" value="" style="ellipse;whiteSpace=wrap;html=1;aspect=fixed;fillColor=#99CCFF;" vertex="1" parent="1">
          <mxGeometry x="250" y="440" width="30" height="30" as="geometry" />
        </mxCell>
        <mxCell id="yxD4dG-Z6kHUnOL1x4lN-189" value="" style="ellipse;whiteSpace=wrap;html=1;aspect=fixed;fillColor=#99CCFF;" vertex="1" parent="1">
          <mxGeometry x="250" y="410" width="30" height="30" as="geometry" />
        </mxCell>
        <mxCell id="yxD4dG-Z6kHUnOL1x4lN-190" value="" style="ellipse;whiteSpace=wrap;html=1;aspect=fixed;fillColor=#99CCFF;" vertex="1" parent="1">
          <mxGeometry x="250" y="470" width="30" height="30" as="geometry" />
        </mxCell>
        <mxCell id="yxD4dG-Z6kHUnOL1x4lN-191" value="" style="ellipse;whiteSpace=wrap;html=1;aspect=fixed;fillColor=#99CCFF;" vertex="1" parent="1">
          <mxGeometry x="250" y="500" width="30" height="30" as="geometry" />
        </mxCell>
        <mxCell id="yxD4dG-Z6kHUnOL1x4lN-195" value="" style="verticalLabelPosition=bottom;shadow=0;dashed=0;align=center;html=1;verticalAlign=top;strokeWidth=1;shape=mxgraph.mockup.markup.curlyBrace;strokeColor=#000000;fillColor=none;gradientColor=default;" vertex="1" parent="1">
          <mxGeometry x="250" y="380" width="135" height="20" as="geometry" />
        </mxCell>
        <mxCell id="yxD4dG-Z6kHUnOL1x4lN-196" value="" style="verticalLabelPosition=bottom;shadow=0;dashed=0;align=center;html=1;verticalAlign=top;strokeWidth=1;shape=mxgraph.mockup.markup.curlyBrace;strokeColor=#000000;fillColor=none;gradientColor=default;" vertex="1" parent="1">
          <mxGeometry x="465" y="380" width="135" height="20" as="geometry" />
        </mxCell>
        <mxCell id="yxD4dG-Z6kHUnOL1x4lN-197" value="Encoder" style="text;html=1;align=center;verticalAlign=middle;resizable=0;points=[];autosize=1;strokeColor=none;fillColor=none;" vertex="1" parent="1">
          <mxGeometry x="282.5" y="350" width="70" height="30" as="geometry" />
        </mxCell>
        <mxCell id="yxD4dG-Z6kHUnOL1x4lN-198" value="Decoder" style="text;html=1;align=center;verticalAlign=middle;resizable=0;points=[];autosize=1;strokeColor=none;fillColor=none;" vertex="1" parent="1">
          <mxGeometry x="497.5" y="350" width="70" height="30" as="geometry" />
        </mxCell>
        <mxCell id="yxD4dG-Z6kHUnOL1x4lN-210" style="edgeStyle=none;rounded=0;orthogonalLoop=1;jettySize=auto;html=1;exitX=1;exitY=0.5;exitDx=0;exitDy=0;entryX=0;entryY=0.5;entryDx=0;entryDy=0;strokeColor=#474747;strokeWidth=0.5;endArrow=classic;endFill=1;" edge="1" parent="1" source="yxD4dG-Z6kHUnOL1x4lN-204" target="yxD4dG-Z6kHUnOL1x4lN-1">
          <mxGeometry relative="1" as="geometry" />
        </mxCell>
        <mxCell id="yxD4dG-Z6kHUnOL1x4lN-204" value="Original&#xa;Energy Profile" style="shape=image;verticalLabelPosition=bottom;labelBackgroundColor=default;verticalAlign=top;aspect=fixed;imageAspect=0;image=data:image/png,iVBORw0KGgoAAAANSUhEUgAAAfgAAAFoCAIAAAA0LH5rAAAABmJLR0QA/wD/AP+gvaeTAAAACXBIWXMAAAsSAAALEgHS3X78AAAgAElEQVR4nOx9d7j0RnX+jKTt9bav+3PF3djGEDDNYOMCsU0ntFBCIEACMeFHMC2BGFOSUAKmmhpKKKYZG7CNAWOwMQb3juvnr9+2vUqa3x+6V3c0RdLuStrR3nkfP372211Js3NHR2fe855zIEIISEhISEhMLpRxD0BCQkJCIlxIQy8hISEx4ZCGXkJCQmLCIQ29hISExIRDC/yMvV7Pfq2qqqqqgV9CQkJCQsI/gvfojzrqqNQqLr744oGORQh1u93Ah7R+gBDqdDrjHkW80el0pBRtFHS7XTmBo6DX65mmGew5g/foRwGEMJVKjXsUMQaEMJ1Oj3sU8YacwBEhb+ERkUwmAz+n5OglJCQkJhzS0EtISEhMOMQy9JKjHxGSox8dkqMfEZKjHxFhcPRiGXrDMBqNxrhHEWMghOr1+rhHEW/ICRwRjUYjcDu1rtBsNg3DCPac4QZj2+12pVJJpVKZTMZ6xzAM/EYqlUoQQut1s9m0HmWVSiWZTGazWet90zRrtZp9SLFYVBTFPr+9A0gkErlcznqNEKpWq/Yh+Xxe01Z+aafTsX1eTdPy+bz9tUqlYr/O5XKJRMJ63e122+229VpV1UKhYH+tWq3azks2m7WjKL1er9VqWa8hhKVSyT6kVqvZt0Emk7EjV/1+v9ls2l8rl8v260ajoeu69TqdTtvRQl3X8ecifpVms9nv963XLvOPT2ar1bKlsS6TWSgUbMksPv8uk8mbf5fJ5M2/oijFYtE+xM9kEvNfr9ftu4g3mdVqlTf//hezPf/rcDHruo7PzHCLmTmZ+Py7TGasF7NhGP1+3z5kiMVMI1xDn0gkstksLqVXFMVe9AAA+28JAEilUoqiNJvNbDZr/8Gs7/AOSSQS9sldDsEHkEgk7G/ipwIA8A7RNM3+iDjEXnPW15iHEMhkMvYKwK+iqirvkFQqZd91LodACO0zp1Ipe6HgM+My/8lk0v4J+CHAOTP4R/j8u0wmcQhv/vHJ5M0/AXxl+5zMdDrNnH97ZqrVKj4SwJ9/YjKJQ5jzv04Ws/vM+FzM+CGDTuYQizmZTAqymBuNxoiLmUa4hl7TNEIqBCHkiYesP4yqqoMewgTvEJccrgAPURSF95G9ZEc/hDkz1srjzcwQk7ne5p8+dqD5t7CeJ1NRFEVReFcZ72S6HBLNZPo5xJpA+/0hFjMNsXT0mqZNTU2NexQxhqIoMzMz4x5FvCEncETIW3hE4ExXUBArGCshISEhETikoZeQkJCYcEhDLyEhITEA9OXF1u03GdWK91eFgVgcvaWjx/VDEgPBNM1qtSpJ0lGwvLxcLpcJEYWEf1QqFVy2OGHo7Xhoz8f/w+y0lWxu8//7QHLLtsAvUavVstmsS3B+CIjl0SOEbI2txHCQEzgi5ASOiMCTfYTC8mWXmJ02AMBsNSuXfT+MSxiGEXhqsViGXkJCQkJktG77s/26edMNYxzJQJCGXkJCQmLCIZahVxTFTlaWGAIQQjx1W2IIyAkcEblcjkhGlRgImUwm8AiHWMFYRVFk24dRACEk0vclBoWcwBEhb+EREcYEygevhISExIRDGnoJCQmJCYdYhh4hZBcXlRgCcgJHh5zAEdHr9WTjkVHQ7/cnv/GIbPswCohy2xJDAK8kLjEE6vW6bDwyChqNRuC5CGIZegkJCQmJwCENvYSEhMSQQGY80oCFM/SyxsiIkBMoIREZUEwiOmLp6DVNm56eHvcoYgxFUWZnZ8c9inhjbm5u3EOIN9ZV5xbU64J0wIkXYRQlFM6jl5CQkIgLzNV+4oJDGnoJCQmJIYF60tBLSEhITBIo3a009MPAMIxarTbuUcQYpmlWKnFqfCMgKpWK1NGPgmq1Oqkl6RH1u8wQgrH1ej3wpghiGXqEUL/fH/co4g05gSNCTuCImODOLcggf1oYHr2u67LxiISEhMSYQHn0SAZjJSQkJCYJiNqsmJKjHwKKoshq4KMAQpjNZsc9inhDTuCIyGQyk5q1Fw11k06nA+/cIlbClKIo8jYbBRBC2aJrRMgJHBETfAvTHn0Yhj4MZ1csj15CQkJCXFAevUyYkpCQkJgoROPRhwGxDD1CaIK1WdFAqgNHhJzAERGGOlAQsAx98Dr6yZdXGoYh+2aMApkwNTpkwtSIqFark9p4hA7GhqG6mfyEKQkJCQlxIakbCQkJickGQ14pg7ESEhISk4T4JkyJpaOXjUdGhGw8MjpmZ2cnNd8nGkxPT0/qBEaTMFUulwOfQOE8+kldIpFBTuCIkBM4IiZ4AqORV4YxgcIZegkJCQlBwaBu4tEzVhp6CQkJCV9gBWM7YxnJoBDL0BuGUa/Xxz2KGAMhJDu3jIharSZ19KOgXq9PrI5ep8oUh+DRNxqNCdfRI4R6MdkKiQmEUDcmei9hISdwRPR6vUl9UrITpoL+sf1+f8IzYyUkJCTEBe1oI0RHaAWEWPJKiQmD2W7Nf/Uz7btvTz/mqA2v+yclVxj3iCQkhgfTpqNeByYS0Q9mIIjl0SuKkk6nxz2KGANCKFTnlsb1v23d9mfU77XvurV27dXjHo4vCDWBcUQ6nZ5UhSUyGYY+cOFNKpUKvPGIcIZetn0YBRDCfD4/7lGsYfF7X7NfL//4O+MbyADI5/OTaqeiQS6XC9xOCQKORx9wUCebzaqqGuw5J/PvISEhIRE8mIY+DtF7aeglJCQkfIFW3YCYlLsRy9AjhAyDVKpKDAQ5gSNCTuCIMAxjYuWVlI4ehEDdhDGBYhl6wzBk34xRYJrm0tLSuEcRbywtLU2qnYoGlUplYhOmWB594DlTtVptwhOmJCQkJMQFy/6acaiCIA29hISEhC9wVDcxSOaXhl5CQkLCF+IbjBUrM1bTtKmpqXGPIsZQFGVmZmbco4g3ZmZmpI5+FExNTUkd/SgolUqBr0CxDD0AYFKXSGSQEzgi5ASOiAmeQE4wNmBDH8YETuyfREJCQiJgsIOxMaBupKGXkJCQ8IVo5JVhQCxDb5pms9kc9yhiDISQ7NwyIur1utTRj4JGozGxOnpO9cpgr9JsNgPP2hPO0Hc6MRClCguEkJzAESEncER0u91JfVIyDX3g1St7vV7gT0qxDL2EhISEuGBSNzJhSkJCQmJiIBOmggGEMJVKjXsUMQaEUHZuGRFyBY6IZDI5qYkI0SRMJZPJwBWWYunoVVUVqm9G7AAhLBRku76RUCwWxz2EeGOCVyBixUgD9+jDaL4klkcvISEhIS6YRSXjIDGShl5CQkLCF9g6eiQN/eCYVGFWZBBIwhzPP6VAExhPTOwEIsQMxgbu0YdhA8Uy9Lquy74Zo8A0zcXFxXGPYhXxNPSLi4vS2xgFy8vLE9mlC3EMOu/9oVGpVPr9frDnFMvQS0wSGJEraUAl4gte1ydJ3UisZ9CEZizYTAkJJpgEPQAyGCuxzkF79EYMbgkJCSbYBD0AyIzBPlUsQ6+qaqlUGvcoYgxFUcTp3EJTN8iMAXU7NTU1qfk+0aBUKk1kSXquRx/0PrVYLGpawBlOYiVMQQgD/4XrDQJNIG3W4xCjE2gC44lJnUCeRx84daOqarAnBKJ59BKTBFYwVlI3ErEFx6MPXHUTBqShlwgLDOpGcvQSsQXXo4+D+yKWoTdNs9VqjXsUMQZCSKDOLbQHFAeOvtlsSh39KGi1WhOZMxUZddNutye/8Ui73R73KGIMhJA4T0p6SxuLTa44ExhTtNvtiXxS8oKxga/qTqcjG49IxAYMHX0cgrESEmxwqRskfiagNPQSoYE263GgbiQkmODKK0EMUr7FMvQQwkQiMe5RxBgQwmQyOe5RrCCmwVhxJjCmSCQSE5mIwOXogy5Dpmla4BMYruK10WjMz89ns1m7lL6u68vLy/YXZmZm7NyKWq3W7XYBAPPz8+l02m5fYBgGXulsenra1pk2Gg2b00+lUnbLCITQwsKCfUi5XLafH81m0yZhE4lEuVy2vzY/P2+/LpVK9g3fbrcbjYb1WtM0PCNpcXHRZtMKhYLd3anT6dTrdeu1oigzMzP2IUtLS3akJZ/PZzIZ63Wv16tWq9ZrCOHs7Kx9CF7kCJ/Mfr9fqVTsr83OzkIIrYyzarXaW+2HkMlk7HYuxGTi81+v1+2+2PhkEoXSpqambKE0Pv/JZBJPdpufn9fp8mqm0Wq17HAxMZkLCwv2DVMsFu1OT/hkqqo6PT3NnEx8/rvdbq1WY07m8vKyvnrH5nK5bDZrvcbnf2FhYW5uzj4En8xBFzMAAF/MxGRO5GIuFov4ZAIA8MkcaDHTkxneYsYnk17MAAB9mVtvcWH/fi2dDnAxJxIJe2BDLGYaMPCwyaGHHvrggw9arz/72c++8Y1vJJ5O+BXxj4iR8D4a8RCfZ5ukQ3yeLfBD2nfdtu/TH8a/sOXdH0ptP0ScmYn7/Ic3ZmEP8Xm2MCazcePvF75yEWDhwE9+DaZSQk0mgXA9egghfXnegFwGGuAhYx/AOjqEVg4YZqQDmPRDxj6ASTrE82zQTQmDiGPH/jMJiMXRS0wUaNWNDMZKxBYuHL34BSzFMvS6rgvUNyOGME0TJ2fHC4aYMg7yyvn5+YmUgUeGxcXFyWw8wlfdBCulX15elo1HJGID2n+PRcKUhAQbLh698J6BNPQSoUHq6CUmCLhHD4kCk8J7MJNZUHRi0Pjj76q/+IlaLM28/O8TGzaNeziDIaY6egkJJnCOHiaSyFgr1iL+VlUsj15VVVvxKmFUK/Nf/Uxv96Pte+5Y/L8v+zkEQoiLqccMmtOMQ52/Uqk0kfk+kaFYLE584xFIZNUFurDz+fzkNx6RmbE2qldeanN/7btv93OIUBPI8uhjQN3IzNgRIc4KDBaER+/4LFCPPowJnMAH78TAaDbGPYSRwNjPSo5eIr5wGHqHLZbUjcQIiDuBwKheKfr9ICHBg4O6SYRI3YQBsQy9rEfvBh8SLrHq0cdTddNqtaSOfhS02+0JbTyytnpDpW46nc7kNx4Rx04JB3+GXpwOUwyOPg6GXpwJjCkm9UmJe/RKmNRNGE9KsQy9hAvE5wFJMDJj4/YTJCRs6HzVjfD3pjT04oIU+cXBHcYRU49eQoIJh+pGcxh6JDn6gQAhDFxAGmc4S5X68xoEErfROvo4ePRyBY6ISZ1ANx19oB69qqoxazwyKFRVxev9SzjgYzEpiiJOwlRMPXq8fYTEEJjUW9hNRx9oTCKMpFGxPHoJB5wP9dhx9DFV3UhIMOH06KWOXiIkCL+YSNDVK+NA3UhIsBFVZmwYkIY+PhA+4ENAevQSkwSnvFIa+hFAdFte7yD6RvrIoSB6H48Z8eTo8bbOEkMAb3I9ScBvQMKjD5a6wfunBwWxDD0AYCJz6oYFIa/0NTPiTCCjI48wY3OBtPIjYlInEPFr3QS72w5jAoUz9BI8iK/VJUC7OZKjl4gx8A5TqgbwUsym6M82aejjg9hZSYZHP4E7eol1AqLDFMQMvfhOmFiGXlXVQqEw7lEIg8HllRBCcTq3xFRHXywWZeORUVAoFCa08QjG0asqgLhHH6Shz+VyKtGqcGSIlTAFIZRtHzCQlt77AAhTqVRYwxkQjOhxHDYl4kxgTDGxtzDupigKVBSbrwk2GBvGBE7gg3diETslQzw9egkJJhBOxCuKQxQnvMpAGnqBAYepdSMOYurRS0iwgW2poaI4grGSox8Ipml2u91xj0JU+FhMCKFOpxPBWHwhnh59p9OZVIFgNJjYCcTXs+IMxgaquul2uxNej940zUYj3o1SAwQcPBiLEKrX62ENaECwdPQxMPTiTGBM0Ww2xUnmCBD4DRiqR99qtSa8w5SEE05LHzeOnqG6kdSNRHyBW3NFCU91EwakoY8N4rcdpv33OHj0EhJMODx6qDipG2noBwGEMHAB6eTA32ISZwJZHn0MDL04ExhTTKSIHiDkuAFVNTzVTRgTKJaOXlVVcfpmjB2kC+/DSiqKMj09HdaABgSreqXojg8AQJwJjCkms3MLcTM6OfpgPfowOrdM4rN3YuBcPeKnWZOggrGxUN1ISNAgTDmEEDqCsaLTqtLQCwzCTYiDO4yDpaOXhl4iniB8FFV1FjUT/d6Uhl5cEC58/Nxhunql8I6PhAQTpEevKLKo2fAwDKNSqYx7FMJgcI/eNM2lpaWwxjMgGDr6OHj0S0tL8oE0CpaXlyew8Qhx98EQ5ZXVanXCG48ghCZwiQwN0qP3tZjEmcCYVq8UZwJjionMliJuRjJhKtCfHMYEimXoJXCQlj1e9w8hR7MgE6Yk4gky109VIWRQN/ryYvuuW82uMGVIViGWvFLCgTgbeub+IxYevYQEA4iibiiPvnP/PXs//WHU7arF0tb3/qdaDF4lOTTE8ugVRcnn8+MehSggbKXPxiOidG6hCXoQj8xYUSYwtsjlcpOXM0UHY2lDX//tVajbBQAYtWrl8h8Mfa1sNht41p5Yfw9FUWTbhzUQIUF/hj6dToc1nkHATIKNRa2bdDotO0yNgsmcQOLuY6luGn/8vf1O7Zorh75UKpUK/EkplqGXcID06GPgDttgVzuI1U+QkLBB3H3QT+MRkbhWaejFBSnOFWndeIPt0UtDLxFPUB69ZwmE3t7dYQ/KP8Qy9AihXq837lEIg8GDsQghQTq3MPcf4hf5AwAIMoHxRa/Xm8BEBNeEKYtl1WY34N/pPnz/cJfq9XoT3njEMAzZ9mENgwdjEUK1Wi20AQ2C2FI3tVptAu1UhKjX65MnpSfvPkVlJEw5l033oSENfbPZlI1H1hFIcxOrm4eRFhuTYKyEBAPuwVjTBAAg3ZHOOrRHHwakoRcYg3v04kAGYyUmCX7klchZt6C3awfqiUIDCmfoJ1CYNTRIjt6XlRRFwswMxjp/AjINs9UUbaciV+CImMwJpIOx+M9ElkevE4d0dzw0xKXCmECxMmM1TZNtH2wMkTClKMrMzExoIxoAHI9+7Sfoi/P7PvOfvd2Ppg87cuOb3q7kRElTmp2dHfcQ4o2JvIVpeSWDuumTQpLuww+kDzty0GuF0XxJDO9Pgok4yyvZhh7j6Gu/uaK3+1EAQOf+exo3/C6ygUlIDANXeSVACJkG3X5k6Hhs4JCGXmCYjnUTr4QpZgkE/GboYypjoRTHEhIMMKgbB0ePWIWF9aWFkIflF9LQi4tYJ0xxc6NWDb3juRWrnyaxDkG1EqSoG51h6Jnas7FALENvGEa1Wh33KITBUI1HROncwhntmn3HvyDSZmV5eVnq6EdBtVqdwJr++HKFcOU/7FOmR8+0/p6o1Wq6HvATQixDjxAK/BfGF2Qw1l+7ssB70wwHri+zStPjv06o0ghyBY6IiZxAfLmu+PJOj95k3XekDscfDMMI3NUQy9BLOEBY9lhlG/Fs95pHj39B+JabEusd+BJVFGCbe/tTJnUjzDNPGnqBEeeEKW572FVD7/ToY/XTJEQC0vu9XTvMTjvcq2DrGSoqAMCZMIWY1I04hl4sHb2iKNlsdtyjEAWkZffh9kIIc7lcWAMaBDyN0JpNFzUYK8gExhfZbDaynCmjVtnz3+/v79+rlqc3n/eexKatYV3JdPPoETJRcMHYTCYz4fXoFUXJZDLjHoUwIDx6H0Q2hFCUJ6WnR499QSjlaJR2aiIRhp3ioXrVZf39ewEARmWp9pvhe314g6Ju/MgrmdbfE+l0esI7TEk4EG95JduXWdumiKq6kYgRqlddZr+u/eaK8C7ECsY6VTdMlkYY6kYaenGBnAlT8YpYcoOxBoujj9UzTGI9Al/PFnUDHaobuv4BsFa7GFJdsQw9QkgQdaAQQAR146sevSgT6EXdCMvRizKBsUW/348oESFCG4qLm2l5JUAcj34oml7X9QmXVxqGIUrfDBEwVIcpQRKm+B69SX9BKB19pVKRCVOjoFarRdN4xKg5ljpMpUK8mCNhijL0HI8eDCW8qdfrE54wJYFjuIQpQcAvgcDk6OP00yQEQX9+H/5PbXouvGs59tMM1Q3ievRi0PTS0AsMwq8Uye31Bm+0kqOXCAi609Ar6TAFezh1o9I6ek4JBDBkFYTAIQ29wIi1R2/yVDeic/QScUF/wWHow9Vu0dQNEYzlGHRBPHqxEqY0TROkb4YIIP1cf41H5uZC3MAOAE7oGOPocY9eoM2KKBMYW0R2CxMefaj7QlpeCX3o6MFQhn5qamrg8XlBevQCg6x1I5A19ARXbMD06GP10yQEAcHRh7uK8OXKpG54Hr0YlYqloRcXVDA2TlIQflEzu3qlLGomMRIojz5EQ+/w6KHfEghAGOpGGnqBQVj2eBHZXsFYnNvxTBFAhiHIDSMhCMxO22jUHW+FWhqPqnXjMxg7XBWEwCGWoZc6+jUgRBh6PxQkQkiQzi3eZYp9l0BY+tG3H37L3z767n9s3317YOPjo1qtxmvzJBqi0dET7jyI0KNnGHq+Rz9EFYTJ19ELlNg5bjA0Nj7WMUKo12MnbkQN3mitG8ZqprwKl2dYf9/u6hWXAtM0atWFb3whgmRIUSYwtogmM5Yk6EF0qpvVYOxarRsUaDB28jNjJdZA2b54ic09at2QrBT3Fu0++Bf7tb600H34gUCGJxF3MDz68VI3MhgrMQxosx4zQ++muiF22W7PMNWhAG7deuPoY5OYAETs0TOqV5JFzTiGXgyKQixDL+vR22Ds3XysY/Hr0a+4XYTz5fYMc8xD85Y/jTowL8gVOCLS6XQEBf31BZqjD9Wjp6pXOjh6FKBHn06nJ7/xiCh2auwYiroRqMOUa/VK0qN3UUA7P+rv3dXft3v04bkgn8/LxiOjIJfLRdB4xKhTqo0wdfROj36AEghDqG4ymYxsPLJuEHfqhtdK0Hrfd9IvHctq3Rq6Uy8hPmjnINz8apqjJ4KxwaluwkC4JRB0Xe/1eqqq2g8oQleTTCbxL9uqLEVRNE1jHpJIJGyHi3cIcGon8EMMwzBWlwiEMJFIMA/RNM32SlwOwQUG+CGmadoCKZdD8JnBDwEAqJTtMw1juMl0OSTAySQOMTkOjtnXe72e2e3ib1ruEnP+6fu5deufSmeca732M//AOTM+53+IyRxxMbtMZtwXs5/5H3gx02Yd4wODXcy9Xs/EGRi6eqVpmByxlt7tmaY56GSOuJhphGvoe71es9lMp9M272maZrPZtL+AT3S327X/BqlUCr838ENKpZJ9SK/X666ajGQyyTukUCjYH/V6vU6nY73WNA2f6FarZc9aPp+3J1rX9VarZb1WVZU4xF5PuVzO/hvoum4PQFGUUqlkH9Jut+31lM1m7b+NYRj2IRDCgkKyB8gwms0mvq3DD7EnU9d1TdM6nY5926RSKZsQI+Z/iMksFov2APDJTCQS+Xze/prBMfR6v99sNhGR6mIawDn/a5NJUZydB/9iNOpqvgCoyUytViTH5x9CiN8bnU7Hvm3wybRnBiFEH2JPZrCLGZ/Mbrc7GYvZMrKDzj9zMTMn01rMNJOJTAMgZDnawS7mZrPZ66y5JozGI6ZpcurRd1tNXdftGej3+7z5xyczk8mk02nr9RCLmUa4hj6bzRIFelRV5ZXsyeVyqVSqWq0SRZEUReEdks1mmZw+hJB3SCaT4UXbyuUy8/1UKpXi9DTAFz2OZDKJ/z1wFItF5vuJRAIfs1FdJr4AqWpHmqYR75imuby8PDc3hy9THC7zH+xkahAwt6wJVSlOTenIwNO6rJuWOf8M+h4hfXHeMvS8yXSZ/0KhwB7w6mTOz8/Pzs7iHw0xmblcjhksWQ+LuVqtlstl3pg9558GezKZjPyqoQ92MqempoxEYs2Q08FYACAnQpBOJvDZc5l/ezKXl5dxkz3EYqYhOXpBwQi9ilTi0RM8UfPK76I5ek6GCFu0IIY2WWKMYDLy4bUqY7QShP509LIEgoQb4h6M5dliwwAcP51zHtb9HKupkAgFrDUQYjwWX4fsVoJCFzUTqx69hA0WBRkr6+Ze64Yq8IBMAzI1eWyPPk6bG4kwwHbew/PocXmlqgKqBALXU5GGnoYLT7fuwEiY8tV4RJDOLdxNtGGyPzVM5mJke/RhGvqZmRmpox8FU1NTEejoOR59aM4Q7pqwi5qtrUmoaWv2fXBDXy6XA1+BwlE3USyRWGBYj16UCRxIR88s4ma9z7pPQlVMizKBsUU0E8h+2Ie3MOhWgri8UtdxzwzvXjsERx+GnyHXtKBgBWPjRN14ZMYyPHqv+vV+viyxfsAOxoZ1j+ArFrJUNzigw9ALQd1IQy8qGGWKJ8HQr9yK1F3K269wgrHS0K93sBdMeAsDvx9VSnXjhJJZU3bK6pUMGIbRaDTGPQoxwMwH8QJCqF6ve34tCnDr0Vu1bvw+xjjyyhCfebVaTTYeGQX1ej30xiNUW56Vt0Mz9O6tBAk4DP3gHn2z2TSC3rOKZegRQl1ncvy6BZuz9jJACCE7u2+88Ogw5f8xxjL0oXpJcgWOiF6vF/aT0j3UHwpca90QUFLptX8Mbuh7vV7gT0qxDL3EGiIWFQQO3lB5qptBqJt4sVgSwcM91B8CaHklcPPoRwrGhgFp6EVFxBRk0HAEr7B87kE9eo68UgjeU2Jc4Ho84UXpKdWNazB2JOomDIhl6BVF4RWCWG9gLmVPjx5CaNdCGjNwQ5/AKnVYHr1r6UHn+0zqJkSPXpQJjC1SqVToiQhcYjBC6sbFox9NdZNMJgOXqIqVMKUoCq+A1LoDk+X0Yej91zkKEc7e3zCRAJ326idWhynfqhvmfRKmvFKICYwzIriFuQY9ROqGlFf6pW4G332G0TtILI9eYg1xpm6ISLLTozfoLwDAZ12lvFKCxiCrJaAr4h69VQKBYzwhVJJrtITsGSvhBg51ExPZn0EY+rWi2ys2muJe+KqbaBMgJeIAfjpeaAlTdHNwjkcPtQTQ1ha8IJVWhTP0oStw4wKmvNLH5IgwgcR21RdHP1DCVC0U0UEAACAASURBVJjUjQgTGGtEMYEDabQCvyJdphgDTCQg1p1qCNWNaZqB61PFMvS6ri8vkw031ieGC8aaprm4uBjOiAaB6enRUxw9r3595NUrFxcXZcLUKFheXg4834cAX0cfhbyS2XjEBtQIQz+wR1+tVvWgtTpiGXqJNbCDsfGgLIj70OHR8zJjOUXNOKqbeMyDaOjt2tG5765JiHBErqMH/qkbwqMXY62KpbqRWEOsE6ZMwtBjHj2n1g1XMCeDsQGhevXPlr7/vwCA9BHHbD7vvS6JneKDr7qJTl7p5tGrmKGXwVgJF3BqNsXD0A/h0Q9U1Cwu8yAQELKsPACgc++d3R0PjXc4o2IQtyAQMOSVnCclTCSghns2MhhLQVVVXlPjdYeh5JWKokxPT4cynkFA3G8KZuhXDDrNyHNzHaOudTM9PT15jUeMeg3/Z+u2P4V3rXK5HHZJem4edTT16BW3EghQSwCMugGmOahfUiwWNS1grkUsQw8hxNufr2uwi/N5rxghJpBP3azo6Bllijm3LjthKkSPXogJDBr64n78n2oxxD5uqqqG/aTkpkZHKK/kUjdOjh4M7peEMYFiGXoJG+JTN53772nd9mc/8keG6mZEjl6MAFeM0J93GHolm+V9Mx6IPmGKbiXIk1dqGmnoBaDpZTBWVLBUKOIEYyuX/2D5p98HAKQPO3Lz2/+d5CsJQ+/IH7GqV/ptJSgTpgIB4dHHvUXXGEog4CuWaiWIAyaSjgUvhl8ilkdvmmaz2Rz3KMTAUB49QiiKzi0IWVYeANC5/572fXeRnxM6+iTO0fM8elESphqNxuTp6PUFh6EPtaRis9kMPWfKvX9ZGMAcEai6q24oj37AnKlWqzXhjUdM0xSkb8bYMVzCFEKo3W6HMyL8Ko5htO+8hfwGkRmrjaK6iVpHH8EERg/S0Ic5gZ1OJ/TGI679y0KB78YjDI9+wMdqt9uVjUfWDdglEMa/BwSA8qeou5r06P3o6Jk/zTRjnTgmDvqL845/C0AmjASeWxBeMBYvu+1B3SSA6qTEBVBYSkMvKgQOxnr6g2QwNol79ByOnmW7+R3GY26nogUyDX1pwfGOAKZnFERfAoEOxg5A3QgQjBXL0EMIk7hRWMdgFqr003gkis4thJmgR0UYejxRkMfRM6kqnj0K06OfvBVoLC0S0xuqoU8mk6EnIoy3laClo+cWNUuOKK9MJBKBT6BYqhtVVWXbhxUM5dFDCIvFYijjwUD4U/QTyZFGqKoAbyXI09Ezw2icOyRUj75UKoV38rGA5G3AMB2r/SOCW5gbdA0pGIvQICUQ6GDsYLMdRucWsQy9hA2m3FAQeSVpZ2kaHf+CouI9Y1dsN/1DBqFuYk8xc9C5987lS78Lk6npF786uWVbUKclIrFgAriviD16YoW7B2O1JFRHMvRhQCzqRmINTJvOE5tHDNJM0MFYh0dPF/NjeGRs6iby1qDjA+r39n3uvzsP3Ne++/b5L38qwDNPnqEfrE1NAJdzigtsQ8+y9TChAUXBQ7VDlKQPHMIZ+smTMA+JYRuPRDCBlEdPfQP/gqo6OPoVj95fz9hxBGPHtQJ7O3eYq511e7t2mO1WUGcms6VC5uijmEBe1kVYHr3zcqtGnNlN0BITOxSWA3r0YUygWIZe1/WlpaVxj0IIsHX0XgbONM2FhQX374wOT+rGoUVTFIfaTNcB89cxfy/vDgkzGLuwsDAWW0/4fQHu9/sLFEcfpqFfWloKvfFIxB49IS6wvXUWTQ8TGgBglN4jlUqlH7RQRyxDL7EGoakbYuG6GXqgapAIxiLE6DDF5ujHEIwdF0hzEJwtZlA3eswnkOvRh3ODmGyPnm3otQQgDL0AYlZp6EXFsNUrI4A3deMs3k2KEEyTYdaZtntdBWMJLVNAHj3qdY1ahXxTANMzCqLOjEUER6+uvmB69AlASIplMFaCh4E464hBOdS0R48XBtEAUfjX0On9CltlxA3GCjEPwYIwvkHZYiJVagUxN/T86pWheEJkUott35nB2BWPHssGFyAYK5a8UlXVyVMxDwkmZ+1F3SiKEkXnFsIkeQRjFVptxniMsW5RrrEL84FXLpfH0niEzE4IyA00alXPawWLUqkUeuMRbj36cH4XcVoPjj4JAHD0HhnwT1koFAJviiCWoYcQBt5aJa4YVnWTSCQ8vzMivIOxDnmlg6NfOdwvRz8G1U0EE8gEYdmD8ujNFqMcbKgTGMUtHG09era80p26GSEYG8YESupGUHBUN0Jw9KSZdifcKY4eGDrDrLOpqnUUjCV/bFAePcvQh5oZGwH4HH00wdhVx4Upr0xY8krJ0Uv4AVPhJ4bqhrjN6HVMlUAgSn8YDI5+oMzY9cDRB2QdOB79+E3PSIhWR8/z6NnUTTIJyGDs+Dl6sQy9aZoTWQ18CAzXShAh1GoFlmjDvYpX2NCho3dmxgKLo6ct+CA6+lDVR81mc0w6eufjM6BdS/TUTavVCrvxCLfDcEi/i8PRs6kbKxjrKM092GO13W5PfuORCOxUPDBUwhRCKIoWXU5/imGOXWrdWOue9ujZRc3GIK8c2wqM0KMPVXXTbrdDf1Jyt3pRUDfQXXUzskff6XRk45F1A4ETpkgPhfboXakbYBiszNh1nzDlNavDIXqPPgJw+5FFQt348eiBg6Mf/2xLQy8ohmslGA28hYDuHr2u+6x1s66qV4Ykr2QbegHCgyMh2hIIpNcFfXD0Dnnl+Dl6sbSMEMJxidvCRvuuWxe/+3UAwczfvDZz1HHeB7Bb6AkhryRzOF21klClMmMNvxw9V3VjGgAhXp3YETFh8kqm6ibu8kqe/CwkT4gbjGWrbuiEqYHllYFncojl0auqGkHfjOihL+zf99n/6u/b3d+7e+F/P+eLSRzKo48mYWowj57KjGWrblimx8UeeeaODY1xJUyFxtE3GO+G6dGXSqXA831IjNejV7klEKCiWgUSRql1UygUAn9YimXoJxXzX/2Mfd/qy0t6xbtCJ9uQiUHdeCq+HSUQFAVCxeF9Mz36QUogABBaL6HxITTqhhFbjru8MuJMOtKj51M3ttjGEYyVPWPXA3o7Huo8cC/+Dur3vA+LT3Nwlrxy7R2oagBCRwFLXafNOvsW5dujySt3E1L1yokMxnJvhIhLIFA7P7jacFhWr1x3WPrRt4l3UM+HoWe3EhTi/vT2PekGm47eI8aIOnoAJjAeG4ZHj/o9trZPANMzCrg6+mjLFDOom8RqZ3mZGeuCyWs80tvxUPvu24k3/Xj0wyVMRdN4hGSTPRKmNAAAINrG+mw8gp8nmeJ9FCzG1XgEhBCMZYvoQ/boFxcXQ288Eq0cy39m7Bp1M0KHqeXl5clvPDJhrQS7Ox6k3/TF2Q0rr4y+laBXMFYB5E6W4dGzfTTsa8rqpngFoW1uxrUCwyiBwDX0AviYIyFaHb3jclirWBeP3lnrRnL0kw7UY/yNzeE9eiH4CtJMuydMWSIEgqP3V9TMwfUnks6PhJiKABFGwhS7ohmIPfHlWGC4QCWsevSYuACXVFLySqZHL8JjVRr6cMF8mI/g0Yux3SGKmtFWw9kcHADgSI41dPqHcBKmMEPvpG4EiUsHCFJHH6pHbyUixBc4p4eb1Ag6TKmYzXTx6GWHKReoqlooFMY9iiDBMfR+grHDJExBCCPo3OJJ3ZAlEMh1b3hUNma9CZOERx/WzVMqlcakow8+GMsz9CDMLVGhUAi98QjuYuMJbhFQN9hPo9fJmkefGF51k8/nJ7/xSJKgYsNB6/abF799MdL16Re/Kv9XTw3vQszb1Y/qhqOj91jH0UwgaSNcOfoVQ+9Um9Gel2cJBIUMxobl0UezAmmE0UrQdKlwZxggnBTWKCYQX2AYpxdWK0H8ctCXRw9G8OjDyM0Wy6OPCKa58M0v6MtLRr228K2LUbcb3qXYHr2f4IzAtW5I1Q3FAzieBFaXBpyjN3QGl+pVj57w6OMuEKQRhrzSbGOG3ul+iiDuHhpRe/SI7dHThl5ZC8biqhsZjB0HjFrFqFas16jb7e/bHd612Ibej44+PglTgPZG8fuQom6AYfj06PG9AhmMFWMqRkHnvrsaf/it2VltwBBCwhQejFULjuIi8Y5mmzyOPvxgLOay+FbdjP+ZKhZ1Y5pmr9dLp9OhXoWKeoX4vEV9FnXjR3XD4ug91zFCqNPpZDIZn8MbErSh13WHC4MbKbbqxqeO3iUYG5adarfb6XQ6bJq++svLly75BgBAm5nb9v6Pw0QiFI/eYehLeKPw8KxPp9NJpVKhTiDiUDdR1Lrxq7oZ3tB3u91EIhFsnEMsj940zQj6ZhCWPdTnbbCqG0/rhhBqNFhFrAIFY9fv5tFTOnrmnHgVNVPIYGxYhj6CCQQAWFYeAKAvztev+zXw0tE3/vDbne87b/dH39fbtcP/Vczm2m8hPPrwuK9msxl2hynAoW5Cq0fv6IHMfm0NhlkCQe8PpHFqtVoT3mEqGhB2NtySQ6yniB8dvcgcPYO6IVor4EaEyoxFPVZQhBl8duPo48w8ONH4w7WA3mhic2jUKvNf/1x/fm/3ob8sfvtL/s9sttcqmqkFhxwr1tSN06PHt5Khl0CADtUNZeg1W3Xj9EvGTdOvS0MfJXUzLEc/XAmEiODJ0RvkjYFz9Cbr53M8+nWRMIW6bQDcaoJ2H37Adgk7D9zn3z3EqRulSBj68RPHw4PL0YeTH8CRV7p59CkH02iGqfjwA7EMPYQw9ErWNHUTpkc/vOpm2DLFkbR9oITzxMbFXUfPfM551rpRNSvJduWj0Dj6CFYgAbPTAQyPfu0Hmt2O4yM/O0LrwJYLdRPjCXSqbpweQAiNChDPo+cHY5WUI9DI3sVyoKrq5DceiaJvRqQe/ZA6esBKgvXTeGRqasrf0IYHi7rhGilA92Fg2Sn2T3NQQKqzMlpYdmp6ejrsSCzxlLKENy7BWEIBzNwSMeFU3Tg9+tBCU+VyOXRbz6NuQDjsjX+P3g7GJp2G3vmodkexWJSNRwJApB496+T+VDfiNgdnGFmSuiE9egdHz/z5njp61dF7VpCKzUPCqcVaYdL5CVOEZ+DTPUSGgT8hKHlljKkbR+q109CHsTCcHj32DHPz6CV1M25QqpvIPfqhg7FiENMMFTyfugF0Zqx/6gbX0aua476Kc4cpcskhBFw9erPnpG78uYdE/QPCo493NJuXMAXC+V1DlEAgErkH8ejDwLo09E5/agwcvY8rihyM9U6Ywj1xSkdvshxSzxIIQNMgkV4bW7Af/zo3GDscdUMZ+gny6B1FzULPpPMvr8QyYx0hJeaajxJiGXpd15eXl8O+SrQefaCZsV7UjWmaUXRuYRh6g/sFqnole0Pj1UoQqirAd82hPfMWFxfDLknPmAHTdKl1Q3A1w3n0SjZHdAXwN9iBsby8HHbjEYdHH0GjAk4wlpUwtTYYiCV+DlRnpVqtTn7jkdBTLQBFhobr0TN9t2FbCfrgK0K/x5jOIBGMpVU3XtSNp0dPcvShOaQRrEB6VRiNOvHoclI3TkM/lEevpDOAyE8OB1FMIKdMMfB3jwwMB3XjXgJhbTA4e0OQb15XC/4nCGfoIwBJ3YRbAoHVeGTSdfTAIINXcLhgrO5Q3TgNvRhTMRToJWdUyY2sw6MnqRtf7iFe0UzJZIGiEBWH/A1WSGCrRSE4+sE9erPTrl1zVfNP1/M0+Dx5pVv1Smc8FnXGTN2IVesmGkSro2cGY4etXimG6sZDXokQooOxXjp6z45aUNUc8so4q25oQ69XKMbSzaP3ZTUMrJqIks0B4nEba46eH4wdWHVjmrs/8p7+3t0AgOL998y89LXM76y99pcwBUbw6MOAWB69qqr5fD7sq0RZ64ZZodRf4xGPkgBMQAgj6NzinjBFPI1WPCA8M5b58xGi/Sm3hKkw+2aEdGYbDOqmQkZWXDh6n1q9lYRbAIDF2wBnpCQ0Q5/P58NtPOJcKkTC1KByrNYdN1tWHgBQ+80VTKfe2UoQMl+vvIPxSHjO1EAcfS6XCzwRQSxDDyFMOfWnYWD8JRB89YwdJmEKQhh27U8AvHT0xKcUR8/v7Ey+j1wSpkLz6CMoXUlv6XSautF12+gQZsKvjh67iuVpOturhjWBUZauBCN79J377nIczqRVHa0EXXX0uEefwj36AQx9MpkM/EkplqGPBtFRNwixS7j0fVSzEzhhyp26Ie9DleTouaAfAA4dPcHRTxR1Y9DUDfbkG466wf0Jy+0li0XHFE5TTgRjB36AOZ9JJkvR5Mz09lUCAQCgJIf06MOANPQhevQuu2Pv20zgYKyHjp4YJN0cnHdawhdzPiahpjnklRNm6KssUezqIhmOujFxjz6RACRHH9cJJHZ+o3akIQ19m/EdB3Xjqx49cHr0MmHKAYRQN/xHX2QJUy7W3JO98U4gYh4VyQTSpczdPHpKdcM/rTM1lNi+qM6EqdCeeZ1OJ3wdPTmBjGAs9vg0h6NueqRHDyJR3XS73XAn0JW6GZzTc3ZY7LAssn/qJoFz9Bh1M4ih7/V6gSssxTL0hmFE0TcjMo+e/wjxfroMlTCFEKrVat4jGw0MMh1/pJks6sZPkSbi11EUEL5TDi+WWK/XQzqzDT/ySoDNKpkw1es2/3R95bJL7Cgi+yqYM6GsUDdR9LdrNBqhSukpj57Q0Q9m6KHig7rhePREKAIqKq4XgHgwdhCOvtlsBp4NE668stvtNpvNRCJhN4Y3TbPdXtscZbNZe7K63W6v10MINZtNTdPsqCxCqNVa65+QyWTsSEW329VX16uqqnYc0uWQXq+nd4iiryt3Hd7cKp1O24Hvfr/fW3WOFEXBG/W1Wi3beUmlUnbNOV3Xu92uwbe5zWpF1RLJZNLu+G4YRgcfGMsnMg2j1+vZk0kcksvl7NedTsdeK/hkus+/PZlu859K0WPrtVudTseaf+JOa3d7imEAHx59s95QVj2PVCqlOM/T6fWcJR9N4Jx/fDKt+be/i89Mu922zRBv/lutFm8y/S9ml8nsUm3U8CZ/NqyHGUKIMBP1635Tv+43AIDKFZdOn/8htTwFqJXZbDb72NhWOHrscdvrttvttv/FvHIeCLPZrH2In8kE/PnHJ9P/YtacnkSH2B6ZJvC/mDMZQvXQrlSMZhM3JgAAvbv2yESYcTecNwIeiW02mzq2V7D3ZLgxISbTnn/TNHVdH2Ux0xDLo48G0ZVAcOHovTx6YROm2B4T9ib5BYVsJciF8wYmXE6oTk6tG6boloY1A8g0eN436vfa11zh5yowmQAARJMZGzY8VDcD+sL0bonxHWyv6ZIwRYzE4dGPm6MP16NPpVL48wcAoCgK8Q7+ZVVVdV0nvgAhdDmEKcd0OSSZTKrA8Ry2bS7vkEQiwXtU4g9kHJqmaZrWr3Hr9qQTasp5OVVV8QHMs1U3KIl5DcQhFqy9C09k6T7/fibTKp5OQFMwWafzTssWCqqqQh/B2Ew6rWEXInavmXy+42gDbQKv+WdfhdM53Z7MTqdDnDbwydR9iuesh5mrT9C769bcy19Hv5/L5eqOWr6k6ibh3AGA4CZTURRVVZNECRrXQwBnMVsg5l+vO3Y/mXwBQLi2yzQMMIhlICx7AiB6GBqutMHmUCMsO7Y+c7mckS/YNLStm/JjTPr9Pj7hQyxmGmJ59JqmRdE3IyodvVsw1qsKwnAevaIoMzMzPoY2ApiCUTwYazKDsX48emexF8Pdow8rljgzMxO6jn4gj941uu4S5Xbo6CPk6KempkJtPELrd0dpVEAGulnBWJ68klDdEB69wlLdmK1m++7bmSEZG+Vy2YWEGQ7rsgRCVM3BXe7n4YKxInTb8KRumAlTfjh6RBp66jxKFAlTEWAgQ++ePe9m6B2qG4q6ia28koz2KwpQVABWn1sD0pvIOb1seQyHuoEkdePYxODUjeXR60sLuz/yHqNWVdKZTee9N3XQoQMNdRSI5dFHA7IebGiujavqxtWj56nTROXoHfn6pLxyYI4eGUbl8h/u+8x/Os5D1qOPrZ3y7VusBGPdN3/8rRJeJJUOxsY3EYHc7KqaU441mkfPNPS8WjcDePRdgFDt17+wou5mp1275sqBxjki1qWhJ6kbvx04R7zQSr0R6yNXQ88tXiaAoWdGmF3llRrwp6O3b9HqFT9Z/un3+nt3Oc8zyZmxbKxQN0N69Calo4eR1LoJHbQngf+uAbd6ZDIaKwTls5Ug6dETTaZ6vepVl9n/bFx/zUDjHBFiGXrDMKpVhs4sWJD+FJW9EtiFcNmDpuHqKw83zXc1GOo4M+zOLWyPnp8wBVQFDMjRL1/6PfpDqvFIiH0zQk+Y8reJtGyxex6sK0dPUjfRyJYqlUqoTRFIU66qUMXs2IDOEDG9bOqG02GK0OATLVDwomZgkHI3tVpND5pmEMvQI4QC/4WMqxDyStMIyVN2tDzVEvgD38On442HVeKRQNgTyOHo8WAsUb1ySI6eRFTB2ChWoE/qxvLo3Vk+F+oGu4qSJDNjw2Msw259Q7QiWOXo7U8H9Oi73v14EY+6ITx6jSuv5J2ZCcMwAnc1xDL00YBe4iEJb0iPPuHXo3f5M4+/JL0ndYN/AcKhdfQEoKoCh+MWa+pmII/e1UC45Wq4FTWLL0dP/ukVR8r0oAuDom48OHoXHb1CevQO6kavVqhrh7txdAwmsisJBMqshyS8cTw/tAQeqzHdr+ji246bpucU4cGpG8Zd4Ye6WTkzZ/VDVXNSzON+4I0AXw0J/MkrucQOQoguahZJz9iwQW4ZR2s95icYy/PoIRGM1dw4+v6eneSlW6GXe7EhlqF3yUAJECyPPpRtLF67Cmoa/sD3uNVdrLnrOoYQht65ZaBgrG2a/XD0hgGoTqcrsHYGuAMVZt+MkM5sw+96071VN7wiKmRe8UpRsyg4+lwuF24iAv6IghBAOHzwBiHiTuRw9P4yY5MEdeMw9D3K0BsNdlWlTCYz4Y1HFEWJoG8GTdT49LAGhoO6cXL07qobvqF3p24ghP6T5YaDN0eP1xZe8+h9cPQIAQAMlpuzUhkNp2JD29lkMhlREqYMbx09z6MnFhitugmPukmn06F2mHK0nreIQYzTG2hh0AFSpurGt7zS6dErKr6F6u9+lDgrz9CHMYFiGfoogFB0Hj0ejE04qBsPssjFmo+duvFS3QCqYSzwydFbHj2zfCnVvSS+zAPwz9HrBvCibngeA2XoLdVNFMHY0OEwu+ra/y0MsjDoufWkbhz1KV3llcAZj+3tpqibeuiFZm2sO0PP3LGG5NG7BWOHS5gSwcANIq9cM82+VDcGAMBsMj16jTxJvIOxAyVMuRp6TqiW8CRWlH8TURWOXmDOrd4ghp726JmPVY680r2oGQBAwWh6uuwBz6MPA2IZeoRQP7zGftYlWI5MaB49n7pxJ15d3HZX6gYh1POqojMi2E9KXmbs6h3oX0dvNBmrn+5HGN4DL+wJBP7llf0+8NJfI8NgToXp/BVKhJmxVrHxkE4OAMvs4nKsQYKxNCOPel160+y4H/F69N4evVsHbJ6h7/f7k994JOy+Gcx7LDSP3hGMdXr0oahuEEJhZ5x5Uzcsj95/z1iTqtUOwGosN5JWgtVqNeyEKZ9liq3Ih2e7UXZlXZ1J3UTh0dfr9XAbj+CyLoZHP8DvYk4d48nqMxjL8OjdIo5mg23rGo1GzBqPCIhIPfq+06NP4hz9sMHYcXP0bAvrSJjCY2WrdyCEUFHdt9XWI8TNo6d26P35fc0bf4/6PTVfTB54SPrQI0DIcdRAMGBRMx+GPkNWGCa2jIzm4GPnAIcGw6PHPYCBPHrWM7LbAWmnooHXSpDoMBWQRx8G1qGhZ3n0YSVMOTNjMZmtObS8ctyGnkPd4NUrOXeFqnoQ68jy6FnBWOtXO/N9zGZ990feg3+/8PTTZ1nF2UXDQAlTnl3ozF6X3i6RHL1lg7RJCMbSnoSjqNloHD0AwOy01ZKjWLpjDwG5OnqFKsFPVEEgL7RuOXoAyDaMwYNp6MNPmIIJZ60bD9UNPxjrZehDlwZ6B2Oxxxtmmj2FN9aZmYZerywBQkVnGK07byW+XL/2l0Zlyf0qImCwEgie1A3TLcXTYjXN8j2d8sq4GnqGJzEsp8dUzTPeHKoEAvD26KNT3Yjl0WuaNj09HeolONRNBCUQEkoQOnp3p1hRlNnZ2QGGOAS8yhTz7gpvmn4lGMvy6BECZPFFw2DllHcfeTBbHmkJzc3NjXK4H/hdb4Zv6oZ+k6p/AKgJ9DUGx0nR8mXf79x7V/axjys962zA0XqH3fomQB09+xlJVUFwtBJUuYYeUK4MkRxLgEfdhNF8SSxDHwHYhj4sjx67lrMEgkf1Sr60ZuwcPXtrzPXosQXmJbxBK8FY/n7WWdKE6ft3dzyUPf7x7hcaM1iZHOwv6v6oG6a1oruOgFHllcs//X7lZz8EAHTuv0ebmcuddPKgZwgGuEe/UjIPW1qjUze0R+/IxeXW1aGlZYqrR7+uqZuwweHoI5BXDqKjdwnGjrvLMMejN2y6yZFdog7k0VvBWG4BEIdDaprMsG3v0Yc9rjJu+LewK8FYT+qGtZactKHt0Q8vW9KXlywrb6F1y58GOjxAODx6leLoAwnGkldkb1LJOhO0R+/O0Xfa4fUxJbAODX10CVOAVN34pm74Hj2dXxcxeFv+tffxL2Cm2ZujN/nB2JWz4XJpg5lD23v0IferjB3+vQq/wVjLMCHUuuPm1h03W09cRHUdAURRM10fqHpi5bLv4/9s33eX/2MDBq26GbbWDWKVl8ALWDZu/P3uj7wHz3Vy6WZFr3B3eSWI0KkXi7oxDKPZbBaLxfAuEa1Hj5dA0PBYzUA6+uSWbbZ9d/dYTdOs1+ulUmnwwfoFzyFFhm4tdGatGwB81DUzTGQaZrtFf1I6/WxAyCsNg1kVjDoXCwAAIABJREFUR19eMuo1tTD8EqpUKqVSKbyYtn+e0Cd1Y9n0+a9e1Pjj7wEA+Sc8Ze51bzGpriMAkH8ChEwIfRXP6u/ZWb/uN8RleV+u1Wq5XC68/uAMHf2wslGmR29TN/rC/vmvXEQ+Dh2BX+e9QP1k92AsAMBo1FUqpFSv1zOZjOanaohviOXRR5IZyzT0EZRAGMCjJw399kPs172dj7hfNPTETt6NZD/VWLVugC+P3iCypVIHHqLmC5ljji+dcS5xNmAYPG+o/rura7/6RX/vbvfL8TCWFciGoSPT8PRCULdr1GuNG6+z/tm48ff9+X2MriM0e+bTJiK0+P3/JeydUa3wnlhhT6DTo7dUN0N2mGLHsVc9+vrvf01veqALdTMgRw848Vhd1wNP2RPLo48AiNU4kPlmANdy6TBlGMA0eboFIuKa2n5w4w+/tV73dj4CEBpjWhCfutHpLzgqQPlQ3RAVuje8/jxtdgPzbMg0eGz+8k++a11uy/kXQk2rXv0zmEqXzzxXLZY9BhAJ/Bt6pOseQXsAAABmr6sv7MNNUufeOzxVN9b56RwfGrVrrmzfdRv9vr60kNi42fPwwMFS3Qxb68bVo+9R9SYBcDxUCLm9miMLXNOqGyVXAIZu18g0Kktmp62kw604C9ajoR+bR68RGdKo3+fu7EiP/uC1TzptfXEeN38Rg0vdeHr03qobUkijOO8c4lHByyBfHaex/JPvdh992CJYWzf/cfM7PqBNhav88wPCq4Bagmf6kWF4iugBAKjXJSgIfXmR7joCqAn0w3L09+xc+sE3mR/pi/NjMfTuOvoBqRtWrcruihWmSxoAp0efOfJYbWpGX14EAKQPPZwmYeiEqfShh/f37LQN/fzXPgsTyennv7x46ln+hz0ExKJuFEUJu5w6J2EqihIIitN7ckuOdW7cklu34y68C3sDIcxmyWz4gDGQR09kxrrDNB1OuqKQng5hp7ANU/rwo+nzte642Q6j6UsLez9+AUN6TyH0CXSuQIVyA20gXXcvRr/ytV6XeED29+xievSk0NtF/7PanXjhm1/kUTT64n7m+2EX9Gd49IFSN3Yw1mwxwkXOevRw8zs+UHjas4qnPnvDm95Bf5dW3aQPPULJFxxj6PeWfvgto7ZWomry69ErihL2bRZtwpSzqJkzQ9qFpieoGyWdwV2nrquhD7tFF9dj0r2oGx+qG9xgqbk8WUuEv/ozRx3nfnIAQH9+777Pf8xTahJ2gyRisanO294Bn9RNt0tQXr1dO9iqGx8evdlu7f30hx9608v2fOwD3Yfv7zxwn/1R9vjHpw5+zNroFueZ48lms6E2HnHKusjW8wNRN+7BWKOyyDjG+dO06dnZV/z9zEtezfw70tRN6tDD6W8ivd/5y932Pye/w1QEYFM3UZRASBAZ0m4XJeSVECa3HWj/a7xScS5Hv0bdsGvdeHP0hoN2Z7i6fPInc6S3oQcAdB/6S+fB+7y/FyaIv7ubR2/oftImUK9rOIPY/f17cUmSC0dPn61x/TXtO28FAHTuv2fhW1/CP5p9xesTGGfYX2Ab+rBBtwFxeAADNR5hBmNt1c0Sw9C7eBs06GBs6sBDlDxDEtZ54F7/px0CE2LozXZr/muf3flv5y394Jvu7jk7GBtNUbPhPHoIAQDJbQfZb3gKb8IFX15JvABOj95bXokoj94Jl3ssuW27z1hrf+yJCE7zqmS5OzCk657ZUsCibgilKUK9Rx60/7VWNlX1pm6WfvRt+zXuUqjlabVY0mbW6kPwPPrQQenoncHYkerRAwDMdtuoLpudNrutoDKAr00E4ZRcASaSTN+/e/96MvQIIX0oSXvt6p81/vDb/v691asum//qZ92KgkVavRI7raaRHr3Lrhwbv2XdUphHry/OsztoAwAiUAd6J0zxPHrvomZ4/QMlR90PnDPARBImkuWznut+fgv9+X0eX4hQXgkTCRfFBTJ0P6l8JsXRAwAMrE3dQNQNb6OZmNsIAHAaejZHH4Y6EAetox++lSDLo+8+fP+Od75p1wX/yjxkQI/ewdGntm0HAChpBjvd3fnwmn4/hAkUy9AbhjFc3ww8T6/55+sXL/kGz9ZHR92YpqNfwSAePV0XLHnAgfjnvV07OMeZlYp3vHEk8DhQneXR4yUQfHD07tSNo54UBjWfBwAUT332lndesOEf3nbgx79MfEHByrXrCx6GvlKphGuniFJ3/Cx5pOtMl5P8WrfrUjcCcDJjAYe64SExtwkAgMu9jFqVuYar1WqojUeAe5ni0XrG2uDuVwYx9EQwNnPMCQAAlZnPaJrdhx+wXtbr9eH8XReIZeiHhr60gP+zdvXPmjfdwPwme3EP6NF3HrivdcfNHm00nOeEmgZVDY8uujxd6NoaarGMZ3v2drEUvpHAU0fP6N0MAPCpo3enbjgevZJd+Wbq4MfkTnyiks2Vzjhn7TyFYvGUM+x/enr0YYMM0buUQzF0f/LKnssOD6z2EQSAki2x/pQ8ya+2gfToAQD64gLzy6HC2auSajziPxiLkGdlUAbgYB596qBDV17n8oWnngoASB92JPPLobI3E2Lo6a1r7bdXMb/JNPTmIB798mWX7Pmvf9t30Uf3fvJCV46IlEsDCJ1VEHx59CvNDSBMbNxiv6nP7/U/4GDhGYzl1aP35uhNr2Asx5lSKNKz+MyzbO67fPaLcM2SPr9voBovgYMU3bp69P4SpjpuBYIcOnpvjh4CtuJoxaOfdiQijIemN6kSCMowHD3S+0OsBN62kocNb3hb7qSTs8eeuPFN/89ak4lNW6ee+1IlnUlu2Zbcut3+Zqjx2ElImEL9Hl0gRec4bmw63r9Hb5qVyy6xXnbuu6v78AOpgw/zcyHrZlPSaWPVvhsuXhhiVMvT5jaC+++xXo/TLfUMxlL3If2afQbTxKsasDx69hnULPlNbWpmy/kXtm75Y3LL9swxx+O3kNlpm60GIwAQFcjCGGlX6gbT0SvZHNNzR70eQm4Mj3+OHul9HlmU2LDJGrBamrKzE/oL+0PP6aSA3Esg+KZu/AS6GRhQOapNz254/T8Tb5af/bzyWc8FENZ+9fPF733derP74H0u2fIjQiyPfrjGI8wsGKNWZT+uR6tHTzSFad3GLdbKLGGK50y79EJCJjby1a2iFQ2zwCOaI2g84i2vpGXOAAAfHD0wTNyQsTx6tqFX8gyFYmLDptIZ52aOPQFAiE8dAKA/z44iWpidnQ1XR+/MWXUph4IMHW+CwdPnmF1SXklgLTgEoaPKLvXMdtkZaKtziCssmR799PR0eBXNAJmRZ6lu8PrVfg29Z7U4JuAg1I37iQAAqcOOsN8wO20r9lYulxOspNxRIJahB2CYTnhGjWHokd5n1kEcUXWDJ7AB4PZ4J5t2agkAgDa19hjTl/lN7/CONsrKhGiYterP7+/tfGTpkm/Ur/0l+UQZRytBALwTpjwzY41WAxe0qZTcmOvRe7nnarGMp7O7x2NDn0BCdOvC0ZumlV5vIbnlAOYMmK2Gu83CCUMHe0M5PbhWB4daKNrqIE+FZejdQOkgkKN+tW/qZrjWDoF63MltB+JBkeovLwfhTKBwhn4IkMbXfr/OeN9TddPbtWP/Fz+x/0uf6u9n8ODUQ4X7J6GCsQkAAF4Nw627KavRAe6Won5v1wffWf3l5Qvf+pJNJUUE72AstbMGAPjw6Pt7d+H/1JxuOADcR4VLztHqtaE263hMenw/TBCdhN37R+McXWJu49Rz/8Z6rU1j+zYvohmXe7lX9OU1t7N4m5VLY4a+v3+P+6XDAKsEwtqP0itLfqRKYFjqZrh9AA9QUbPHnGD/s3HDtd2H7w/w/DYmwdDrWFsAHExKh1MCYdUb7ff3XfTR5k03NP903b7P/id9CxHndFE7MKkbrbwWy9LdqBs8YYph6HFUfvHjkOrpM8EvamasfoFd6wYqnoZ+rbAwTCToAmSQR914GnqCcPBSWIYKZ3aFWzAWOKPu6vRs6Yxzt/3HJ7e+7z/nXvcW/1fES1Q6eo/Q1A3H0Gtza4Y+sXmr/bq38xGemxUiGCUQMD6q33vkvNdWr/6ZywmQYdR+9fN9n/uvgS8NIf7MCwRT574E3yUsURWhA4FYht4wjHp94JYrTOoGcDx9Jh1vC2Dad99mb5b7e3fTTj2xS3BpEMP26Kd8cfQOXcHqIlCyeVwPjsMONiKEarVwW8v7kFcOwNHz2JjE3CZGKWaejt6HoXcSX26Gvlarhaujd6huXOWVTi7FUrwkNmxKbt2uuHadJuCowujaTZDr0WOGPnPUY9f+NAi17rgJAABMc/myS/Ze9JHG9dfU6/VQdfSsEgjOVYTQ8o/+z8UJq19z5eL3vu5w2hTFpSJs9rgTrReFp54aeBg/sWlr8emn2//sPHDf4jVXTbiOHiE0RN8Mg5NjxTb0TI9+teVp96G/4O/rC+Qen/DoDX6lXPJCCdKjN+o1bmyApboBEDLYDAAAAO07bl45DqEutSH107xiAPA5+to1Vz367n/Cmx16Vq8ksoVtMOvf8uJg/jz6tanr3HdX9ZeXt++9k+k60RMYLAiOXuGrbgjgWxy6WpYL8LKpjrglw6Nnr2dLRG9BLRTx0mat224CACz9+P8ql13SvuOW+a9/rn3vnUE+KU3T7HYcfymHR68AVpga6X0XWqnxh2uJd5Rkau7Vb0ps2KSWysVnnEl8uuENb9ty/oVb3vnB2Zf//TA/wQtT57wI/wm1H36zv2/Itjk8iGXoh4PBo244QVrml63br/eoo4wM7foRDw9e8AoAR8NYAKHldBAVq40Ke+S46ga3bjz2pnX7zbxRtO64ecc7/uHht74qKCqfR900b/nj4v99mchcw1MWmR49z0ZrzA3y6jQSGNSjBwAsXfKNvZ+4YM8nLujtiLzHLFHqztWjx6FNrfHyAxl6J0ePt40dxqMHAGQf+zj7dfuu2/r791av/Kn9Tu+WG/2PzR36wv6dF/zrI//8mr2f/rBNjtMefeaIY2mij3tz6Xp3x4PEmzCVSj/mqG3/8cntH/389IteSX6aSKYOOjR18GEhNfxRcoWpc1689u9eb/ErFwWbrj8Rhp5L3Qxi6Ps9gBBR2pDOS9Kd53Qx9I68oVW/VSs7WtJwaXpO13meoe/v3UVvPgAAAKHF73zVbDaAaS5f/gNmeHlgcFQN3YdYQSS8OTjLo8cTRnAkNnA6WrBO4mc3nZhjbMw7992168Pvrl/3awCAvrC/fcctIVU9wuG/BAIOqKpqcS113rNHneNYjUfdUKobH8FYAED2sSfZr1Gvu/cTF+Cf6vfe4X9s7li+9Lv9PTsBAO27brObrNHRfphKbXnXh2Zf8XrHMDiG3johCby6FGeXGSqKzzgTL7Vt1qvB5sqIZegVRUn73sna0DE6Bff4/FM3AAB9cb63ZyfB63l69Gaz7qeojk2SKpksrqbi0fQIkdUrLeDSEQKtO28BAEAI8c4tRr229gBAiCCmhgP+AMud9CT3L7s3B4eJJC+0xWtdxHxauBSAtKHNcBhYhJYu+Wbz5hsefd8/773oI7s+8I70gKmPgwKvnwq1hE/fXJ2awVcCUTfJBrNEmsOjdw/GNtmGnpjh5OZtDpHlsrOcb6vBzFYZFMg0rHbnFmrXrOS60zp6AIBaLBWedlrqkMPtj4wq++bqsvZwxH2NVyngVSwIGBDOvfafrAqsycOP3vSuDye3bAvw9MIZ+oH7ZiBkYn8kvPiXzvToORuiXReev+s/yB4xtDyD2CW4lJ0iSpqsvoJa2YeUnhWMBXyPHqzS9BDCPJY91HfuSAIRw+G3WfbYEzPHHO/2bdfM2OTmbWTPo1VwtQ2UillJZ7xTsQCAiQTR4dOG2Wru/8InrAd2f34vuv2mkBuPYC1BNM3P4AGhp7QYGJagO7n1APpNh+oG+yvQ+kKmR1889dnUGSHu1BNAhqEzveYBgVdaBnghP04xJQCAhv2JeR49k6xLH3EM/s+p573Ufl18xhnU10OBWizN/d0/TT3vZVvf9r7k1MB5o+6IfQkEo9nAdbXJAw7qrq4P//JKHvrz+/FO3EjvM+vBMt0ooqSJ/VorT/f3rRhcLnXDDMYypeWraN99R3/PzsRmhxegO7ma/t4gVM9OUc30C1+5667beNsa6Kq6SWw9gMm5K6m0WmBV+GM9LfxEYi0kN29t2+EcRYEAMrMoWzffUDzldPr9oODwAHwnQJIcNIRKMkUXTNdmN8JHHmKW31gBtq+qXP4DCGHp2c9H3U71l5ejbgcvQF86/WwAFW16tvD00+jxZB97Uu3Xv+CNtvvIg3Yxr6HRvut2/J9QVa0KAdyMPABUjBrlhe6YHn3ucY69afqwIze97X3t229KHXpE7sS/GmLwwyFz5LGZI48N48zxN/TOPyfeoMOs13AzvYJBSFjU7xnVZTuCymTkzUYNsOwv26P3lzNFV6+0oFHdh7HL9fd98ZNbz78Qp4b6zh1J4B49VNXklgMKTzm1/rur2d92VK8kF1tyywHM/ZC2cTM36kU9GPwb+uIzzrSUNko2t+mt72rdcmPlFz+hv9ZnRjuCA88DcAcjqyCZApShV3J5tTzlCNhAiM88IfJZvuwSoKqde+9s30MS6+lDj8ie8ATeeDJHHJM66DBedg/hjA+H9t234f9EhlG54ifNm25wJNY5eTbNcXMxDD0yDbxvT+HJz1TyheS2A/NPeDLxzcwRx2Scbn6sIZahRwiZpjlQoQyCXEtuWwvuIdMwmg2inwtPNMJDf37fmqFnkf7M3S7q93GK0OHRT/lIjnVUr8RMHrVbzxx5rH2L9vfsXPj2l6b/9h/U1eeKvt9p6PftYTz5BoSzOKUGAJh+wct7Ox+2q2njcK9emdy8rcuyCC45KbRH70dyYyF7whO2vutDvV07Mkcdp5anoaoxDb2+sN9sNvw/PwYFIa/0eRRRNhIAoKRS9H5EzeW1ksPQW2VT7X9mj398+y6HAa1fezWhlVo5v0szWwCAomw67z2N66/pPvxAf/9eJZMxqhWbXalf92uETDWXL535XLy8tn+Y3U73QTKktPyT7xLvuHj0xHYZdbuNG3/Xn9+HV40tnnoW3qRTEBiGoShKsPyhWIbeajwyM0OuabdDMI9eyRUIKtOoVR2GHqFBFeX9+X3pxxy1ejZW9TTKze8+eN++z38Mfyrg97OKJ8f64Ojda2vMve6tuy48335gNG64tr9l+5Yzz1kdvIO6Qb2uXlnWRqT/qLxEJZvb8s4P6suLwDQffe9b8e9C13r0ia0HdHc+TF+BK7lhGnr+LodGcvvBye0Hr7zedmBi4xamYLnz0P3ZY0+g3w8ERAkE+gswmaLz7NUpslYdM4prefTOrznCtsWnnw5VdeGbF9vvMK08cO9abl0rnSk+8yz7n80/X7//4v+x/9m4/hoAQG/3zk1vfZf9ptlu8ZL+CHTuu9tXeTKnR4+HYcxWE/V7K/EJhPZ88gJCGAY1jaA6BUGtVsvn88HWNRMrGDsEcOOrlUoEt0vGTgd054Gz3DGT9KdzTBYv+Sbh++P3M66wNCrLTHYbUa0EbUyd/SL7den0s9VCccPr/xl/GHQv+74tIKNVQxZ707z5ht0fee++iz46hOCSXeEAQm16VpuZIwUwfI4eJpJaeZrp0vIkN8AZVwQAQEXNP+np/gfvPBfMPf5k5ieByJN48KRumDIP2qNnG/psjog5EzMGICw89bQt7/yg5zgHTQFNHcgg5dt33drb/SgAAPW6ez72gUfe9ne7Ljzf0vb09++1g1WMA528DQ+ER0/Il2u//sXCty5u3XJj54F7aflvcut272Y4k4KYGXp9YX/92qvx9YEbX6tIIW5raJGM9zWcOybcVvrx6M1Ws+sU4wPgYC1UjGxFpsGsvAZYtW4sFE45w6qAn9p+SOn0cwAA6UOPmH7ey7AR9/Zf/D+o3zObDTp0rO/b3bn/nv1f/GT34ftbd9y88K2LwUAwTceTiWDMISQ2wi6ZsYmNmwGE6UOPABRcqJv04Ufbr5Nbt2/6l/eNQqTmOYY+EIqZB6eOnuHR5x73RPpNmqNXWApLNZsnjJ3CcgwTm7bQbzoAoTKg/o3xmAcAANC47jcAgMqVP+385W4AQO/Rh5d+9J3ln3xn57+dt/Pf37b4va/ZK6r+u6t3f+Q981//nNlqtu++nT4VAwR143zILf3w2/Vrr973+Y8t/eCb9KH23m49QCzqxh29XTt2XXg+ME2oqlvOvzB5wEHAKaK3/sxqoWTL4QnP2j3ZbOM//itMprTydOP6ayq/+LH1Jq6w9MPRd2grT6lu8I/0ypIlnnWAo7oBAKiF4pZ/vcDsdpRU2n4mlU4/u33fne07brH+2dv9aO3XV+A20UZv16PLP/2+fWt17r3T7LRd+lOT43LWP2AoJrcc0MH69+KDJ4KxltueOviwmZf+3eJ3vuL4iG/op1/4SphK9ffuzh7/+MKTnj5izdjE5m25k57U/PMfiPc7D90/ejCDB6KoGf2F7AlPAN/+Ev6wV1JpmvFgptQqubyHR299LZNVS2XmDnXlC9kcr4QcFxCmth9MB3UbN1w79fyXt27+o/0OHrqv/eoXqe2H5J/09M69d1qEUvfhB/T9e9hpTfQ1ndSNks7AVIruv8jM5kttP8TPJSYDYhl6TdOmpiixM0LIMKCmVa+41Fr9yDCWL//Bxje+HTi9bCt1UC2VbeJ1II8+c+RxlhCNVwCL6dET1E13tQkUDrwkjlooQkW1+UdjeQlsPwQghJBp31qIF4xdfYs0zRDOvfrNuz74TjtiUf/d1SqLi69dcyXxTuu2mxp/vFbftyf/lFPLZ55rWTejVq1f92uoKPmTn4EH0wjui2HoiUxXnIMiPfoVp7L4jDO0mdn9X/of6/7MHHWcC2kAE4np57+c9+kQmHvVmzLHnIB6XW1qZt/n/tt602zW+wv7XbIWRgEtr4Sahr+p5guZI47BXVp1epZ+6jBzppRc3mfQIrFpq4uh9yTomUgdfBht6I16rX7t1bx29gCAxe98Nf2Yo2q/ucJ+p/MAw1tig9pTaqUpX4SkouCZqEKhVCoFnskhlqEHACh4B5xet/LzH9WvvRqZ5vQLXt744+/sj1q33Ij0PtQSTkNfBqvm3gKxlN0T3G25MX6Hm82G2Wpae1K2R+8st9n5C8PQ40MCiqKWynYyoV5Zql5x6fJl31cy2dlXvTF77InANPHaNT5roaiF4vSLXjn/5U9b/+zv39u4/rfuh1iY/8rKIcs//j+1UCw85ZnINPZ97r8sJ6h1+82b/+Xf+vv2dB68L/2Yo0iJCy2kOdC5HXb0M3LsBnAiPnvc47a+56O1a65UUunS6Wf7GXZQgKlU4cnPAFYNDEWx/ejuQ/eHZuhJjh5qCcIFyT3uSbihh6yNi5JkefTZnOasHMnrWJnctKVz7528QQ5n6AtPe1b1Vz+nHWpix0bA7LT3fvojvDJe6cOP7vzlbj+JGhbU8rS7oddmNyjJVOnMc13KVY4XSgjdBIUz9DY69945/7+ft1vY4DqBlS/85R5tZg7/o65QN7ihJxhwp6HHm3BaDdotEHlJ/f17UgcdBngcfaNm1GtqvgAgRP0eU1lMbBLV8rRt6KtXXWaJ4Yx+df4rFx3woYtat/0Z37f69ztyJ/zVIvaL2nfd6vNAGwvf+EL2uBN7u3faW93OX+6u/OLHy5d+DyCkpDNzf+8U1VC3WeqAg5NbDrDib0o2Z82bhcTGzVBVV8w9hJljHLKWxIZNMy9+1aADDhAwkUxu3W5nDHXuvye59YDKZT8AEEyd8+IA5RmMYCz1vMye8ASAhU+YSpUEK0VeyWYJ3p9XrTexcSvz/ZXzDFWMV5ue3fb+T7TvuCm57aDWnbf4r6NH9JzBkTvpSb2dj3BrDlM2UePkP698OjN3wAc/5XNUkwRBg7Hdh+7f++kPu/eYb91+U+Wy769RmRCmD3kMWPXrLRjVitls7L/4kzv//W1LP/o24d0UTj7FeqFkslPn/o39PqEGsUltpkevL+zf8Y437Py3t/Xn93Ufut/htyoKACCxeRv+FAEAWNEF+3D7tdlq1n97VeWna7eHWioXnvJMl0nAAROJ/BOf5vPLPCx+92vNm27A31n+yXetn2922gtf+6zjirRoAcINbzgve8ITsseeuOm89+BfUDLZ0lnPs74zde7fDOczhoo0Viml/turdn/0fc2bb2jedMOeT1xg1GvVX16+7/MfW7rkG+27b7e8crPVXP7Jdxa+dbH1eOjt2lH5xU+aN91gm3LU6zb/dH31qsssnSvq99t33+5IktA0AED6MDIirRaK+AOeyNu0UDzldCKUrWSyUFGJKmm8jkju8VifhRloaFPThac9K3XwYYWh1VBOZB97kksjDjqQQKhLCYSUdyo+xPLoTdNst9tp09j/xY97KmRqv/o5Tlzmn/Bkay+GG3q9srzvCx+3woPVKy6tXnEpfobyOS9OHfKY/v69+Sc8xcGuQJg59oTWarXV9p231q65qnDyKXTGuY3+/N75L3/ablAAAFCLpQM+dJFRq6rFMnHblE49q3H9NXjiho2lH37bMcJnv2CggrT5k09xSUz3AzoyiYPMDqNcUQBAYtNWK3xCY+qcFxeeehoAiNaQiIDcXz0Fj2HYJtKoVXe84w32+9VfXq4WS+Wznl/77ZVWV6zGdb/JPf7JjT/+zjJJSi6fOfwYhMzOPXdYa6bysx9u/Kfzl777NaJArsUWTr/g5a1bV7rMl896rvVi+gWv2POJC8xWM7l1e/6JT6VHCxPJTW99974vfNzeuq04EP7oXXdDP0p6cKPRyGaz2uwGZqDbAQjduykltx+sTc2UTnvOMm9zMGBeRToOhr7ZbKbT6WAbrAtn6DutVv1bX3BrnI3DXiWKUj57paD2vqbCAAAKTElEQVQzbrLNZt0hAnECalruJLbAbvoFr2jfdZt9qy9d8o3+nkfdx9J9+H6ct0kfdiTUEkQCl4XEpq2zr/oHm0/nQZueLTzVrzu/cuZtByqbt5leioXpF7yceKIMhyFkyKOma4WJ9CGHpw48hJmsS8CoVRe/9zX7n8gwGjes9bIwm43mzY5dkdlu7fnY+wHVd8naOCY2btn0z+9pXPebxKYtpTNXDH3ygIMO+NBF+uJ8YuNmXgItTKU2vvkdVo94dWpm+oVkIXUXaFMzzMwsC0yJp090u12rhOrMS17dvvNWF/do45v+X+vWP9V//2veF3LHPx4AkH/yM6q/vNw6T+ao4xzKS+o54U7dZI6IgaHv9XrJZDJYQy8edQNh9rjHDSrtKpx8iq3JSx10mM9aUXT1FRuJDZtmXrJGGSO9b1dJ9Yn0YUe5fJp/wlNKZ5zjfoby2S8cojR24vFk1Q7glJ8XTzmj9KyzB9oo8DBp+SYQFk97TlgnZ3XXsxdq5qjj5l73lvJfvxDf/CnpTHLrdvc1ADVt5qWvPejT3zjgg59KHbgSCsIZPDzDznkk5NaCVlTPAtR+oJampl/gkEjh1L+SzWWOPn7mJa9JbFqLFhCOkVUjU5ue3fpv/zX7ytdvOf+DU3jKCEte4ULdJLcd6Ni4ryeIaOiLpz1n07+8Ty2WlVR627//tyeZC1W1/NcvtP+p5gvls57vfR1Nc9/kFp5yKq8Wq594ffpwN0MPAJh+3svKf/1CbWYue9yJ5Wc/j/g0/6SnF05+hudVaCROOjlztKN0sFosz/7tP1jPv/zJp0y/6JVAUeiOHwPrpgGbuok1co97EowweDA0FU7CGZMsP/v5aqkMANBmN+Sf/AzeQclNjnjs3GvePPOy1xVPPWvzO95PtJQaGoWnPQtP9J17zZvtNKXpF/0t1DSYSm1849ut6vaJuU2b3/7v9qXThx9t599p07OFp56WOuiw1AEH2aXwoarSCXd0MWrr+Qe1xPRYo/3jhVg3KoQwlUoBANKHHbn1vR/p7d6Z2Lwtc/TxuLCSPERRZ1/zZsIRKD/n+f35vWstaQDIHH28ks01/3Sd/Y53zQ0I5177j/u//Ck7EcmCNjWz4Q3n7f7Qu10OzRx9PK930hoUZeqcF1stxFCvW//dr+wk28LTTpt9+d8PkbADIUxlc8W3nN++547qlZe2775dSWdmXvLqxNzGLe+8AD9havtBeKK/NjUz+6o37v2fC91OTu30J82jBwBqWuapp7VW0+Wgpim5vC3SLZ32nKkXvqL6sx8tX/4DizRQS+Xc459c+9XPAUJKKj3zitdrU9Ot2/5stpoAQjVfAADayXfktVSVkSsXBBKbtmx7/8f1hf3a3EaXbDiCpk9u3Y7LBIZGMplck4FDuOGNb1/45hf7ux8tPOXU7HEnZo46rnPfndrMnJ1IsTLapfnE3CagKBvfcn7tmiuVRLJ46lmMW0BR5l79poVvfwl1u1PPeyl9FxOJwTCR3HL+hd1HH0rMbvTToEYEJJPJwBWWYhl6VVXtvhlqsZwplgEAmWMchl4tTyvptBUEyz72pOkXvpKxA4Vw9pVvMKrLFp2XmNu04XVvUbK5+hHHLH73a9Z2L3uiNwupZLKb/vGdrdtvWvrBN/v79iipdOnMc0unn83MNly5sqaVznxu+aznDWSmYTK18c3v2P/lT5utZun0c8pnPXe4tEwIYbFYBABkjjouc9RxqN9HprEiw3CekLil04cfnTnquNxJJzf/fL31jpLNAajYLYdmX/l6NV/c9/mPOa4XguB37Jg789zdN/3Bku1OPfelmaMfu//iT+pLi6XTnj117t8ACMtnvyhz7Am1X18Bk6nyc56vTc2UnnV275EH0kccY9kduwqeBb2yZPscmaOO06ZmreaFxWf9tc8KX0NAyWQ9rTZh6F1qyQ2EQsGxJVLzBTw4DzWN2HECAGAisWb3vYS26cOP3vb+j/M+Je7N7LEnAgjjlQQ7cPMlHxDL0DNBLIv0oYfPveYf2/fckZjbkNjE1QJDTdv0lnc1bvy92W7l/+qp1sO88LTT0ocf3fjjtWpxqvC0U3nHOk8Es489KXvc4/oL+7TyzBqpevRj7XKv+Sc+LX/yKbVf/VwtlUvP+mt7yQ6E1MGPOeCDnwo28x4mEhCwGV68cD9YrUg185JXdR+8z9L4l5/9fLVYmv/qZwAA6cOOzD/pFKhp0y94xdIPv2Udok3P+ux3Gi8omeyW8y9s3XGLNjOXPvRwAABtVlIHHTb32rUUAW1q2iXIPPuy1wEA2nfdlj7siNlXvkHJ5kpnnA0A9C44EzIyRx5rFwzIHP1YOEgfWpGRO/GJK8FwCMtnv9Dr6+sCMTD0aqGYfsxRVkUkAEDhKc+EiQQuZORCUWhdeWLj5qlzXjLwICAkWMviM89q33MHME1tanr6+S9Ty9P/v7079mkiDOM43rsDSj3oUWiDYGIijSHGRR1wsIsmTRzcTGQxgYWEmLjrH+Dmjq7uTsbFsZuDcXBnMRJRWmvC3YE97nU4QyoUuPbuyvXp9zOSljQv6e99ed733ieeI7pJNrFrN3bpsm5OBgt2zTDMW0uZTMawCvPPXjhfPo0UZ3OL1zOaNn71mverkb1SDir4VvWB8lrN92+10bGZRyt9+7R9pl8wJ5buxPXbtGy2tPqk/SenLFD6STcnLz59/vvDO92cmG5rnjfoZpZXlPK9nR/5u/fPrqAOB02deo61B+VyeXPz3wG1jY2N9fX1rt6ulDp+z0Pr+9b2q5fezs/Jyr2Z5dWU5Etre+vPt6/j5cVg4yslfN8PWeCzP3/cefNaHRxMP3zcVfM85XmaYaTkrxC78AOIjjp+hRFeEgOYrhW953kdG48E2zWq1QrfY7MPRmfne6vSJMf3/Xq9XiqVwrzYvHnbvLGUUarbUntsZ0VSqV6vF4tFoqpnjUZjamoq3mPgQ6XZbMbeeGSQvrGpSnkhNE3qwhzAIf5FBQDhCHoAEC5dpRvDMCxrSJ9RjoWu6x06t6AbhUKBAn0UlmWxmx1FPp8X/sCUpmkjojf6+oABjIgBjIgBjCiJfWwmXgAQjqAHAOHSFfS+7zuOc96fYoAppWz7hKZrCMe27difIhwqjuP4ne5kRkiu6x7832A5utQFveue2KYAZ1JKMVNGxABG5LouM2UUe3t7sc+UyW6b1Gq1s1/UJgj6JC5vGxLBiv7wBlD0YHd31zRNDt70zLbtXC7HwZueOY6TzWajbMmura0dfbuK28LCIN0ICgDC7O/vH4nl+GfdSqVSrVaP31cDADgfsa/oA9VqF7chAgDicnxFn1SNfm5ujhoOAKRB/PfRAwBShZ1xABCOoAcA4Qh6ABCOoAcA4Qh6ABCOoAcA4Qh6ABCOoAcA4Qh6ABCOoAcA4Qh6ABCOoAcA4Qh6ABCOoAcA4Qh6ABCOoAcA4Qh6ABCOoAcA4Qh6ABCOoAcA4Qh6ABCOoAcA4Qh6ABCOoAcA4Qh6ABCOoAcA4f4CFqsYI4swCcAAAAAASUVORK5CYII=;" vertex="1" parent="1">
          <mxGeometry x="90" y="455" width="125.99" height="90" as="geometry" />
        </mxCell>
        <mxCell id="yxD4dG-Z6kHUnOL1x4lN-206" value="Reconstructed &#xa;Energy Profile" style="shape=image;verticalLabelPosition=bottom;labelBackgroundColor=default;verticalAlign=top;aspect=fixed;imageAspect=0;image=data:image/png,iVBORw0KGgoAAAANSUhEUgAAAfgAAAFoCAIAAAA0LH5rAAAABmJLR0QA/wD/AP+gvaeTAAAACXBIWXMAAAsSAAALEgHS3X78AAAgAElEQVR4nOy9d9wkV3UmfG6ljm+cGc1ogiSEQAgRhUEYEBiDCAYTbMBgDLax8Ye9xunzrlmzi70YjL04EGySTDBJYBAZiZyRQEiMJCSBBmVNnjd27q5w94/qrr6xQndVd3XPff54f/12V+rbt06d+5znnIMwxqCgoKCgML/Qpn0BCgoKCgrZQhl6BQUFhTmHMvQKCgoKcw5l6BUUFBTmHEbqR+z1esFrXdd1XU/9FAoKCgoK8ZG+R3/BBRcUBrjsssuS7u44juM4qV/V6QPbtl3XnfZVzDB6vZ7nedO+ihlGp9NRWr6RgTHudrupHzZ9j35MGEbuLmm2YJrmtC9htmFZ1rQvYbZRLBanfQkzDIRQoVBI/bCKo1dQUFCYcyhDr6CgoDDnyJ2hVxz9mFAc/ZhQHP2YUBz9OMiIo8+doe92u51OZ9pXMcNot9uk8EkhKZrNpnpSjoN6va4M/cjwPK9er6d+2NwZegUFBQWFdKEMvYKCgsKcI3daRoTQtC9htoEQUmM4DtTojQlNU+7j6EAIZTGAuTP05XJ52pcw21hYWJj2Jcw2lpeXp30Js40dO3ZM+xJmGJqmra6upn/Y1I+ooKCgoJArKEOvoKCgMOdQhl5BQUEhAbxOu/WTH9vHDk/7QhIgdxx9u93GGCumfmQ0Gg3TNLMol3GaoFarlctlVXNpZGxubi4tLc1rSNZrt4688TXO2kmk6bt+/08qF12c8vE9r1arpR4oyt2P4XmeykscB2oAx4TruirfZxzMd2Z7/epvOWsnAQB77vrH3p/68THGWQxg7gy9goKCQm5R+9oXg9dubWuKV5IIytArKCgoxMZsplnkjohU1cDHRLFYnFd6dDIolUqqLdo4qFarKulsZGiaVqlUUj9s7gy96psxJtSTckyovhljolQqTfsSskTGzzCEUBYDqFw/BQUFhdigDT2ekcizMvQKCgoKIwL30q8dnwVyZ+hd151veVbWcBxHlVMfB7ZtK33qOOj1enOsT2XCD6kbeoxxFv0kcmfoO52OajwyDlqtlmo8Mg4ajYZ6Uo6D7e3tOTb0AJSh99K+1/yEqXSPCTk09AoKCgr5BR2Lxd3Z8EqVoVdQUFCIDZStR58RcmfolQJ3fKgxVJgi5nz60axUFsHYLAYwdzp6Vc5sTCwuLk77EmYbKysr076E2cbOnTunfQkZgtFTpm7odV3PonNL7jx6BQUFhdyCsexedzbkldl69L1er9VqGYYRpGt6nkeKakqlUrBO6Xa7gdqB3AVj3G63g13IFP9erxdoMXVdJ2vztlot4S62bdu27b/WNI1MgyR3KRQKQR48uQuTt+YXVfZfW5YV1LZ1HCeQvoTsYppmkAnsum6XmDTkyqbT6QSCP3IXZjDJXWSDGTL+ssGMOf4jDGbMXWIOJjn+IwxmzF3UZD7NJ7NnU6R8t1HXWq3wXSY/mXlka+gxxp7nMVormUjZ3zh4nXQXssAL+T5zNPIjhguT7UJ+xJSR4b9d5FmYa4t8H+Qjw3/N4FwpDmbMXcIGs9f1ENKKJf6amaMFlyr7miHjH/9XHmdkTsPJTO5yuk9mjDEdffW6HdkIJJ2ZcUYm/mRmgFJXvN7//ve/8847/dfvfOc7X/WqVyXavdPpYIznvFxGlmg2m4Zh5KfxSOPa76196D3YsVee86LlZz5/2pcTjXq9XiqVVOORkbG1tbW4uDiXlfWwbd/96peR76w878XLz3heiqfwPK9ery8tLaV4TMghR++6rkpXGQeu6+YosdPzNj75YWz3AOPNz3/CraefCZI6HMeZ63yfzBFQQ/MHbLNiSpw2R48xzmIAc2foFeYJXrs5bM7gec6p41O9HAWFscBrbDxV60ZBgdWiqbWawizD4z36GTH0uSMiLctSC+dxQIb4pw5ML0JxfjglOVTnljFRLpfnNWcKc3mwqVM3mqZlkUuUO0OvGo+MifyEYYGv1u3OQF1SJQQYE1k0SMoJeEOfOnWDEMrC0CvPRSFDMMErRd0ozDR4omZWqBtl6BUyBOfRK0OvMMMQcfSqqNlI8DxPySvHQa7kldihOfpZoG6UvHJMzLO8kqdu0i5TjDHOovNS7gx9u90mc5QVkqLZbHZzU39jFlU39Xpd9TgbB1tbW/lxNdKFQEefQeORra2t6O0SIneGXmGewHj0irpRmGmIOHrVeEThtAdH3ShDrzDDEKluFEevcNoD27NH3SgoyMCb9dR19Bkhdzr6SqWiQmHjYGFhIT/pKrNI3SwvL+dnAGcRO3funNcBFHD0jg2eB+ll2J1GjUfmdZZMBrkaPTYzdhZUN7kawFnEHA+gUDWfRc5UugeEfBp6hfmB4ugV5gi8Rw8zIqVXhl4hQ6iEKYV5gjD0OhPJsbkz9N1ul2wPppAUrVarlxsXg1XdeDNA3TQaDaWjHwe1Wm1ew2xC5z1d6sbzvFot/bYNuTP0juOo22wcOI6Tn9TiWQzG2rY9r3ZqMuh2u/M6gELnPV3hDcY4C0ctd4ZeYZ4wi5mxCgoySDh6Rd0onN7gVDfK0CvMMIQc/Uw0mcqdjt40zXld900GlmXlqPHIDAZjC4WCajwyDkql0rwqLCfg0SOEisViigf0kTtDb1nWtC9htpHFLBkZs1iPPou2D6cVqtXqtC8hK4h19Kly9JqmZTGAynNRyBAcR6/C7AozDKHqRunoFU53zKLqRkFBBomOfgbk4Lkz9J7nzWsx68nA87z8BDlmsXql67r5GcBZRH7UvalDyNGnS91ANgOYO0Pfbrdbrda0r2KG0Wg08pNxxgZjvRkwAbVaTWVyjIONjY359NUwFuvoUw3Guq67ubmZ4gF95M7QK8wVZtCjV1AQgvVagvdnIfKkDL1ChuDq0c/ALaGgIITUc58F90UZeoUMoYKxCnMDWTOpmVin5k5Hr1TMDFo/OeicOlF51MX60kqc7avVan7SVWYxM3ZpaSk/AziL2LFjx1xmnAkjsZD2rNZ1fXV1NcUD+sidoVf3GIna169c/8QHAWDzi1cceP2/aJWFyF1ydY/NouomVwM4i5jXAZRTNykTklkM4Hz+JHMD38oDgNesb3/9qulezAjgqBvF0SvMKuQe/QxIjJShnxm0bvjRtC8hMdjM2LlU3SmcHpBz9DPgvuTO0He73e6MNFafOGJl8bTbbZtmxqeIWfTom83mHKf8TAD1en0uM86kpQ5SnS2e5zUajRQP6CN3ht5xnPzYqVmEbdt5yffBeBbr0fd6vfnM95kUOp3OnBp6sQOa7qzGGGeR8Jg7Q68wN8CeB/QNPxOGXkFBCBlHPxPrVGXoFbICy9vAbNwSCgpCSD36WVj/5U5eaRjGXK77JgbTNHPSeARzFNxMePSWZSmN7zgoFotzOYCehFJOd1YjhAqFQooH9JE7Q5/Fl5wPxHz8lUqljC8kNjiPfiYMfaVSmfYlzDYWFqKzPWYRk9HRa5qWxQAq6kYhKwiKQM2CoVdQEEKmupkJ90UZeoWswHP0M3FLKCgIMRnVTUbInaHHGCuOvo+RxiE/A8hz9DPh0edk9GYX8ypOlXH0qXdZyGIAc2foW61Ws9mc9lXkAmw0P54BqtfrOWk8wlM32HNHe3pNEltbWyqTYxysr6/Ppa2fjEfvuu7GxkaKB/SRO0OvMMQs9GMKgUBeOSNaNAUFHpSOnpQVzYJoWBn6/GLWbaK4I88s3BUKCjxIj14rDaupK45eYTzMwgQKgTCTcCbuCgUFHqTqRisORcwzMaVzp6PPkQx82uA8+ljsdqVSyUm6itCjz/9dsbi4OK8V1SeDlZWVuRxAsnol6dGn65Bpmra8vJziAX3kztDP5RQZESNx9DlJiwUJR5//wEN+BnBGYRi5syqpgFyhZufRI4SyGEBlVXOMmefoRcHY3Hv0CgpCyDj6maBYlaHPL2Y+GGsLg7EzcFcoKPAgPXpEevSzIBrOnaHv9Xqq8YiP0ZzfTqeTFxm42KPPu+qm3W6rxiPjoNlszmXSGc3RU6HEFH0yjHEWiUS5M/S2befFTk0dDJ0d797p9Xo5aTwyo8HYTqczl/k+E0Or1ZpLQy9T3QCkKRr2PK/dbqd1tAC5M/QKQ8y4uREHY3Nv6BUUBMCYCsaSHP0ssKzK0OcX+Z894RDUupkF6kZBgQfjtWhFytDnPw0wd0IoXdfnct03CkZyfg3DyIlAUKK6yfvTyzCMnCQizCgsy5r2JaQPptANy9Gnt05FCGUxgLkz9MVicdqXkBdgVnIe6/lXLpejN5oIJNRN3n2fee2bMTEsLS1N+xLSh0cXo0fFrAy9pmmLi4tpHS1AtobedV3btjVNC3xMjDEZKjRNk9w4CIKF7EI6XLJdAICM6JK7eJ4XaCqY3IQRdnEcJ1h/6LoeZHuNsAs/MozzizG2bTt8l+D1ZAYzfBdX1KjBc5zgaNkNZirjH7yOOZhqMscZzOzGP9PJ7LRaQIDh6J1uFxwnP5OZR7aGvtPp1Ov1YrEYuJme59Xr9WCDlZWVYKDb7XZvYBoKhULQ0Q1jTO6ytLQU/AbdbjcoyWtZVrVaFe6yuLgYjE632w2C2qZpku5bo9EIRm1hYSGYar1erzX4mXVdJx2WRqMRTI5KpRL0QbRtO9BIMTnNzWYz+NnK5XKwgnEcJ7hmhNDKygpgytD7Q1cqlYIqEa7rxhnMkPFfXl4Odul0OoGwNWQwZePPDGa9Xu/R90Z/ZDqdzuBohmGQzku9Xg/Gv1qtBgtYcjCZ8ScHkxx/x3EajYb/uj+YA7RarcA6yMYfAFZXV8ldAuuQ28nMDGbuJjMxmMH4z9Bkdjep0sGM6qZRq1nlan4mM49sDX2lUiFvGADQdZ15J0DwYzDQNE22S7lcFjIVCCHZLuTcYkCOIIlisSgbQVlVikKhIGt+K1vYmqbJXjO9HuSHzjCMpIMZMv6VSkXYLjVkMGXjDwCrq6uOrvPcjWnoS5KjycZ/hMG0LEt2zbJ1sWD8B5CROWoyJ5jMA8jGP+eTubu11iDeYTz6xWrVor/XdCczj9ypbprNZvD4Os0xWuORWq2WhQ53BEiCsXnn6Dc3N1Umxzg4derU/CUiMBx9djp613XX1tbSOlqA3Bl6hSFoj37m1JZKR68wN6DqHxgGIkIIMAtpgMrQ5xeY5uhnLn9KoqPP+y2hoMCDlFci0wJawZz/Wa0MfY7BePS5n0wMZrQEgoICD3IyI8NATKpK7otvKx19fsFyNfEmU7lczklN/xmlbqrV6rxWVJ8MSPXL/IC8GXUD6dQMSVdHn0UiQu4mdE6yOnMBbxSOPkdGajbr0Zs0/aqQFHM5gOS8RZoGCAFCQ31EqpmxWQxgLlw/BSFYy557E8lAUo8+76obBQUBCK/L521I9ib/WjJl6HOMeVTd5N+jV1DgQd19PjVKGfq8z+rcGXrbtnui1PnTEKNx9N1uNzf16GfS0Hc6HdV4ZBzMZz16ckpovkdPcKTpBWMxxqdFPfper6cMfR/eKKqbbrebk3wfoeom/9RNu92ev3yfSWIuO0yRXhfSNGCpm9QMved5p0WHKYUAbEVfjPPfmpKEWEevbKjCDIIy5b6J1wjZSO6XgMrQ5xicTZwlK4nxjJZAUFAQgAzGaioYOzbCi22eVuDq0ceiAnMygNLFbO59H13X51AGPkHMp7ySpG70DKkbphBxWsiN5noAlTA1BGfWseuiqJtIWLRv8hBnS81CMDaLtg+nFWRVMGcbXDCWqoKQXt80phB0aodN/YgKaUHQdW92qBtxJHYWDL2CggCYD8YOvWRF3SiMAZ6jnyErKfHo86+6UVDgIQjGhlA3nod73VxJJ3JH3SgEEHH0yqNXUJgCaHmlHvztg5jVzub6iXe8uXff3cXzL9z9//2FVs4FlZo7j77VamUhI51J8Bx9jGBsvV4POqJNETKOPv91/ra2tnKSiDCjWF9fn8NEBIqj54Kx3tCt2f7qF3r33Q0AndtuaVz7veTncdfX18e4UDFyZ+gxxvOXbTEaBBx9DHc4JwMoFNHDLHj0eRi9mcYcWnlWdRMWjK1946rg9frHPzDKuTKYgbkz9ApD4BnW0c+u6kZBQQAv1KOXRZ5y4zQoQ59fCGxi7nmPADKPXgVjFWYRdJlittbN8FPaFUNGXlIKcheMlbVIPx0h0tFH7lQqlXKRMDWzwdhKpaKaIoyDxcXFOcw446tXknfZYFa79W1yJ61STXoeTdMWFhZGucJQ5M7Q56hvxrQxmo4+J3mJs0vdWJY1nRNjvP21LzYPXls4+9zV578EWbPq8UzUV8O4dfMNbn27ctHFWrGU4XlIj16XevTOBhVH1auJTTZCKIsBVFY1xxjJo88JZB59/ksgTAutmw9uXPFhAOjeeUhfXFp+5vOnfUUzgM3Pf2Lryk8BwPaXP7vvdf/EtnJNEV5oZuzgU2eTMvT5eVpPf42vIIMg9DpDHL3Uo1ccvRidn/90+PrQrVO8khmCb+UBwD5xrH3LDdmdKGatG5c29FKR8cSRO0PvOI5SMfcxUvXKXq+Xh74Z0imeXlWQjNDtdqciECTXQNJQ9iyg0+lMRqLqdagGHe2f/STDk4U2HgncF8ajx71u0vNgjLPIg8mdoe92u91u4tGZSwiImhgWvNPp5KFzi1xHn3ePvtVqTedJSSzX8uMJjoB6vT4ZQ+9ub5H/6pX0Y5gBMFfrBnRBMNbZ3KD2Sn4nep7XaDRGusYw5M7QKwwhyIzNuzscYHZVN9MCGXuXRjgUCLg1ytCPIHFJcjK21o2QumE9env6LpcPFYzNLwRmfXaspFxHn/wrYLz9javat9xQPO9BS097DppXXda8ePQTA+PRU01c0wZf6wZI6sYTc/ReDtbWPnJ3z2iapnLQ+xBw9NFWUtO0XKiY0wvGNn/8g41PfBAA2rfepFcXFp546bjXFoppZSGQpmSmPfqJZSEwHn22rCDl0bPB2P6nnudsb1KXZPcAY0hyPyKEshjA3FE3pVKpXC5P+ypygdGqV1ar1Tw0b0mRutn8/CeC12sffe/o1xQPS0tL08lFcEmPfoYN/erq6mQelqxVzXK9S3n0SKy6cba32DsU46SPH03TVlZWxrlU8WFTP6JCauAm7gwR3ClWr7SPHx33amYB1HM99yHrPIChbiDTp6PHcvR0c3AHANwtQdXJEeKxWUAZ+hxjJOomJ8gwM3ZemT0yGDvL8sqJgaVusjT0olo3nEe/ITL0+YjHKkOfX4gSpmZTdSOqChIfTLqj20xffJYHkE/x/ItQ8wDGoyeLwqcPrtYNXwLB2drgdgMvuZQ+C+TO0Lfb7VarNe2ryAdGKoHQaDTykIhA+qRaYRgzGMGj12h9tLNxapwLi8T29vZ0UvY8mqOf2YXLxsbGZDLOXIajn5hHL6hH7wKAu7Em2DEhdeN53ubmZvR2CZE7Q+953lw2LhgBoqJm0VYyJwNIUjeIMvSJ70aNji0769ka+mmNHvVzY4y5bgSzgsmkm2HXdRt16q2JcfQy6kbk0SelbjDGWQxg7gy9QgCekReY/rxC5tEDxkl9VUaM7KwL/KZ5APNz24q9CYNb22bemZzqRlDrxgEZR6+CsQoRmO2iZkM7RRn65E497lKlP7L26KcFJiSjaPpwMJFYmKSOXuNVNy5wabH9q8qHoc9dwlShUFAJU32MVAKhWCzmo/EIQd0UGUPvJui8g7E3WUNfLpen03iEdkhnNzl2YWFhAil7DEEPWXP0Hlvrhm4O7mLP5S8JALyE1I2madVq+rUccmfoVeORAKM1B59a3wwatEdPV+VOssTGjsOsbLI29NPqccYwdbObMzWZfD1WRA8ZFwjhdfRkxQXXdbe3hJxk0gKWCKEsBnD6rp+CFAKPfoaoG3EwFhJyqYw7DwCOSNswD6Cf67Nr6CeDCVM3fK0bJhjriiKxoHT0CpGY6aJmZK0bhqNPFGnAnKH32i2v1RzjynKKufHoJwOH8+izHbHQWjfYdT1JEXncywUFlztD77quo6a4j5E8etu2c9F4hBCNpOvRQ8ZOfa/Xm47CkvlxZ5aj73a7EwizCQjxyda6oXX0joyiSZowhTHOIg8md4a+0+lk0WBlFiHi6KMNULvdzkXjEWd4DQxHn2iJzXv0kLGhbzabU3lSMj/37KpuarXaJAz9hFU3HEdPB2M9T2Kdk1I3nufV6/Xo7RIid4ZeYYjZ5uilHn0iz0u4InbW5lFhyVA3qtxNKPhg7IRr3VDBWIxxt83tBJA8GJsRlKHPL2aao6cSpool6qNEqhuxRz+Hhp4ZlhmqVDoFYCzw6LMz9EyWHyevBACvLS7ckpNgbO60jLlompETjNQcHCGUhzFMK2FKzNFnqbCc1uixCVMzy9FPII3DazUFZj2zRyPz0yCOugEAT1Kha4RgbBYzMHeGXnUdCSDw6WJQNwsLGbZIjguMQ+SVcSINwyOJDD1b5CRVLC8vZ3fwMMyL6mbHjh1Zn4KX3ECmHD1z3/lPMi2WR580GKvrehYDqKibHGNma90wj6jxPHrBfTKXtAYbjJ1Zj34C4HkbyPLRyMw3sUefb+pGGfr8QlSPfjYMHGOkEKu6GVdemW2dwmmBlVfO43dMCbgjiHxm6dHTdyKXMAXK0CuMCFGVx1nxZBnfSrMKVH/kJCZMSN3MrvQwBCphKj7EwarMZgXr0fvUjU7x3lJDnwOtM+TQ0Hc6nXZbLFQ6rSCeyjGCsc1mc+qNR1hpoGEig2zHk4S6EckrMzX0tVptOil786Kj39rayjzjTLS0zVJ1Q3+dRNRN8sYjW1sCYmpM5M7Qu66bh8TO6UM4lWNQN67rTiax0+u027feZJ86wX/EUjemQfddG9ujz9IQu647lfqprEc/szr6CfTnEi5ts1vvMuETxJcpDgnGJm88koWfkTvVjYKPCU/lpHDrtaP/+L+ctZPINHf/4V+WHvxw6mPG0DMefZJ5LOboczMOqQFjUPXoY0Nyd0xUdcN69ETYQKsseM2+MEwlTCmEYlTqZjKof+erztpJAMC2vf6x9zOfMqYcGSZVGERx9Bz4xoGKow+DcGmbnerGE3D0IdSNXh1KnFUwVgzLsnJSUX26EHL0caibQqFgmrHbeoyKras+Hby2Tx5nPuWoG3Nk6kbo0We6simVSlPo3MJ/o5k19JVKJeukM6HOGLtuVh3VXQFHD0x3GuLUOtE5JClHr2lapVJJfIVRyB11MwEjNRsQ2vQYBm5afTNIMPwyMgyauklUAkG08s3SCE6mbwYD/tE1uzr6SeQ8Sjwe7Hkog+5gnEfvB2OlxlOrEB59QkOPECqVStHbJUS2hr7RaKytrZVKpeAZ5TgOGVNeXV0NvKd6vR7IRYrFYtBPy/O8jY1hUf+VlZWg01uj0QhKXVqWtbi46L/GGK+vD/s3Li8vB42rWq1Wa5CsbJrm0tJSsNna2rAm4uLiYrCwaLfbzWa/ALqu6ysrK8FmGxsbQeRzYWEhMLLdbjcoQadp2urqarDL5uZmEG2uVCrBj9rr9Wq12vCadYFT2et2W61WcCPZtr29PWyRvGPHjsCTqtVqQQ1LcjBd193cHNZ3lY1/oVAIMmyZ8R8MJuWyra2tkYPJ0A6Oh0lD36ht99bWAMAwDDINdX19PYiCBoMZ7tGT41+tVgMbTY4/QohMNdza2gqCXeVyWTaYO3fuDF5vb28HAcasJjNf7mJwkcxkXlpaCpyhWZnMssEMGf/wySxd0jmO72gnnMwAAM1mM9D7MYO5tU43g+3LK6XLPr26GLzGnttptYqDr9npdBqNxuAw0sEcczLzyNbQVyqV1dVVch1nGAb53cg1cqVSCW4hchdmOJhdhN8NIUTuQh6tVCrJXDbZLsViUeYmk3aK3MWyLPJoJMgJRO5imia5iydqWGNqGvm0ZwaTPBrZdpJ8X9d12WBWq1XhmlE8/vTSnPmyJDmDdN0wTVJ0XLasxdVVAOgduff4h98FHl59/kusA+eQRie4ZilHjzEgNML4B94AswszmCTIqhIZTWaRR+8Eu8/6ZCYRczAjJrPMo3cdBAVIOpkBAKBcLstc6YVqlex008+MRVJDr9FNX03iZikUCjJqWjaYI0xmHtkaeoQQT3fKCFD/ff+Zxmwj2yWkgNes7yLUmGLPI7cRnsVxHE3TQljmFK9ZugHpn2oaQoj06MFzNU0DjE+965/98mTHj9531pv+XXgWseoGY4w9hPQsxt9xHKY5+AiDmXgX3qMnHpa5mpmRu9i2bRhG0pFJdBZZLZDgeZny1wSa+u/7OgjpunBtQQZjAQBsGwZPkMgL8+WVJIM9zo1JfIWcQSVM9SH0WWIEY1ut1kQSpsLcB0wbeqAJTd+Ede+5MyhC6W5tdO78ueg4rlROnlk8tl6vTz5hig+zz66OfmtrK/NEBJlHn80PJ6x1A8AmxwbQaEMfU3iDHbv2ra9sffULWycFuSljInfBWAUfUl1BThAuqyDuc3+FS7XjcRzgEkyEcmNxJHZwEGTOkTqL/2XnTkKaIqTys4wGTVTrBgCQrgsfaHqFNvTxpPQnL3tr68brAEC75tvwujdH3GIJkTuPXqEPsUefFx19qEPPUjcAACR147tdTI1v0SJUSND3P8rPMy8N8GpapaMPg5S6mYhHH8xVTazwYTz6OMmxbr3mW3kA8I4d7t59+wjXGQJl6PMKoY5+RqwbZbaQmLph70mRKk5M0PuYM4eXp25mVl45AcgMelZPRzKdDaHA15ZJORmOPo7C0q3XyH/t40eTXmM4ckfdZJEsMIsQL05jcPRkID47IEDUohVjaqVJ3BhIQwAg0NEzTzLRQjXE0Gfn8JLin4lBoLqZkYc6j127dmV9Clmrtcw8emI+E8ZdZui1MqW6iSWlZ1Kj007ZUx59TiHm6HNE3VB2mbVKvEfPVa9kdxGqjESlK8VnnHXw1M3MBmMnAdmvn9GsIB0sUlUpM/TFIiJkM7GCsadjG0AAACAASURBVGwYQBn60wSjZsZOBYwnRVVu4Yt3+4aeKdYo+mrC9lL97eeLwhZ59Kl9wfZtt2x+5vL2rTemdcCpQ+rRZ6S6IeYq7dGLGBGEkGGSSoE4hp5tSyth/0eGMvR5xai1bqYD5gbzSOqG8+j9jeW7DLc8jTl6SImj7xy69fhb3rD1pc8ef9ubWjddn8oxp4/Jyiup2C/hayNRciyyLEAIWcOstFhtY083j17p6H2M3Hik1Wr1JtDUJpy6IWXUCAETjPXllfRFCh1YkqMfp/FsIkxJR5+V6qb2na8GP8fJy96SyjHDsb29nXVHBClxl82SV+bRC3X0mlUAAI306HvRz2xmPqdeFS53hl41Hulj1Hr0juNMYgBZQ09TN7xHT+rofeqG9ljFFcZJQ1+hA1yZ2WLHcabQeEReAmFMNK+7ZnjMifD+k/AzJDM8q8c/eTrKoxcQLL4vj6yE1A3z08y9R6/gQ6K6yU0wlgZrlWLo6Fkpgpijlxr63IYrRkN2Hr1WpOq3zEeMV8ZhZsbRk45LhOpGYOhjUDfslaftaihDn1fMlo7elU9TgerGBc7NEfpilEdfoqrXzVvvkczKFBu7dpP/2iePpXLYKSOq1k3KIJ8rkdRNoQAAiYOxzAI37Whc7gy9aZqqJD1IOfron9+yLMPIPj0ilKOnPSAxR88ZepFH36E4ev5pkQWKxeLkG48Iat2k9CQzVnaQ/9rHjqRy2BCUy+XMG49MtgQCpaMnqRvRPOE9+jjBWPa5nvbaPXcJU6q9VB/i5uDRP/+k+mbQhj6EupHp6O1k1A0qFEHXA61Odhx9Fm0fosH/snZKX5AmAXrHDmedkTiJnEcZR5/RrCBvRlL4KKZuLADQzKHqJk4wlhGhycpzjozcefQKPsQeK8ZZNUsbD2EMI1e9sq+j7yUMxhaL/EHmBgIdvZdOYzxmZWAfz9yjnwCkHH32tW4idfTaaMFY1lWad+pGoQ9pkncuaHp2aR6iukFsMFZI3QgNN+PRT4a6mQqElisV/5QZKPvY4fGPOX1IVTfZzAo+ARAAwoOxZtJg7GnG0Xuel7UIdyYgZWmiZoDrupMfwLASCLy80tfRx+DoyTLFWqHIHyQLuK47BXmlOPaexndkDP2JY1mn3U0gC0F6d2RVj17M0UuoG46jH8Wjn3fqpt1uB20wT2vI2x+H79dsNifQeIS5DI66iW48wsgrhdaHTZiaCHVTq9WmkDAlfM6lIYVkUxxc1zmVfl8LEpubm5m7GhPOjJVw9MJCBb7qRqPklclVN2lz9LkLxk4MvcP3bH72Y4C01V97qbln77Qvh4X0l84HZcE6m/JaN30BBle9kpUZRBU1Q4UiLd3JxTikBnFpo/SpGwCwjx0xd+duwieCjKLB3kRr3YQEY2nqJrGhVxx9SvC842//h9ZPDrZuuv7Ev//fPEY4R/XoJwRGT+nKF55crRsQevSRCVOFAi/dmRuIi5Wm4p9yA9vLXmGZNaSGftK1boTB2CIMCJz+VcXKjJVGuVLBaWro24dudbc3/df2qeM5nPojc/STAMbMHcX+G94zVqyjj0iYQrTqZs4MvVhNm04wlj3IPMRjJ8zRS6tXpufRs0vklG/z3FE35XI5eqOx4TUb5L8xu/dOFFIBWcQMWFhYCN9gfGDM3mbsNCV7xvLVK0UevWBmY0xmmmi+jj4Ad0u3b7lx68ortHJ19UW/bdLpoImwvLycdb4PD+FzPZ3kWN6jz1hhuWPHjqwzzqQefUbEpqTWTdxgbJzqlazqZt45+gndY7SpEma4TRdSjj5qBkxiAAWdrEMaj7CZsYAxeB52Iqgb3OtRD4xQeaXXap54x//13/S6nTP/4nVxvwuHyVt5AEmIIgN5JfjJsUxHsFQxibziCevok9S6EQRjk1M3iqNPB+zsz5+hH9mjnwAERjmKumF8H+w6XlTCFNNHkJVX0rd0/fvfDI7QOXRrbqu/ySDR0aevugEAbPecjbXxjzxFTLjxiKzWTWwd/Qi1bhRHnwrYhqW5G4dcc/S87ZBnxiKuBIK/fWTCFGPoUaHIZ10N96Z7K8dRLucLwmBsKg910UF6s07Tyzz3jOrRJ9LRmxYwwVjHjpR7xBGhjYPcGbhut9uRdwpNC5ilbqaxWg/HqKqbdruddUHw6E7W4dSNyNALjinw6EnpDrU90+sHj5FJ0Gw2p9F4RPRzp6OjFxw509Jm9Xo964wzyvJOQIsl1dGHVK+kKjNGsjdhmShpIHeG3nGcSdxmTL6Plzt55cg6etu2s248IrAd8hIIAnmlb8QZW8BZukTUDVMwNk7SuQy9Xm8ambHCPjNpcPSiu8lr1sc/sgydTifzASRlMCRJklVmbCIdPRuMBa6fmuAUMfrwjIPcGfoJgfGL035+pgCpR58H6iaqHRKnugHa0HsdtltkhEePELKskGAsw5Z6Ic1mcwmJjj4T1Q3kI9IzDqjoKGlSs6pHn6TWTT8YWyDfTOrRK44+HbAufP5id/L6fNO/VEF8LyRhCnHVKwG8NlvlIjwYq1kFQIhy2+kbg7nl4oS/8oWMdPQYZ1cubZogZgtpUieiuokw9BoXjIUYE5L9ReZeRz+JphnAe/S5o26kz54oj940zazHMJKjp0ogiKgb3tALArx0/QMQFcwZgg6nx1IuS2BZ1hQaj2Qjr5SqU7L06IvFYuaNR0guhQp75qAevckmTEEMLjFr1U3uDH2hUIjeaGwwwdgpcLJRkHnukTNgEn0zeDMR1TN2JI+ezpYCQEbc6pV4DOpmEn0zeGTkd0vVKRl69JNI2SM5emvCHH0kdVMEjqOPltJn3GHqNKVu2HHMH3Uj9dxzwK5GUzeYVd0wvk8cjp7sbor8p5fco2cpzjE8+qlA/Fwfm6OfdAbpZIAxUBw94RpOgqMPazyCNN23/mwwNkpApRKmskHug7HSRXcOgrHR1A3HacagbuhjYty66frgv8LZ5wLbpiqsqto41M10kI3qRmrQZ9nQM8txKgc1K44+ruomsO9I08kc2sTUzdyrbjDGEyBSGHOZl5KQJKQcfcSlep6X+QBGUjfhrQTF1A3b8c5ZOxn8W37Yo0DUvUR2AePo6CcxgBwk9ejHp24mW+URAAAyL0ZPr34mIK+U1brh69EjgnkmnfrmdddsfeGTvSP3ys5w2jUHb7VaGONqtZrtaXIfjB150d1oNEzTzJSpjyyBwKtuACGk6cHz1WtHUDetm348PIBplR70EGBTY+hHNX2feGMY+u3t7Wq1atIJL9mh/v1vblzxYa/V5D9Kw6MXHyHT2p/r6+uZ1jVjLh5NWnUT5tGTEiBkWTCgKBs//C4AbF75qf2v+ydh9wslr8wE7Djm0aOXGPRcUDcRHD19YwwEGKSZ7kRQNyRvU7rgoX2vbe44eq/ZWL/8fUIrD2no6OUNOqY/i0YHfbdqpHxjApmxobVuEGXoOV2J52198QrhGVRz8Gzg5V51IxXG5eCZJODoozx62h8P9+jdeq1z56Hg3/LDLuofQV6mmLX7M5Iw1bz+mhBrnobqZh45eiZXbhKZsTIdPReMJQ09rbD00fjR98WnON04+smA9WjyZ+hH1tFPAIJZGMXRA22mw4Ox7ZsPkkcoP/RR/SOEUTdMMHY2EqbcRlgpghR09FLqZvqzaHTQtwZN3WRT1Cy2jp6MDGsiQ88dGvePz1YEmXeOfhIycAjVfecD0szYKENfrVazT1fhqRu56ia4GJ306MOCsSRBXzj7XH1puX+okFo36VE3i4uLE0uYiijVkJlHn2kwdnV1NdMBZG4BNLbqpn3bLc1rv2ftPbD45GeIK5ZLat3wfSx8ET1/YRQGzQAaP/zu+kffCwitvuC32E3S9udyZ+gnc4+FZHLmBdJFd8SlTmIAI6kbcjw1EXUj19Fjx27femPwfvlhvzDciGs8O9yd8ejHoG50URZMRginmNLg6FNLmGrfdsvW5z6OrMLq83/TOut+IVtmPoD09KOqyiR/gPWO3nf8LW/wHWqv111+5vP5bQT9FXwIqBtL+JqEs7VhrOzA3e765e/zJ+rahy9jN1LB2FQQxinnAzOmo4/KjAWa0BRQN4Pv1b37DtJMBwQ9cwQ2+urOZjA2tCJ3djr6pBQH7nZPvfdtnTsOtX/6kxPv/CecRv3kkcFy9JRHz3EgUdj64hXBLpuf/bh4o9i1brQojh4A7JPHAaB96Fbe3QmgVDcpgUvPmdJ1yDGqRz8J8AaIsbNc4xFgg7HSEgju9lbwplYoWvvPHh5Kj8vRz0pRswiPfmx7mpah79x5yK1t+6+dzfXWT34cvn22YKkbuk5kQhPZ/tktyc4Y2kqQvBh9cVl4MOfkMQDw2mKpVR9zH4zt9XrdMUTQMRFSVjcvkLBJkR59p9OxM3a4xvfo+QEPvFfSnUfFEtnaNKTFBJsZOwZ102q1si7oH8CVCCt9pKAKj6JuGj/4zuG/+fNjb/6b3tH7Qg7DfNq8/pqQjRuNRqYyNsaUMwWBk7I3mhWdMCGrdSOiboYXI9TLA4B94hhE5fSlvnDPnaG3bTtrOwWhwcOcQN4cPGIG9Hq9rDu3RHeYEnH0EF5TM+Doe2QtM/oelssrmbIw41A33W4389zOATy6AyKDNFQ3YcFYd2vj1H++0z5xrHPHbesffW/IcWw6pTMkwxMA2u12tnplubwSkj8dkUETLKIrpzl60qNn7aexuiN4be2WGPqTxyGySoeiblJBWPAwH8hzPfrIxiO06kZA3fAYBmMJT4fUMABP3RD3JBeMnQ2O3q1vh32cnerGdQGg9t2vBWPYuf1nIeva3mHKsssyvCaDENUNJGelYvX8k9S64XX01t4DwWupR+9TN81GyFUpjj4lhLS+ywlk8zUXwdgIjp6mbvrci7CmK3FQPFA+0P1GCLDdRYizzGRmLMZu+N2enerGcwHA3aYeM9LYoOf1jlHUjddqTpHtZIOx9LIv6TKILTPJpfIB412FNge39p0VvDZWdyJDwAs5p05gz3VDF3Pzz9EbhjGB3iNzzNEbhpG1vi1G4xFiPJGIoxcf1gEQ9BsZgpkYxI+YourGNM2sExF8eK1G+Ao9Q+pG9L7MT7dPHWfCwnxvdxKFQiHbAWTklYy4JTF1Q9ligR4MaI8+NBirVYgiXZpmnrGHPxh2XXdj3WuEsnZzz9EXCoVisRi93XhgJ/q0PXqv017/xAdPvOPNgYRc3hw84lLL5bIly9RIC0mCsSgmRz/4UTw5R888Kkjjznr0jjPyrVKtVifT5sytR3Tozq4EQn/oaHMsM/S9I4I4bQh7s7i4mKmhx/LMWBiBozejDb2sTDFj6PWFRWbHEPYmyqOf98zYCYHl6DP06L1mfeMzH3c21xYe/8uVRz5GuM3GJz9c/97XAaB10/UH3vh2Y8euPDcHT9gzNqBuoiab6wLD0YdTN4QV420i7nZRqRxxxqnCDfXpIB0dvUx1I/Lohc6sJPTqtpr68uoYlzYGyFsAIZZkT0rdxPHoZdQNXabY5KKv5p59wpPaJ45FVL9IO2qYO49+MkgzMxbj1s0H69/7hszH2fjMx+rf/Vr75htOXvaWzh2HhNv4Vt7H1lWf4a9wiBxUKRFcm+dRoVFSRy/KjA05LOnRs8FY5gikFeOfPbmn6SN8ukx19I4DGLO1naUevcDQTzEey5QY4x7/yQw94zlFe/Ry6ob3342du4QntU8eD6du5p+jB5hELckw3XdCbF35qRP/9o9rH37PkTe+Rnhntm8ZJPR73om3/X3kAXuH7wGQc/ShMwDbPXtjLfOSVcIuGeQNFqmjFx/WATqHiJNX0tSNI6VuYIwmUxMrZRpxq0MaRXflMwFjjzFqMlG/ndDQZ9/3hhgW3WDF7EmTfhm9Vrvlddr17329ed3V/fGhOxdSZYpNS19aCf5deuqzmIMbqxJDf/xIRBx+7mvdNJvNCTQe4XTfo0/Nzc9/wn/hrJ9q33JD+RGPZjZwNtaC116307v3LrZUCHN25F+h2NC7tS3h+wBgnzh2/O1vctZOGvvP3vunr+UZw7QgbofkOMNVsKhMcVyOPkReacTl6AGgdeP1jWu+7W5v6is7Fp/89IXHPTn87AG2trYm03gk2qMfPxgbcgTXZYy10Jn1uh371AnB+3I7tba2lm3jEToCxM6KpINGb+826kfe8Fd+dzNkmtVHP371119KbU9+L4RWf+031z74Luy6S099Fk/UFM87X19c5u/Z7l23R9icua9eOSGk1M+FuVVaP/kxb+gZbH3pM2f8wZ9TZ2dVdAiAIiLN3Wf62XQAYB8/Ijty7Vtf9ieoc/iexjXfXnrar0Z/gZEgXh2TZheTt+KAozcitEC4z9GHyCsNfnvZJW188kP962rU1z70HmvPvsK5Dwy/AADo3nNn/UPvbti91ee+uHLRxZHbj4NJGPoQj951GcsudNLto4eFu09TSk+3AWFnRcJBY+6+1g0/CnpYYtuuX/0txvVmKlZWL76k/LBH4V4vqLFKbWyYZ/z+n2x86iOAcfG8B21//cr+N5BXuemfWunoUwGXMCVKh3Ps+tXfavzgOyHLKGf9FPkvuY4LwASLmgevtU8cJd9hK1shBPQvbe0dinPtE8dk11P75peC1xuf+ojsmlOAmLoh3hyHuqE4enlmLBBPa8+L8IAwrl/97YizAwDGax98l3v4HufEsVPve7ssOJkWYhh6e1yZADHP+QgHa+hF1Vd6R+4RH3iaHD3JmGuAEOVlj0fdMBkDAMAW9uH6xGqlstDK+yg+8MF7X/PGvf/z7xee8MsJLut04OgnAE4lIridTvzbP6598F2nPvCOU5e9VXYcm2hgDQBaucKdCfOafdIiA7CVrfoqFeKXtvYN0+2w6zqnqJNOHjLqhvhH1GEqUkfveUCXqdEiqJtBMm0MLrt1448il8NusxEEHrHjNA/+MPKwFDDe+tJnjrzxNWsffFcchzeaox/bs6NsIiNDdDiPvik09OIaOFP16NmCBEjeYzISrDCXz6lm1Jxc2YOYMHbuhtiq0/n36Eul0iR6j0SpbuzjR9o/u9l/3Tx4LVlSkYRDG3qByI+Wo/jo3nk7+a+wAhf5S5t79pFTJIS9mQyE9xLFmI+oo/eDsVKPXqaviLNaZ9oTCsEar4QkQPuWGzc/87HefXfXr/7W1pc/G+eSIrcZMzk2zNALPHrBCkZW1ibE0C8vL2fbeIRcpug6MNXuxqNuIoE4jz7ujqZprO6Mu/VsBWM7nU6tVrMsK8iBcl23STgOCwsLQW5Fq9UKqnGZphmYe8/zGo0hTVatVoNp1G63gwpohmGUy33dNMa4TmSjVCqVIFm02+12u12Pkcd4HgDUasSNd+/d5Ofb991toHMBQNM0MlDcPkbZ3CBd0Lbttp9LLaqXazdq/rmKxaJlWQx147perVYjf+kuBn11pzugiXrHjpQf/gvADSaD4OuQ4x8ymFvX/2D7Ex8EgMpzX1x5xKOD8ecHU7iubNfr5q5BHiDxbGt3u0XHMQwj0qNv1mrd7W0qYcoqAkCv1+v4Q8R0+nXder2OMfZCJckBWgevLZ73oEajEdQsKxQKhcGzxHGcOh11RMX+dGo2m0E9y5DJ3PzK54LX21/+nPGUZ/uvZZPZCS90M7gsbEVMZv+1ruuVynBB6f/6PcJ2a4UC+bPV104x42nXa8GcKZVKpmkCxpSh17RgFz8YSw6mP5n97+s4Tqs1PPXi4lAXQA4mOf4xLYNlWaROASNUq9VI6sZ/tpGWgRx/fjInNfTkGJLjz1gG0pj0BxPA2ncWQ/bKQD6hh8YEAOjBlE1mHtkael3XLcsi8wwRQrK8TdM0A6NDJvEzu5BJd4ZhBP+STkTILv4lsQ9M7AEAuYtDRw4NTfM/ZVL+vK116jADQ68NthdPo3bL/9S/Zo66QZZlUR59wTL37AsMfeDRhwwm+XXiDCZ2nNrl7/UtZuO/PrD4CKKvEz0ymqYJqRudHBni4g3T8r9mpI7e0DRTQ+RDwvfo+z/Z4IqHGziOZVkYYy/earp5w49WX/Ayy7KCe4McGU3TdHrZrg0MummawZYhk3nzMEVnW6bpr8PE448xDhXY+cCOo9Fn6d17l6ZrhQP3A4TIkWGcaP99cmIxHr3GxwO7HeZobm2LVNdY9z+/9/Of+q99jt40zUBMSV5AMP95kIMZ/zanLAOVp2pYlkUpLF0HaMvAVARhzoKdZL6zRhwtZPwLhQI/MtZZ92vddH2s0/ilnxACejAZ+yObzDyyNfSmaTL1DDRNk1U4ME1TqGlDCCXdBQBku/i1dLgyxZjZpUkPqOl5wgN6hHQSYNjvQtd1f9xdES3jtVsFywzWgF6XvuUcu1gokPbOsAqFfQc6t9zg/xsY+pDBBMkIyAaze/ftQaoebre8++6GBz5YuouIujGIEaMiyYWBoY/y6E1dZ2yDz9EHg+kfJHh2YtfxXRinEWs17ayf6h2+xzpwjvBTTdN0m+ZnB99CZrOY8dcXl0lCw7S7fOuJYDC9VjNOuoNPUwRnWb/8fbVvfwUAFp/8jB2/8TshhaH8XcgniUZ/C6PHzkzcbjI/NFO0snz+hYGh91oNAJC5kCEzM+ZghuzSImaXZujFYlEzzeAtn7pJYEwSevQakUkbMv7CkSlI5p4QGHsI6UDPfwbxi53kjqO3bbuXdXsgJgMCoHfPHafe+/b1j71/aOxoOsXriAQYGDMLMd5/ly0MPWJhy5wLdztsNQ9NIyW69vGjqddsYK8hPC0rMmFKWNQsSl4JrsOkszJOKEh6j8SnZZs3XBvyKaMNT5p3ZtDSC7/suAxxCHoAKjnWPnXCt/IAUPv2V2KFQ+UcPX8B5Jz0QfI2xupOc8cuYmPp2Vut1uTq0feDsfKu8VFIzNGPUTFQ5mSIkWq5m9wZ+l6vl7Wh56dC8+C1jR99v/atL6996N3+O4zQVTit3do2W9WPu3KpoSdsClM83et2WWZJ06wzh4be67Td7U3hYelzsBPFrW03rvl27967BNvSxQjDTafYAkbJK/l2PPxhmaFgM2OBUlgGFxlybyPDJOXwrYM/CrkApvxI0uxEpuCtI8ozIs4Vz9ATX6153dXDDzzP2VwX7CDfnWnQwdda8bod5iuTht7adxYpKgupVOznPEZe28ig5ZVcMDbR4xnjxGnkY8SZjZUdAmGeBOkmx+bO0E8AIVasdeN1vmlmAqTCKtX2Gnsn87VbZefyV7791/RDBXc7bMVtXWeS7nrHooU3zGHdrY3Df/Pnp/7znUfe9NetG1h75zWp2z5cQi5W3TgS1U1Q1CyyJKTrYppPEHj0FBs7kFfKf1Bz95mVRz02+Ld39L4QR5sZhKRaZo9+zAsTSocbx/ToCUeBeULHqYRDTiRGqyoUd2L6dw8x9EGlYq9ZP/Xetx/+27/Y/MInJ1Tum06YAqB9iCSqmxHKxo3j0QNCCdibVBWWp6OhD7+BnY114LgaYS4Jo60Ezi8GuQ0i0+2YYKzX67K/saYzSRlxFJaMod/+xlVB7Y7ad7/GXk8jgaGPrnVD3vCxE6aw6zAePVuPXiKkCzP0Z+4vXfgIskJhS87euA2auknoUjES7AjqJp5HT5qtLmPo4xTzoaibCI8euDQocoabe/cz3qi/zN384hWNH33fPn506wufjBtpHA980WBKR5/I0I+Qe4zGspls+ZMQzLdHHxJ5SAvhj3F/crMcvcjwOWusUop3suJRN3RYzPNYe6dpAGBRNH0MQ09fc/vmg8Frd4tlfhh6OrxFvaQEQlRmbLSO3iOfecgweO9JzMbKaVbrzP1asVS64CHBO005ezOmR88sR5xT4Rx9LEloYInc2jYTEIpTtY2mbqjgpDBIQIWOHJv0FfSlFa1MVaDynwq1bwyz/7a/8jkAyLxMEFc0mHr8e9ka+pETpnzEp+nTbRqaO0NfLBazTpgKZ+Wc9ZMg4OhFhn6d9ehFHL2EuiEkw8xDBfjniqYBgEnQ9ALqhls1kwdxNtZ6RNES/rmVgkdPUjdkrRsUl6NngrE8b8MeJEZmrD9o5YcPCxD1Dt8tPT8bjE12pzGP53DqJi5HPxjVzh0/Yz+K0ReXGhmdenAKqRsyFsVkJ+jVBZ3z6Jlp41fhzjxhSuDRCyI3sTBCPtqoCVM+rP3nxN10vj36CSB8KtinRIZeZPhsjroR9FeTUTctuUfPOdT+PDZDPXo+Z5r8CqQ7D6Kvw9z2wgfb8Fzh1M2g+2sfSerRk7ZSEImV3NLC1GIffhDb2LV7uJdty570bOJVUv0G7WKHN1ZNytF3fs4Z+qTUja6TyclC6oacGC5r6BeRZVGPilazd++d7BFiJAeMCern82eXMSpHP4JHP56hN/ecGXPLdKsgnI6GPoKjF3r08Th6UTA2mrrBAkPPePSsoXdr24wQiD8ReZDWzTdQH3XajA1K5NFHBGMZ6zbk6KOrV1LUjSXKAyCkI4Gls4+KiSyk6cauPcA9M/gB98F69AnvNI9zsUOke0lVN52BgD3kdKLdKUNPctkS6qYh20CrVAEhSnjTbHTvvoM5Qveu2yFrUF/KAIajT0K4jcLRj0fdJHhOKEM/JuJx9LRkhfNwsevy+rYROXouR5Gxs32O/kxKeNO5feDiYdy981CX9/gGh8WOHdTtCXZhvGCvkYCjFz8pA1U7kwQQJFLFaCVIe/QCQ08amiByKKuwaJyx219GMM8MoS+MbZt5P7FQjztsiC2OraN3AMDrtHuH2e+Ie53uXT/f/toXZeVogDX0dMxDtNogV3Lko0grlf2RJGl6r9XkDX3nrp/7F7z95c9tf+VzIYutkYG5CNDIRc1GKCU0pkcPMk6SQ7rtg3JXj77Vanmel2njkfCp4BMynLySNfTOxhp/q8SXV4ZTN1jE0euLy1qxFDwVTrzjzbt+79XVRz9+7aP/Uf/u14FDcM2dn/9MYINaTa04jIW4LhdK9QAAIABJREFUrLwyrF62pHrl4E2mQlwC6sYh45lsjWIAANArhKEZPCxlls46c3//EuhkSK/b4W9WNhILyYKxfHgG+k+UBeH2YYaeKCnjPz67dxziJ1vz4LUbn74cMEaafuZr/q5w1rmi09DNmKKMFPmAJ4ksvdr/FsyDtnsPS9107zy0trbWe9/bunceAoDWTT8+8y//Nvykw33vvn3jkx/Gnrf6/JcUH3CB/Co5jn7Uomaj1Iwbu+/5zpe84tR/vjN6u/nm6CfRyC10KnjNhtduRcored4GhMFYidg5nLphFhB9Rwwhsl4xAKxf/j77+BGhlQfC0Ldogp75FHxyPEazIXJ70ZtBdXimYVYijj7C0GsVMmenAQC415UJGc2BoWcLN4ocbb61WyJ5pVADI7T+AAAYh9QoJtut+JaofegWfrOgSxH23M1PXy4+D0vdRBl6mUdf7RfSIsffPnofn7jXvet298TR7qBQaOf2n4XLTIlzeyff85bO7T/r3nno5Hv+NSRLgE+YohoVZEndIE0f39BXHv24wtnnArB9yRkojn5cRK6JnLWTXFmCLnPbCw29QEcvWT3Q1A3n0XcEHD0ALDzhKdRBWs3at74sPD4QXnk7ytDzAbSI9PrQMsVMzWcUW0cPrkuaYE20wtUIj95tNsEXIEmcgyCqweYKCQsQ8cHJZB690NCLqRuv2wkxMYgy9E7v6GFSwihE+6c/EV8VY+ijnrUy1U3g0ZPCG+FJvU7bpR9LcTJ4AcA+cTRouunWayzZSJ0jVF6ZjLqRbqwvLoneTcFgIsPc+1dv2PfXbzrw9/8W9uhN1dDnjrqZACIf4/baCSGdgirDZTivrQQA8DzsuSSLJ0+YIuSVUcHYwFZWf/FJoBun3vf24COmtD1/EPvU8aANIf3pkJzhWQtxbZ/+5Uqyxsl+T9TVx82MxZ4T0jDWh15mqRsZQQ8A5kBsgwyDLHuZiUcvOqZM6h6+YCLrCTd++L31j38g/mWwCO+jzW9OrFxJcinoP0wFYyX98ByOz4kDZkwcLu08AF2PngvGpkTdmLv2uDW2jvT4BH0fmuZnTiGrwPK0wbWlytHnzqMvFoshFRnTQdQICrvqMLQ1r630wazWpdRNq9G3Oxjz5kCoo/dRffTjyMVjl9O3MQdp03ob4lPiluacWdztyuYZ36Sl//5QXin26GMEYz3SBRbKK0mP3qduyAqLTLXIIdOFEOnUiz167mmXTL/BFYMEOXUTbuhJj75791gilvGom+GAaEOOPkbwjH70yjRODJhJ2G+ojXHz+ms2P/dfvfvuJj4jJpjvYo9K3YSwuKQklzhdyrmcKKT85Hxz9Lquyyp/poXIxR2vcACOzeDTYvsHZyw76TKQ7B7G/t3u9bqCXCeGoyf9CIRi3WwDh0tI0EOoYrp/gTKnXvYACAoSeBJ5ZYxgrBclr6SpmwZgbBOR2PLDH1V97BP916vP/03SYpKMv9DQM/UPABJSNyKPXkrdxDb0JIyV1erFl0gvQGSzqGdVLENPMIoER69XBR69DEycOWbrXWYvfxla+/ZXT1721q0rP3X0H14bcP1UwpSgqFk61I2xupOvX4bSTgQT8pM+0uXoT0vqJtKjFxr6eEtLLC8DqS8uk8Err9XUyhWhv8PeGzQzqFcqAomI6CC41+0culX26fC1uOxJS6sIFCNSTz94X0bdiKwMMq1gxDDD0Qs9evIh53lep90lPHpr39mLT7p06anPQqZp7t5L7VgoBtcttL+JPXqMseMEdQWELI0Xx6MnNTYAIPHykKbv+v0/la3PAMCtbXXv/Pn2Vz+vL63seMkrjJUdAHRzcF2PXFRRHn0UdUOi+IALeKV//5hjGPr1j73P/xe7bu3rX9zxkt8DoF1dnZNXpkTd6JWqVuJutLQNPVNSlMJ8UzcTQORUEAdaSZmKYwu9YOANPXGnGUsr5Ec+KSymEZjMWJoZJL3aEOBOu3PHIXKFoS+vEqeI8uhl96fMY4qiboTBWLJSG1O9UszR09/dPnaYvBWt/WcBQtb+sxkrzxyNj36DiKMPWTt377r9vte++p6/eMXmZz/mvyPx6MWsBTn4pMi1f6nc0sfcvXfPn722eP/zhUokH51Dt556379177mzddP1ax96T/8CGB19ZDA2mHgYkwOiiYKxxBWj0gUPlR8zlqFnZEj2yePMSrd+9bf7l0ZQN4ivR+84ndtuqX//m3FydEMMvVapCr5sWhz9ACGa+jlX3di2bceovzoWktcmBbqwX5j2S87RM3H83pF77VMn+EI3wN8btKIrZklrr90iFxBaZaFwzv2Hn7ZI1U1ENjwJqUc/pG7EOnphc3Dy4RenBALzkGvT6xVr7wGQgOToxR49H6iQuVSed/K9b3M21rBtb131GT9zzUvE0RODr5XKzKfME1FfXNr/t/9cfOCDYdBEV4hT//nOgNNo33pj/92E1A22bX/Geq0muc4YUjciJ8Pae8AgepIwGM2jx3aPCYMNn1JUhFkHoKZW966fH/vXv1v70LsPv/4vI9O1QvoIauUK/2VTp25COfq5pm56vR7GONMCeCMUoQbaww1ZE4RQN8i0tHIl4PrXPvguAOB9T2ACv5rGGHo9nkfvtVvkPaZXKqRNifToRzb0HHUz8OhFNwkZPsWuQ5dAEFI31EOuc2hIF4R3dSCPJuHouUGQePTt224h13zN664unvcgoUc/5HMG/T/775MefbkCdFlKpsxk6fyHDOkvuUfP+L/YdZGuY5a6iXZIvXZTN5eZ0dBECVMBCmffP+B2BAcMrZsUgK8JwXBBwVOK6nagsWWKhwfc3modvDaI2QgR7tHzX3asYvTCs4R59HOdGTsBJG0H7MMlDZ/8UeExPaeImYRMgzT0PuwTRwUHIYRrvKIrZjAWuy7pJWmlskaUBe0LKDHGdk/I0UsdMVlFsHared019e9+jeExh/YdIWQY5JNPK5UpjyZGCQSk62R6MBmBsPafJb5g7mhioxybo29c8y3y3+bBH+34jd8Vyitxr1f7xlWbn/04KpV3/fYfBvwGGejmPXrmvMXzLyS+RazseQDAnTaqVFnqJgbz4LVa+uIyY3YJjl7k0Z99rr4gUp37B4xJ3XB1mzu30WligTXnGo/IKCk7tFI0RHL0k6BuJsTRn46GfjTqxhvfozdMvVIVBgDCwOVoxOTogc5V0YolrUR0CGq32j/9ycnL3oI7bAM5H7KcKdl6qH3bzeK+E4TdRzpl6PXqIh1Gs8nRE3L0AKCVKx5Rxid439oXZuhJX1gYABfo6EV3mtduNQ9SrUvc7c3u3XcI6SD75PGtqz4NGEO3s/ahdx9449t93zyco+/dQxWQKT1oWEw/ZpkUAPA6ba1Uptx8uqiZdMd2E2giC+l68JgUcvSFs88NUmdFBxzRo2dzpgazlObo/WCs2P76TYTCIL+RtXJFr/AeferUjdyjl+iYR0PuOHpN0zItZg2jUjek4Qs5AmfoCZfBMOPb6AC8FyYOiIngEoYelcqk8+i2Whuf+E+v1ZStEBNTN7ICXmRHHtrz0qoLJJnApolJ7gHZGJqhhj5CR+95ggeb6Js2r7uGj9A0D14rNPTtmw8GptbZWOsd7ednUIae8+h1OmhP0t+JDD0jBEKGIaRutHKFopVaLaAZc626OOSO6ErFAIA03dp3lr4gLukDo3L0AMDUV/DVtMBwGhrL0VO7RCXlhnhsWrkyCY8+THUz14a+VCqVy+zUjw93a2PtQ+8++R9vjVnSLz7ievRM/I3y6I2YrAsF7rE3hkdPcPStJtmKhIebkLqRAWlDI8KGGasLpIvEWAQZTSELUYzj0XttQe144SOwfs23+TdbB68VZ8bSuaOd22/rvx8ajK3+4pOC14u/9HTSCsenbrxOe/trXyTf0cpVIcWBDJP2ABpARyyC+gcAwFQqBgBz3wFkmsgw+aVJ/0piGHrc7Qp6ObAH8voyf6bIvry6RlBTQXpeCXWDCgVkmPzdmlpm7ACanLpRzcHDcPKyt9a//83mddcc+5e/k/2KoxShZgw97dFT/K/co0eGETOOSoKPYSYw9MTSVWM8eq4cFQN5ZnbC0UMkdUPrRKsLpLKbaZXHW8D++6KvjzTdPCOspQPl0XPetyBbCgSPNPv4sFwX9f6p43FSWLuDytJsMJZG9eJLyg97FGha8bwHLT/r18mP4nv0vfvu3v7SZ4N/zd1nWmfuE6cyGAbV9dvP42sIRPSDC6bGvzBogiqLx8Yx9DGr8/teP45v6DfXmee31+1sfu6/1i9/n33sMMhNgb9o1jjqJpVaNyTCflDF0cvgNuqdOwZOU7PevvmG8iMeLdpOOoKl8y9s3yaoFAjMfKXnByqWYOAk4h4TjKU4+vB6dWKMGowF+qnDePSRSErdSEFy9Abr0ZPuKrl4R1bBWN0pPp7o6xu7zwwXiVOVwniPXiQw5YXMZBACGSZoWsDYUDn6EnSEhr5URppOum9asbT7j/47eB4gxCprJXELHusfez/5744X/Q4gJEyYQrqOyILVAuqGomU0esFtDcojawtLIOqe6HVa4Hn2+kl9cVl2/TGr87v1mrlnH3DUjeynx7btNurtn/7EOXmscvEl5q7dp97/760bfgQAzYM/3P+3/yIz9P4c07P36Cemo58vQ097qbKFm9QnRWjxyc+QGnqSo6fnh1YqB6fGTkgw1pAFGEPAe2EjLAsAQCslNPSyApZJqRvSVLHUzaKsepq174CsHqzw6zNdWXiQJel7Rw8fe/Pr9MWV1Re+zH+cCLKlQPBNna2N4HXxvPO1UqV58Ifh56V231x3NtaM1Z20oS+BrguknKJIVXyPnkTlkY8pXfhwkAUtdZ0qVdZqNg9e2/jhd4ef04FWJhGpcPbAo6+KaXrc7R5501/37rtbX1re88ev8btje512/TtfRbqx8MSnItNK5tGT8sp+rRupHVu//L3NH/8QALa+8vkDf/fW9k0/7h+qtl375pdki35/1Sjg6NOXV05IR5876qbdbjeboTVy5WALokp+FZmh1wrF0sMuonI1CTAF3KkdCdkimzBFUTdm/DgqcXSOuhnhIKN49OLahOx3j3x0yT16hrohYe0/W3o8kaEPSs/LwJjIzh2Hmgd/uHHFR/x/hQJTfu1CGejqQvmRovViKPrZVYxHH9t8hOno5Vh94cv7uwupG90gJ0bt6188+e5/ITdgLDiTx2Tt6/9SIVJ6f7njbm/1wwYYH/uX12986qPrn/jgiXf9M0DcDrp9x9+N69EDgG/lAQD3uhuf/ii5cqp980tS6kZi6NHYxejZA562HL3neSP3HnEJhwtCTJVER4+sAtL0hcf/svjC2q1hnVuHykOhknFCOfqRVDfpGHpGdRMJWTdBKgihaUzBSAE0KUevLyzKbFxgPgTH45lTopmUdC/RA6n905v8F0KPnr/TyFWOVqqUzn8IJET3jtuYPo5aqVx93C8Ntwg1JSH5NTKYu88MSDBxMFY3SP+Df7xptAUvnvcgavdBeleIlD6Av1Do3ntX7967/Hfat9zobm/KCoow8OrbzBUirh592Nl/8B3yX7dRd+tsIWIfWp+j5+7W9KtXhnD0c+3RjwNnkzb0sspfUo++AAALj3+yeC/PGwbxyCMYhkZ2rA7T0RuJTO3gsti5hQwjPlc7PEyxrCWRMzkba8x44l73xDvefOIdbx5eia7LFkDDbQjLxVJelQWpoZdnP/HMKQCYe6M8etGIea2+2EY8VXiPnjD0eqVCruRiwl4/RXoMAKCVKstPf27w8N718leF7Y9QmCBPhMLZw7oXYjsVNS0Zj37xSU8LXpOxYk3u0TOwj1PN3J3tzbgcvc/wUAlTBoSLFEPB5mQN4JeEE3j0E0yYmnOPfhwwHr207phkveY/XY0du8QhXEKIwrQ+IHPWGZE19a9hynjMEAhN4QgrA61U8uOHMbfHrrv9pU+T7zR+dDWTEoV0I9qP06QCSj2EupFrJQXfXdPMM/ZEXIWE9PAfzELVjYC6oT16ZFpJG8t5jQajudRKZX1pef/r3rzzN3/vzL94HamtFCK+wtIHWeAIaeJgbPgakfmJK498zPKzX2AdOGfhkqcsXfrs4Wbx5zaiJiHudEjqLOSpI+PoURoVU6z9Z/v3mlYqVy5+AgBoVoG17KmXKTblv+Z8B2MLsnmMcesnP3a3NsoXPVY2pViPXmboJeHEwOnb+dJXbpiWfeJY6SGP2LryU8EGbqvlF4BkQ6ykR8/o6F1KdWPu2Wfu2hOZmU1BNLe0cgWiNMLsLsUSACDTlGY2ASw+5VecUycCa17/3jeWnv7cYOG/9YVPsjvour40lqEXPsaMHbtC7nbe0Ju79kTKmWRhcK/T1q1CuEePXRc8D5kmZejLFUAIWVbIeAoO2aix6QKlMgDoy6sLT7w0zhGQVQAQT2y+wAYAWFEePTIMMmWaPWalWrjfA+i3tJVnv2Dl2S9gtoxD3fhgBAtus0EGYyuPfrx9/IiwvLaUox/VoydRfuhFlVf8ce/wPcUHPNhYWQUAQEirVCgx2AQbj8x5rRtZ15GtKz+9+fn/AgDjqk/v/z//KuS2WI9eVqc0lLoBAH1hcdfvvRoAvG6HNPSezKO34lE3pgEI7fnz/7V11ae799wZ0JThENYCG8mjLwMAMsSGydp7wDpwzsqzft1ZPxUYeuy6W1d+audv/YH/L9/8E+m6vhBJ3RCGnnFmyxXhtwtPfeJVN1YUbwPyoLHXbuuLyyEcfefQrScve4tbry3+8jNp/XsZADSr4CYx9H7reerCEvI//BOreP6FWqFYfuhF9vEj21+/kvpM0woHhtEOuepG/FgtXfDQ1Re8LKa/HBKMZeDRaguvUadr3y8sPuFlR/7+f/I7Djx6TkefhqFHhmntPcAUQNXK1RClaQonDat1c1py9L6VBwBnc6M10Eg1rv3ekTf81fG3v8k+dQJo9RtwFa4DSD167uGhWQXaIR1M0BCPPiQYqxsAYKzu3PnSV57xyj8TXoMAIlqQCYjFOszAoxcc7YEP3ve6N+/63f+mlSvWgXMqj3xM8FHjB98JHgz8viiOR0/31WI/ElE31gFpJBZEzGmk5AZCPXoIVd1sfOoj/q1e+8ZV5IPK94KT6h29dosqI6PpSY0UT92sPOdFu//ovy9c8hR+GWTtPUC12RIGYzUxdYOswp4/+evwhy6JBIa+RT1W3Wad6WZlnXU/IYXV34y0gFpq1I1wcEoXEIWGTKv62AhiLfFJJ1W9cjYMPeMEtW66DgCcjbVT7//33uF72rfcuH75e3G3y6xbZR69NEuCZ40QEpb2pXQ7IRw9xkzC1HCn2C650Atbeuqzqo95grlr99Klzy4/5JGxjlMsAYAmuiUYb3fpGc8LXmPHCRx5QW8/3YhQ3URxmsJvFyK5AQBkWsw9aUaJ6AFAq1SYfgA+vE4bMA6q0NCfuYBx9+47BB8NnjcjCNttIqtIK5eTsvwCd2RAvCDO0JMEPcjklXRmbABjdUeia4vr7WLM3Kdes8F3s9rxgpcVzjmP2dVt1MHzaI/eD8ZmZehXfvVF1V98UuHcBy488dJ9r31T8f4PHP9EJMJkVPNN3TiOAxyB49AZd9rCEgDUv/v1wENs33oTTyz0myfwtkZC3YiblJbKQYZIUKKEom7kHj2zdCBnklYqA0J8fRUBhNRNqbzrFX/sv2ZUz0IgqzBY5IoMPc0emHRb5L4b63m84BLputB6DjeIDF6JDX2EF8k8qiO1lQCANH3leS9Zv/x97JKr3dr+6ueFPwR23ZDOFX0FXnJhO9mEcgQVFn9GfUC88NVmKMkNiBOLGB19AFlmsgx+uRuGneOBez2Xpm7crU1qqVRdBACtUt37P17v1rfttVPH3vy6wc6Y0eeg9Dx6EIV5tEp112//YQoHlyCUo59r6qbb7Xa4pks2Y+hLZeBKowgavWLsitI75cFYUacLyqPvHy0kGEu2CWXy7qjpyBWHAgmPPJqtZI88MAHIEPUjLVAGAhWpy/CNnduo8TIApOsRHj3tEvIWXFClBKGQdkVCCJu38Fh43C+d9Q//fvZb3k8+nJzN9c0vXCHewXVD2tGN4dEPE454HzwSIR69wNDH8OhB6tEnM/QQLx7r2T3Go+/RLRmGFJCm6Usr/bjoAM42Rc/269Fr+vjCx5hi/HQRNn/m29ALwchU+gVG6Fnbvevn/I4S7lVC3QhbGgmpGzoYq0mCsYzjyShDeD24Lry1omZwnCLjgc8u9CAYjx5pOkVGddoA4G6JiqBFyivpp9TK818SvN71ileDyPToi0tJb7n4Dp1WWdCKJdIgtn92M1lhmFybY9d15U3Y/YkxQgYTuTwdwaNnTAPS9OA3ZX9HwzCZ3orizFhd7NGvJDb0caT0uNdlOHr7GCWrZyouMNS/u71F/jvsSDy2Uz8dQy+P0IxWZFeG2TD0DHXjF6Vi0pGFXKrwRpXq6IUePVUGZBAqII+g61KOnqmkoTMFAFhDb6zu4C8gUp4cy9AHHr2Yo2c9QdIU+stqR1TtEuk6Ms0Qa4VoxXT5IY8845V/tvCEX971u/+t+ujHAQhMTxz7IquIGxNacXjBTEEkMj4BnusJq1oCoMKACktO3dipUjcky8+szMwz9rC142XUTaHI0/HC2RiOOPFY3OsxqhuGTGO4fmRa5CC7NTqXdeAGpWHoM2xfKj1pyHJ8voOxCCG+oARD3Xgdn0ygjHj3LkGdWLGUXvKoFHZejvboQzh6xqM3aUPPxWONVQFlYew6Q3i1Q8ShbgbfQjibtSL7xUmNiif36P2fIIy94XinyqMeu/O3/qB68SW+ZeFNTxz7svKcFwWvd770lZHbM0CE50tWcjZWVskbL8SjD2oGjFJljEqLHcGjp34sUgLPxlo4RkvstOq6kEgcibqJYejtnpBQ9aGVK7ztIx0RhvYJNh5fYTkVjz4E2BuxEowQ+fpuACDsOsJ49H3WmGkbL3oANn/8w96Re0sPfhgZwZdRN0LvjCwDElTGoGvdSBOmklI3wlvL2BFh6OMkcaBQjx5xUm7SZcadDkg8er8tor64JOx8CwBMDqTgc4FHH23oFy55in3yeOfQraULHx6ZSsqDWq806ZxM+sEjK7Y1pMU5Q4+sAnheSDNS+jhpePTBa3qhY+7hDL2IBvQNHCk68KGP4NHLGwoG8LodWRklkKxftUIxuLfZjDB9tj36MMy36oYHtm1GIO9TNzKZPAm/iNLmFz55xiv/LJCHy8gvoYKCNL7O+ils97a/dmXtm18K3kSGNGGKDcbSM4nx6JEm1qSbOxMbevPM/X5fheG5Ao9e5PjEoW5CGpWEePRkeykxOJc/jiOJTGvHi383cjPpOSXMj1ZiE7hYoiDYcujRs+OpFQrYdbMz9MwagvTE9cWloe4FIUF5PglHzxzHh7GcCXXj1rdDwozCI5DqAOYhgbT59ehPN47eWT/JtonpCDz6MHje2gfeYR/ve53htW4YkAoQd3N983P/tfnZj1Fb6AZpwf10+cGJaEPP9FdiDH2xqFcE7owRZeh5zRwvbong6DmPnrq1uvJgbH93ubWK9ujZix/BkUwKWTKqVmYrBkcbek4ohaxCfM1lCh49cQRkmCu/+kKfE1u69Nn8zJFkxhoAoNNXoi8ujeAjxwnGupthrc2ETcap7mAtuoGBHgRjx06OzZmhn/NaNzxsrm0N7nawY0cqdkl43c6Jd/3T3te8USuWpDp6kbqRNPTYdbe/+gV2L9qjBwBs2z4LxHH0YdSNVijyrD3SdWN5FULB373W/rOb111NHTyUo0e8R1+IRd2Uzr8QIDQrKnnCVBzqZkyQwVjq/VKF0Ti5tS3JlgPpOufRI6vAL7r1pWVGLsIcJz6YWcp44otP+ZXKLzwOO7ZYoioJxvLHGYGgh3jUDbM6Z48wukef4LGkFYpaucJk3uSNuplzj77dbrfoh7bDGXqv03brsQpYk7CPH1370HsghLqJ8uiFQHSZYiBK0jOVLDnqhrq1UKHIN8kzVneOkly6upNt8ZHQoyfDsyHB2MUnPwNC+ZkRkgBGMzGJgKTUTWyPvhJQN6xzoBUK/NJQpvRPgbrhjqAvLcsmraQevV+ykTb0ybWVEGf1GdWsWKjWJT16ps4oGomj16oL/BBNi7qR8l14rnX0nud59JqF9+i9bteTdAwIR/P6a3qH70kmryyVw8V8TFEzIGh6Spyj6YyCjSFqtEJB51pqxLlzeDcNmRbTKTtCR899QURx9B3suWSLhpXnvGjlV1+4509f69dzDktkjX5KcdRN7CKIIyOEumEePI7Uox8EY7k5g6wC7+anaOhDqJtIyEogALCdYEfQVgKAecae8kMv8l+XLniocJtwj17YV4A09M4G00F+8MRNQt3o1QUBrzUlQ7/zpa/0LYNWrvgdH32k69HPAHVDpoz7wN1OzCaTPLp3HgJZrRuhVA4hY8eu3pF7pUc0DMZVHzry5IlMdqgZogZjLAiIxTD0/ATFum7u2UvWb0GhmbG8oSc9etxte/UaGSYpP+xRZKu/ymOesHHFR4RMWnTrNd70pN2tjUdoMJa6Hk/i0evhwViHC49zApjBGcdOmEpCOMiqVwLv0Y+6rtr9h3957OpvL63uKOw/697/IWii4oYaeqHTQLJVJANGSux5j95Y3SnrGi3x6KdD3ZQf8ei9f/WG3tF7Sw966PZXPt+GG/sfnG4cPb98xo7tyGOD1t4D4hpVAADQuf02WVk4WYHDcEMf5tFzpStJsIy84yDTQqZF6nbMnbshCvzdiwyDcSEJ1Y2Io+d09JRyudNhRltfWqE3Lp75///N9lc+r1Uq9trJ9s03EJ8l452iGxOmAZl55T162VQhVDd8MLYIqMe8ae4+E0QYyaOnzpisQnoIR0+vckYPiWuacf5Dijt2IEkkLMSjR7puyDEhAAAZhElEQVQuXPrweR4+SC0m79GbZ+6TGXq9upgfQw8AhXPu3y9WQaZxzHfClGVZTO8RobrGWT/Jv+mDb9lM3k5Bm1AesnR2Y2cYTc8kTAEhpSc5en4aMUSNz/OwK+jQUw8OxPmPhSLjkQXWQVBq2LR4eTXD0ZO8KtJ0XuxsHThn1++9eseLX8F2ekqouolsTJgK5B593D7dIcFYCUefmqFnDx4jL3q4r1xeyfCZo3H0PqrVKkJIZjdD+rSYe/aJr1DigZEiH+YeRKYVkoCiVRd41TIyUm4qMgKomNZ817oxTdMkjRHGwga+zimxoUdWoXTBw5g3qxdfErwOEWXKKskJE1aHe+mcoRdy9BzBwiyW/TuNaVwemS0FQuFKschyPnJxgtBdYjh6crmtLy2HsCuMlCipjn7ahl6QlineciivFHL0LI0uW6mM0kOYOV0Sj15MQ/tv0grm0Th6H6VSCSE0AgVH8oEkZE1jaI+eVjoUiyHyLV1E3QirV04Y1K8536obBl63w2hXfNhrYkNfvN95vLEoxKgijayCbGqGC2+QYSCdCrQGF0y3l+KmEW3j+oaerrxvRtY/EJFCSDeK5z0oiOZrpXLhrHMGV8t5oCKtIZUZ222T2kp9eYXffrgjw0clzIw1JkLd8JnAPrRyObKE3GBLaQkEVCgw1l+vLmhWQeOSJBBdJSkmjB27hrEcTSs//BcS7CzMjNUNAChfNOw2oy+tTCAkzkMW1Zc9mElDr7GGvhTyrNKrC/oKq1rOhbxSI6mbufboGcgccEdm6B9wAaNmMXftZgqsCxGS5GKGKywNAxASlrsJp25YeC5wxBwvuBRAxNEj09z58lcZO3YZqzt3vvxVweUJqBuRR0/6UNhxnLWh1IEh6NkdGUMfydHTPqYR1eM7Fch19LGpm7K0BIJmFZmloVZZAISWn/Fc2UESARnGynN/w2fblp/5vPB+AOy+curG3LVn8Sm/AgDIKqy+4LdSCYlXLro40fYyQy+lbqpy6qZYCvHoteoCT1dGS4EnAIq6mWvVjeu6AKDrOrZ7uCeVUcoyWQoPuIBZDpcufLi5K9p8hFSnivDoB10rg2q3QUl6piQOv2/x/ud37rjNf736ay8VHT36fuPvXg8hACg/9KJA6zbcWEDdCNwlRmlunzwWvDZCPXq+gE84kFWw9u7vHT3sX9viJU9JtPtoCKFuIp9M/S1DMmMLBQ0oGsR3PJcufbZWLK595D+G70elwsmw+KSnVS56LGAvaexaVr3Sf7HjhS9ffsbzkC7uLBgfvV7PNE2E0PKzX9g7cq994lj0PgAAYO2XePQjUDeFIu+zD3cUpaBPQO4VCfJhg+e7Z+zmN646/L//9J4//Z27X/3yE+/85wR1DgAAoHi/8wCh0oP6nR6RYSw97TlapRo5d0M8eq1ckU01CEQLFlmpWKS64eSVALD8nBf5R7b2n11+5GMAYPX5vxl8SoYWQsDfvba87J3GiROEVo8h7sl7NcKjp2svY3mHpgA7f/uPCmeda56xZ9dv/xHPb2SBPtvGQSuV49R8BoSGwW0+GGtZbE7TYJWzcMlT9/z5/w6m4uITL0144UPoC4ujKJTk8srgsGNaeQDY3t7GGAOAtXf//v/zr/d7x0eXnvqsyL20ckX2jWS1oMlUI4aTRKEcfb+JlfymnhrIdcZ8yyux43gDUZRbrwkjsTJUHvkY/x7b+fJXrX/s/W5te+npv+rrT8wz9siaf/oQ9hEcfIaMHbtkkk2ffCDnmddq2ieOmmecSdVaEFE3pfMv3P/6tzib69b+s3xup/rYJ9av/qZ94pi+sLh06bPDvm0A3jbJ+YeYHj3zJlkyMBF1wzT7FaJw9rl7//rvIzdLEwihYhnTJYiRaSLTjKNp08qVwPsTVK8sFBEWePQ+SudfeOANb2vddL2xa0/qDUgjEZIwlSE0LU42k7Fjl8ynlq7Awjz6EjLMlee+2K9MhUyT5FH9X0RfWvZOUh2Npg6Umbwyd4ae/PHc+nYcj37xl57WO3rYWNmx+mt9d9hY3bn7j/47uY2xc3eEoQ8tRGXu3ivV5vvtiQnPbuOKD29c8eHC/c6zDtxveHzJ7aQvLZPRY31ped9r/8E+cYyKuYVCqKOXbszdcsJ6ADJWFBJSN147QT2iSUIrlTza0PuMH4qKHgdb9oEQY0SQVdBoX4zppKGVK9XHPnGkqx4bCCFNZyxIMiX+aKeNUbU/ZF7JZiPJwLBxkWIRAJaf+bzywy7yOh1jZfW+177aVxbpi0u+oV988jPWP/6B/tmzr7AUC6cPR0/WRfJazfA8Oh8LT7zUYlqmcWD13RzCe8ItPOnS1k3XCZOS+x49Z0C7d93eOzxMs4rFCfhbWgXrwDkxNwbRjarJA78x5ZUhq9oIj54OkMSs1jt5CJKBfbWryBQyYCWkpkUaeq1Q8OjdI3uETRS6zlqQtD16Ph2azzbgocuV+1KOnqJuqIkduC9BgHf5Gc/b+tJnkGGs/vpv+fZ04QlP2f76lb6sY+npbKh8KtAXl8z9Z3sAhmnFUdzFR7aG3rbtdrttGEYgjfc8r0tkTBSLxWBa9Ho913WZEj89up+k+CxmwW23dV23iPnUJnzJQqEQKbxBlkXuYlmWPjCgjuPA2fff8Zevt++7q3C/B5x8419RZ/e8druNRXcLmeMaWNhutxsU8zFN0xjs6Lpuj2haUiIkgLJd/MHscRUdiqWSP5j+v+T48zxPIEEhd9F1XSsUPRHDrhEyD9u2ncHZ++PPBTPb7XahUNAG7zuOYw/MoqZpZHJcp9PBA9KDGf9gF4RQkXgykbvIBpPZpT+YvFqmXO5PAF0Ld6aCpDZ//DFQdg1ZBUQ7BJgQ+WCMO53hqJLzXzCYAzCTORhMchdmMGWTGek6ph++gQsiG//owQQAYvx37tzpui55AbIMFRLVS55C7kLOf0eyzEKVhWAXm6bLsGEGH/mDufLc31h66rOwpvUABR+d+dp/6N5yg7G6s3DuA0cY/9Qns/6Qi3Y85CL4f+2dX6wc113Hzznzb//v3t1r+/7x9U2cpHVStw00QWnrNgTXaRyTBDuui5wmAlo/8MC/BwQVAYFAoQiRJ1SBBBIg9aFIiCd44S1SH6pKPBVUKiEkpFaNSOxr3z+7e3dnhofZO549Z2Z2dmfO7tmz38/T9XpndubMme/85nd+f6adzIRwm4jIFXrXdQeDAYsuJfv+IGL+RA86+LI3bmod/yixmMEISl3Ldsdj7blfsW3bFIWe0miSCLXs4XAYVY3wvzzPGwwGpHPK7JwijBHGouskrk8Gg4E/sYX3icUxHA6jehp7zJxN5Lpu9H4OL2ewiRu39BoMZri3h6cjGPuhRT86zfCASyUiCD01TRrJ84pu4vu+HXc/DwYDy7LCORA9MMMwovfGYDAIx980zXBwor/Cxh8kw+EwnOjRwYxuwt0bo/EXE51K5dEmzCAk7UUkzHTjptnof50Sn+oSTUoY38RxnPBaR0cmijiZY0+Tu8mTJnNMCbyIBoWDmX38s0zmJNdN45Vb+//yT77n1j932draOYz0ko0+Ar0gT8XnJzqtVAZHIwl2uYeBZcdcmmrN9/1BpPCtXa1Wn/mMeJrcZI7uSsXJfLK3hQl9qVRqNMZ7uhsG90lIuVwul8t+pRKtq+IlNO0MYZVao8Uv1lNK+V8RXDfW6c1oAzxqWfV6/Cu2bdvRq85sJ1rAq9JolBuNbqWS7qQI/eZVoURlgGmaSSMT216RnAzmcaMhLlgHgxmziShwJ18rlUrROcRKZbGEutFoGZHJ5DiOM6nJBndSKZtkHP8oNaHBegCfXx0hGP9+rcHVozEqteBQ7xlGerPO8OUsGP97dCyaktoOHX/HKkUydxhjSVeZG/+HOxQn8wkzDGaMR/5E+mceTBFuMh8mXL721ddan7vsH/eDRO5EZahUmFPiquaxas0wrUZjdGC9ZjO6mmcJyhMw22AWOP4yJnMWlAuvpKY5VYBXlu5lhBCj3uSWWzmvffYcRe49dFTOe1JcgcS8u6mS4EUfvdB1JOXzmUO/VUNcgg4dMjkXJ5njcBN4PpXaMiIu1M9jMTa2gWWpTJlhNJqZSrQKesqtfPAJU9kynFcH5YS+1+uJjZYCYkunZhR6QimXNiUIfdZ61vyUMk1CSFKdvIdIC2Ljl3kp7SfXjRKfN0nF2WMzZs3UldglIqbXSuiQmRx4k2bxU9uxTm+Ey+nlCxezTtG5MFWM1mzcv3+faykRG+kwlT0nrsdy3az4+9dQTtky4nne/fuzNNtIR7nhcF2XJmTNxPjZpymcza3HmuOtOaYR+vH1fcMkhNg78fWYHn5NXrQyd+tS6qWkWggREWIfwYDY4OX0QjcBpaC/ICGEEPvcoynfXCBxUTcn/rGJybGpnp2gaNLmb/3+2mtfbt+4feZXfzvt2/NHFPqiLfpoTMHoJ2Lb3Uwj9DFvYJxFP67sc3hNkUTswk9+lBN6QghNCEeLjZxxMkuJmWrRT/S9hMRa9KXHn5ywlTTXDfcImdzrY5ykYt+xn6fHVgZ0vvTW6GQZa7/2i1MdzNwQy92kuG64ejL8G+f4IuFJw6Zq6+r15ouvpudnzJ+YMN9pCh3P+KOxrpu8Fv24SnBXQf5JLRcqDgdLEPpYX152mzGq7Kxa41u2zir0gU+m8vSzzS9cO/z375IEN468Vqi8ME0r9AmVcmMt/fRsqQD77O7229/o/uD7zu5jzqOPT3UwcyPNdSNY9PbWjn/qTO+/fxj8s/FzV2UfnkRiLHr5Qh/nujESPLSxxAj9uEPMPLXBqjXv8IAQQg2j8olPTX+YOqOcRW/bthVnNrJyJaYUEaXZc4sqn3wmNKtrz3yay4HMvhjL4lw31DTbN9/ceecvN37j92K3Smomlx9R6JPW6GNJykaJteitje0s+7Q2ths/+0VlVZ6kLsYyQfisrbPtW79kbWyzSrV94/bE5DuViStqXbCXo1KpcK+V+X30YnIsVxaJGkb79TeoaRJKW6/cSlrnUx/GWFKUXR6Us+gty7LjzEaj3hAvtnV6M71zN7eHrd/54wfv/ZvZPtX8wrXBT8ZSsbLkdIy+Gee6CUmaYbY0oRdevWlKOK1IbAkEEuujp9TenpCBvCyk+OiZ8Ji0N3ec3fNn//Av5nFkkol5/yu6PK8Y88cqVWqaXBOr6Vw3gtkhLnHXP/NC9aefI76fv53LAqGUyhB65Sx6khBIY9Sb4sV2dqdb67N3Hll/407r6i9Qy+KmXXYfOi/0XNfTSMWrhx/W6vLqMuZ03SQZdOIDwDqzmd3BpTgprhtxQKytsym7Wi4vAXd28/FlU8tqPP8i92GmXgvhHkSLPs7By0rlpVZ5eago9Cyuuw2rN0QnQ7Rq2LRE6xOQ6Sz68UcCd6swJk61jB6PGeGFvpi9xox2Qqe3ZURcjDVCM0oIwbY304S+de1GGLUd31RAKcanq/TSlSe0b77ZvnE7aoVMDFSLMnkxFqSinOvG8zwa5/0w6k3xqe7snp/9lzg3YmYXEJ8wJdwqRrUeretLZDroCeELLlLKPM9jud/HxQHRSugFi54mhFcarXa6k8E6tbH1u39y8L3vWJtn659+vtDDLB7+fUVCGGJQ9EL4Ydp88VXnkcc//PbfDd7/ce2558tP8b2dUxDvfS6OXht833dddyrvaxaUE/put+saMV4Uo9EQXTdTVXnkcB77CKvWgxILRrOVpa9sADfnxJdfVq2R/xv7xDojUei5J5bv+/1+P7b+wXR7FUdbI6HnHVOMhQuG3nignp3qtxl959yjbVUzBjj4YFwJrpu9vb1OpxNrapQ+8tT2239GfH/ahYGYNRVNLXrP8/b29tbXCw7SU9F1Q6txbu56Uwz4y+OPo8w4/bVft7d27K2dU7/ya9lzppsvvBT+bW1siYfKhJoVcl03/M8Xc03FW8vRSOjZeC94Vn445bj6dOl+m+WD99HPPbFopuVfrgEcNS0V+0MpjHIWPSGEMsOo1tyDsXJmRr3BXewsJTLSKT/58e0/+PNptzLXT7eu3dj7139m5Ur75pviF8QwUKmuG0nEeEV1qX9ACCGUslI5bIBlROIcuCbRli6BRgF0QT76nHDvl6xWV6HF6xKh6GVmtYYg9LyP3jqzSRbE2iu3Wi9dJwaLfQ/gIiypaVqp7cULZlKpFnv73PGPRh1RzOQGypxzw1zraHZrRYWeRl4N/fGJZ29qJvTSffQy4MwOrMROi3Kum2q1Wq1WuaRzEsTRG0ZUmFoLbQpDLSvJ28Ol/FmnNwsPVU6BMZruoG9/6a3w784bdxL3wwn9pM4tS0d0PdaICL33wfvRr1mbc3S7zQH54ZXr6+v5YwE4OLetUnXiisUwjE6n+L6GKlr0lFLxQgYxl61rr3/wrb8hvl95+tnSExPKyywKLmR+3koxye4uX7i48Ztv9/7rP0pPPJkS+cAtfYct2bSBRiIso3E1XF+t7OFYSwHvupEg9NNWW8oCNxvlZaWogIwBVFHoiRg7RWlgJtcvXS4/9Unv8MA+u6usJ8EYX4ydt4M+w7CUL1wsX7g4YTemZZ3ZGvVmobR5+eVCjk4dogrOIm2zrI2twU9+HLeFDmjiutHXopeEcq6bAO5CGvVGqF9me93eeURZlSdCbjdXB18+BY0Mpeu3v2qutanjtG++mX/pWzXss+di/26++Er493qya2tZWdLFWPjo86HcZe73+77vc8mxRlyurLJw1RTk1a0MiRqh1Ss/f3x8nNSubCpKH/3Yzp9+k/i+yo/VmWm88FL3B98//t//KX/0Y7XnPh9+Ti9+qvnyjf4P/7N04WJN+QSoaRFKIBRv0T948KBerxfrf+BdN/oKved5BwcHSc0LZ0Y5oQ+aGsdY9MuDs/sYc0qBq9eo1Z1Hn5D9i52bb73/1+/6g2N7+5z59M+4XHPqnOio8oQQc62z/fV3/OEwKHkYfj5w3frV6+1Xby3w2OTBK7sEi77f79dqtWKFnppWtD+4rmmxhBDf98XOLflRTugDeKEXgnBUhjpO5yt37v7j3xPK1m9/NXsB5JkpX3z67B+9O7z7gbP72H63O3kDEEDpHK6OWnCum2XprUpp6fwTo5YAlDrnpRtPmqGs0I/39Fkq1w0hpPbsZ2vPfnaev2i210c+Igg9SIYvgbAkPnpCSOf21z74h79y9x+0Xr5urhUfgKg3yl1my7J83zfqYz645XLdLBbbto0lCaVQE8dxCg8DV4c5lCkul8syAgTt7XNbX3+n8N2qBqW0lNDdMw/KCf1oFdG2CWPkpMn1ci3GLhYZs2SlkNH2QSHk++hrQq0nkB3GmIwBVNVyoTSaoaNftg4AC2EOUTdAQVQVekLa128HAen1S5dz1Z0HAJwgZMZC6FcC5Vw3nueRoE3TU584941v+sPhVL0lged5lFIZTtIVwXVdxpi2A8g55SX46F3XxSpRHmQMoHIWfbfbPTo6qSloO1D5aTk4OOj1epO/BxJ48ODBcLyfsE7MwXVz9+5d72R1DUyL67r37t0rfLfKCT0AQB680C9PeCXIA4QegFVCvusGKAiEHoAVAlE3q4lyz3PNo5jlU3iZkVWj2WxqPICCr6b4M2232xpnnMnGMIx2O7Hv28woJ/Qa32PzAfdYTjQfQPkmPEJuciJjBmo9pwEA48BXs5pA6AFYIWQUtwHqo5zQ9/v9fr+/6KNYYrrd7mAwWPRRLDGHh4cFF/RXCvkW/f7+vn9SOB5MS9B4pPDdKif0w+EQOpWHwWCgcb7PHDg+PtY434d33UhYEev1ehD6mfF9X0bCo3JCDwCQB1w3qwmEHoBVghd6BLmtBMo93k3TxHtfHizLQnxbHmzb1jjGdw5RN47jaDyAsqGUOo5T+G6VE3oZJ7lSlMvlRR/CclOtal1HT36WQKOBfnCzwxirj/fXK2a3he8RAKAsnKmNsPoVAUIPwArBKjVz/fTJP1jtuc8v9HDAnFBO6H3fh48+DxjAnGg+epR2vvzLrFKlzGi//hWjXrybRePg1PkgYwYq56M/OjryfR/9hWdmf3/fsix46mdmb2+vVqtZlrXoA5FF5eM/tfvu38rb/4cfftjpdDQvGSSNoPHI+vp6sbvFxQAAAM2B0AMAgOZA6AEAQHOU89HDuZyTarWKdJU8NBoN+JfzsLa2hgGcGcZYq9UqfLfKCT2mSE6QFpsTDGBOTDQczwGlVMYAQlUBAEBzIPQAAKA5ygn98fExGo/kod/vo6B/Hrrdrs6NR+RzeHioedKZTHzfPzw8LHy3ygn9YDCATuWh3++j8Ugeer0ecjvzEOQ8LvoolhXP87rdbuG7lbts8t577027SWDOo4blzPR6PcMwNE7slM3R0ZHjOFiSnZmDgwOEfs2M53lHR0c5SwPcuXOHn8B+0Zw/fz7XiQIAAMhBv9/nZLl4182lS5euXLnS6XQK3zMAAIBZKNyiD7hy5cqizwwAAFYR0aKX5aPf3NyEDwcAAFSA+lgfBwAArVEuvBIAAECxQOgBAEBzIPQAAKA5EHoAANAcCD0AAGgOhB4AADQHQg8AAJoDoQcAAM2B0AMAgOZA6AEAQHMg9AAAoDkQegAA0BwIPQAAaA6EHgAANAdCDwAAmgOhBwAAzYHQAwCA5kDoAQBAcyD0AACgORB6AADQHAg9AABoDoQeAAA0B0IPAACaA6EHAADNgdADAIDmQOgBAEBz/h+UVN883w+xOAAAAABJRU5ErkJggg==;" vertex="1" parent="1">
          <mxGeometry x="630" y="460" width="125.99" height="89.99" as="geometry" />
        </mxCell>
        <mxCell id="yxD4dG-Z6kHUnOL1x4lN-211" style="edgeStyle=none;rounded=0;orthogonalLoop=1;jettySize=auto;html=1;strokeColor=#474747;strokeWidth=0.5;endArrow=classic;endFill=1;" edge="1" parent="1" target="yxD4dG-Z6kHUnOL1x4lN-206">
          <mxGeometry relative="1" as="geometry">
            <mxPoint x="600" y="505" as="sourcePoint" />
            <mxPoint x="260" y="510" as="targetPoint" />
          </mxGeometry>
        </mxCell>
      </root>
    </mxGraphModel>
  </diagram>
</mxfile>
